<?xml version="1.0" encoding="UTF-8"?>
<svg id="a" data-name="Layer 1" xmlns="http://www.w3.org/2000/svg" xmlns:xlink="http://www.w3.org/1999/xlink" viewBox="0 0 390.45 658.71">
  <defs>
    <clipPath id="c">
      <rect x="161.25" y="178.07" width="67.2" height="51.23" style="fill: none;"/>
    </clipPath>
    <clipPath id="d">
      <rect x="161.25" y="178.07" width="67.2" height="51.23" style="fill: none;"/>
    </clipPath>
    <clipPath id="f">
      <rect x="242.83" y="83.45" width="21.95" height="9.15" style="fill: none;"/>
    </clipPath>
    <clipPath id="h">
      <rect x="123.64" y="83.45" width="21.95" height="9.15" style="fill: none;"/>
    </clipPath>
    <clipPath id="j">
      <polygon points="197.65 81.81 197.65 81.81 246.79 81.81 246.79 115.47 197.65 115.47 197.65 81.81" style="fill: none;"/>
    </clipPath>
    <clipPath id="l">
      <polygon points="190.8 81.81 190.8 81.81 141.67 81.81 141.67 115.47 190.8 115.47 190.8 81.81" style="fill: none;"/>
    </clipPath>
    <clipPath id="n">
      <rect x="257.3" y="94.08" width="12.7" height="32.77" style="fill: none;"/>
    </clipPath>
    <clipPath id="p">
      <rect x="118.61" y="94.08" width="12.7" height="32.77" style="fill: none;"/>
    </clipPath>
    <clipPath id="r">
      <polygon points="209.02 90.08 209.02 90.08 239.26 90.08 239.26 105.21 209.02 105.21 209.02 90.08" style="fill: none;"/>
    </clipPath>
    <clipPath id="s">
      <path d="M237.4,97.66c.13,1.36-6.05,5.05-13.9,5.05s-12.63-3.35-12.63-4.71c0-1.18,5.19-5.98,13.05-5.98s13.3,3.74,13.48,5.65Z" style="fill: none;"/>
    </clipPath>
    <radialGradient id="t" cx="224.14" cy="97.32" fx="224.14" fy="97.32" r="5.54" gradientUnits="userSpaceOnUse">
      <stop offset=".46" stop-color="#7f5321"/>
      <stop offset=".82" stop-color="#418061"/>
      <stop offset=".99" stop-color="#6d7262"/>
    </radialGradient>
    <clipPath id="v">
      <polygon points="180.98 90.08 180.98 90.08 150.74 90.08 150.74 105.21 180.98 105.21 180.98 90.08" style="fill: none;"/>
    </clipPath>
    <clipPath id="w">
      <path d="M152.59,97.66c-.13,1.36,6.05,5.05,13.9,5.05s12.63-3.35,12.63-4.71c0-1.18-5.19-5.98-13.05-5.98s-13.3,3.74-13.48,5.65Z" style="fill: none;"/>
    </clipPath>
    <radialGradient id="x" gradientTransform="translate(389.99) rotate(-180) scale(1 -1)" xlink:href="#t"/>
    <clipPath id="y">
      <path d="M218.53,168.65c.06-2.34-1.21-4.52-3.27-5.63-24.58-13.19-31.26-10.52-38.98-5.59-5.43,3.47-3.26,31.9,15.1,23.67,2.77-1.24,5.93-1.25,8.76-.13,15.65,6.16,18.15-3.28,18.39-12.32Z" style="fill: none;"/>
    </clipPath>
  </defs>
  <g>
    <g>
      <path d="M274.8,514.93c0-19.73-16.68-35.72-37.25-35.72s-37.25,15.99-37.25,35.72c0,4.62,7.22,108.91,7.22,108.91.12,11.26,4.89,15.24,17.8,15.14l27.08-.22c12.91-.11,17.47-4.26,17.35-15.53,0,0,5.05-105.52,5.05-108.3Z" style="fill: #0e2b47;"/>
      <path d="M280.46,652.54c0,5.61-6.77,6.69-14.83,5.97-17.7-1.56-35.48-1.56-53.17,0-8.06.71-14.83-.36-14.83-5.97,0-13.88,18.54-33.51,41.42-33.51,22.87,0,41.42,19.63,41.42,33.51Z"/>
      <path d="M280.46,424.19c-.09-8.61-12.56-15.55-27.72-15.41l-31.8.28c-15.15.13-27.48,7.28-27.39,15.89,0,0,6.72,84.04,6.83,85.93.27,4.84.88,7.98,1.8,9.83,4.18,15.81,18.58,27.46,35.7,27.46,18.41,0,33.67-13.47,36.47-31.09.31-1.63.55-3.67.71-6.2.1-1.51,5.39-86.68,5.39-86.68Z" style="fill: #0e2b47;"/>
    </g>
    <g>
      <path d="M190.49,514.93c0-19.73-16.68-35.72-37.25-35.72s-37.25,15.99-37.25,35.72c0,4.62,7.22,108.91,7.22,108.91.12,11.26,4.89,15.24,17.8,15.14l27.08-.22c12.91-.11,17.47-4.26,17.35-15.53,0,0,5.05-105.52,5.05-108.3Z" style="fill: #0e2b47;"/>
      <path d="M196.15,652.54c0,5.61-6.77,6.69-14.83,5.97-17.7-1.56-35.48-1.56-53.17,0-8.06.71-14.83-.36-14.83-5.97,0-13.88,18.54-33.51,41.42-33.51,22.87,0,41.42,19.63,41.42,33.51Z"/>
      <path d="M196.15,424.19c-.09-8.61-12.56-15.55-27.72-15.41l-31.8.28c-15.15.13-27.48,7.28-27.39,15.89,0,0,6.72,84.04,6.83,85.93.27,4.84.88,7.98,1.8,9.83,4.18,15.81,18.58,27.46,35.7,27.46,18.41,0,33.67-13.47,36.47-31.09.31-1.63.55-3.67.71-6.2.1-1.51,5.39-86.68,5.39-86.68Z" style="fill: #0e2b47;"/>
    </g>
  </g>
  <path d="M283.72,363.38l-9.21-107.01c0-10.15-4.14-18.98-11.01-26.3-6.44-11.96,3.02-23.01-11.9-27.18-9.51-2.66-28.74-9.63-57.45-9.79-24.38-.14-48.24,9.11-59.35,9.79-15.47.95-5.97,18.08-13.24,33.6-3.43,5.32-5.52,11.26-5.89,17.77-1.07,5.23-1.63,10.64-1.63,16.18,0,.95.02,1.89.06,2.83l-7.97,89.07c-.46,3.17-.75,6.39-.86,9.65l-.06.73c0,.43,0,.84.02,1.23,0,.43-.02.86-.02,1.29,0,49.51,40.14,89.65,89.65,89.65s89.65-40.14,89.65-89.65c0-4.02-.27-7.99-.78-11.87Z" style="fill: #2d2d2d;"/>
  <g>
    <path d="M288.07,391.88c0,50.68-40.54,70.1-92.02,70.1s-94.4-19.42-94.4-70.1,41.73-91.76,93.21-91.76,93.21,41.08,93.21,91.76Z" style="fill: #2d2d2d;"/>
    <path d="M113.84,428.69c18.34,18.63,51.4,18.21,84.02,17.81,31.25-.39,58.8-.73,75.86-17.09,7.56-7.25,11.38-16.11,12.32-31.12,1.24,26.37-2.21,38.87-12.32,48.56-17.06,16.36-44.61,16.7-75.86,17.09-32.62.41-65.68.82-84.02-17.81-6.99-7.1-11.74-14-10.07-39.73,1.13,12.12,5.01,17.15,10.07,22.29Z" style="fill: #1e1e1e;"/>
  </g>
  <ellipse cx="194.85" cy="212.82" rx="41.71" ry="24.94" style="fill: #1e1e1e;"/>
  <g id="b" data-name="Neck">
    <g style="clip-path: url(#c);">
      <g style="clip-path: url(#d);">
        <path d="M228.46,209.21c0,11.1-15.04,20.09-33.6,20.09s-33.6-9-33.6-20.09,15.04-20.09,33.6-20.09,33.6,9,33.6,20.09" style="fill: #e3a47a;"/>
        <path d="M220.64,198.16c0,11.1-11.55,20.09-25.79,20.09s-25.79-9-25.79-20.09,11.55-20.09,25.79-20.09,25.79,9,25.79,20.09" style="fill: #e3a47a;"/>
      </g>
    </g>
  </g>
  <g>
    <g>
      <path d="M349.01,70.88c-4.54,1.84-7.67,5.57-8.84,9.88,0,.02-20.18,74.52-20.82,77.22-2.56,10.8,3.23,24.42,14.03,26.98,10.8,2.56,21.88-6.04,24.44-16.84.77-3.24,12.49-81.94,12.47-82.34.15-2.25-.22-4.57-1.18-6.8-3.3-7.63-12.3-11.26-20.09-8.11Z" style="fill: #e3a47a;"/>
      <g>
        <path d="M353,88.66h0c-9.22-1.72-15.3-10.58-13.59-19.8l2.66-14.3,33.39,6.22-2.66,14.3c-1.72,9.22-10.58,15.3-19.8,13.59Z" style="fill: #e3a47a;"/>
        <path d="M377.44,59.65c-1.95,10.48-12.03,17.4-22.52,15.45-10.48-1.95-17.4-12.03-15.45-22.52.86-4.6,6.32-4.74,8.06-9.35,1.96-5.2,8.57-7.19,14.46-6.09,10.48,1.95,17.4,12.03,15.45,22.52Z" style="fill: #e3a47a;"/>
        <path d="M354.83,6.67h0c3.16,0,5.72,2.56,5.72,5.72v34.49h-11.44V12.39c0-3.16,2.56-5.72,5.72-5.72Z" transform="translate(4.48 -35.46) rotate(5.76)" style="fill: #e3a47a;"/>
        <path d="M367.82,5.28h0c3.16,0,5.72,2.56,5.72,5.72v34.49h-11.44V11c0-3.16,2.56-5.72,5.72-5.72Z" transform="translate(15.25 -82.45) rotate(13.06)" style="fill: #e3a47a;"/>
        <path d="M376.83,15.43h0c3.16,0,5.72,2.56,5.72,5.72v34.49h-11.44V21.15c0-3.16,2.56-5.72,5.72-5.72Z" transform="translate(39.29 -135.72) rotate(21.51)" style="fill: #e3a47a;"/>
        <path d="M389.36,45.04l-18.24,28.26-7.27-6.35,18.24-28.26c1.67-2.59,4.65-3.26,6.66-1.51h0c2.01,1.75,2.28,5.27.61,7.86Z" style="fill: #e3a47a;"/>
        <path d="M341.56,30.78h0c3.86,0,6.99,3.13,6.99,6.99v31.94c0,.7-.57,1.28-1.28,1.28h-11.44c-.7,0-1.28-.57-1.28-1.28v-31.94c0-3.86,3.13-6.99,6.99-6.99Z" transform="translate(-2.38 81.88) rotate(-13.62)" style="fill: #e3a47a;"/>
      </g>
    </g>
    <path d="M337.97,154.16c-5.96-1.94-12.18-.9-17.05,2.29-.02-.08-55.75,39.95-64.19,55.44-15.95,29.27-13.1,17.95-4.88,27.15,9.66,10.81,7.34,20.54,15.03,19.05,19.65-3.81,79.31-71.22,79.31-71.22.06-.07.1-.12.13-.17,1.95-2.07,3.48-4.59,4.42-7.48,3.39-10.45-2.33-21.66-12.77-25.06Z" style="fill: #e3a47a;"/>
    <g>
      <path d="M327.52,207.97c11.62-4.88,14.19-11.57,9.31-23.19-4.88-11.62-15.38-23.79-27-18.9-11.62,4.88-17.08,18.27-12.2,29.89,4.88,11.62,18.27,17.08,29.89,12.2Z" style="fill: #2d2d2d;"/>
      <path d="M305.88,168.08h0s0,0,0,0c-.08.04-.15.08-.23.12,1.84-1.45,3.78-2.88,5.83-4.29h0c8.91-6.75,36.31,23.48,29.18,32.9-1.16,1.53-2.31,3-3.45,4.42,2.98-11.4-22.88-39.59-31.33-33.15Z" style="fill: #1e1e1e;"/>
      <path d="M302.36,170.67c8.93-6.8,40.39,21.9,33.69,31.78-9.85,14.53-37.7,48.8-45.65,54.34-27.41,19.1-25.43-2.46-33.47-12.26-6.46-7.88-16.85-6.15-14.79-14.03,5.25-20.07,30.27-44.18,60.21-59.83h0s0,0,0,0Z" style="fill: #2d2d2d;"/>
      <circle cx="269.13" cy="238.23" r="28.41" style="fill: #2d2d2d;"/>
    </g>
  </g>
  <g>
    <path d="M257.12,142.52c.68-3.21,1.18-6.45,1.48-9.68.87-6.86,1.46-14.42,1.75-22.73l2.97-32.73c0-17.64-13.96-41.71-31.61-41.71h-73.43c-17.65,0-32.29,24.08-32.29,41.71l2.78,23.67c.66,71.36,21.1,92.04,50.03,96.5,3.15.67,6.43,1.03,9.83,1.03h12.06c3.19,0,6.28-.33,9.28-.95,22.57-3.3,40.05-16.28,47.15-55.11Z" style="fill: #f0a981;"/>
    <g style="opacity: .6;">
      <path d="M202.15,123.78c1.41,1.88,2.81,3.8,3.93,5.96.45.69.47,1.79.26,2.66-3.48,9.83-16.92,12.4-22,2.97-1.53-2.93-2.88-6.76-1.83-10.18.61-1.78,1.79-2.98,2.75-4.13.99-1.14,1.77-2.36,1.72-3.81-1.61-6.96.83-13.2.85-19.96.58,4.95-.94,9.96-.53,14.94,0,2.55,1.44,5.25.21,7.71-1.03,2.16-3.16,3.6-3.85,5.79-.82,2.94.48,6.26,1.8,8.74,3.02,5.68,9.43,6.66,14.35,3.99,2.51-1.5,5.75-3.79,6.07-7.41-.54-2.65-2.47-4.95-3.73-7.27h0Z" style="fill: #9b6540;"/>
    </g>
    <path d="M181.24,86.8s-13.02-4.64-16.51-4.65-13.28,4.65-13.28,4.65c-.99,0-1.79-.8-1.79-1.79v-.87c0-.99.8-1.79,1.79-1.79,0,0,9.75-5.95,13.14-5.95s16.65,3.24,16.65,3.24c.99,0,1.79.8,1.79,1.79v3.58c0,.99-.8,1.79-1.79,1.79Z" style="fill: #723d09;"/>
    <path d="M208.89,86.8s13.02-4.64,16.51-4.65,13.28,4.65,13.28,4.65c.99,0,1.79-.8,1.79-1.79v-.87c0-.99-.8-1.79-1.79-1.79,0,0-9.75-5.95-13.14-5.95s-16.65,3.24-16.65,3.24c-.99,0-1.79.8-1.79,1.79v3.58c0,.99.8,1.79,1.79,1.79Z" style="fill: #723d09;"/>
    <g>
      <g>
        <g id="e" data-name="&amp;lt;Mirror Repeat&amp;gt;">
          <g style="clip-path: url(#f);">
            <path d="M243.25,83.46l20.63,7.09c1.29.22,1.16,2.26-.13,2.03l-18.49-5.38c-1.29-.22-3.3-3.96-2.01-3.74Z"/>
          </g>
        </g>
        <g id="g" data-name="&amp;lt;Mirror Repeat&amp;gt;">
          <g style="clip-path: url(#h);">
            <path d="M145.17,83.46l-20.63,7.09c-1.29.22-1.16,2.26.13,2.03l18.49-5.38c1.29-.22,3.3-3.96,2.01-3.74Z"/>
          </g>
        </g>
      </g>
      <path d="M199.14,87.97s-.76-1.38-4.93-1.38-4.74,1.38-4.74,1.38l-4.46-4.26s5.56,1,9.2,1,9.02-1,9.02-1l-4.09,4.26Z"/>
      <g>
        <g id="i" data-name="&amp;lt;Mirror Repeat&amp;gt;">
          <g style="clip-path: url(#j);">
            <path d="M242.12,108.28c-.52,2.69-1.73,3.89-4.6,4.57-2.12.51-4.66.67-15.54.67-9.39,0-11.94-.52-12.33-.62l-.21-.11-.11.02s-3.76-.69-5.52-3.5c-1.47-2.34-4.67-18.96-4.25-21.03.46-2.24,1.88-2.37,3.76-2.76,1.48-.31,8.49-1.54,17.62-1.54.46,0,.92,0,1.39.01,9.76.18,19.08,1.24,19.17,1.25h.1s.1.01.1.01c2.18,0,2.99,1.71,3.03,3.35l-2.61,19.65Z" style="fill: #96c6d1; opacity: .2;"/>
            <path d="M222.06,115.47c-10.19,0-12.57-.62-12.9-.72-.43-.08-4.71-.92-6.94-4.45-2.35-3.72-4.61-19.82-4.57-23.11.03-2.31,3.74-3.6,5.53-3.86.2-.03.45-.07.77-.12,2.61-.42,8.72-1.4,16.75-1.4.57,0,1.15,0,1.74.02,9.54.17,18.65,1.19,19.15,1.24,3.07.01,5.21,2.37,5.21,5.74v.03l-2.61,19.53c-.86,4.52-3.64,5.76-6.26,6.38-2.31.55-4.81.72-15.87.72ZM221.03,84.53c-10.02,0-17.28,1.49-17.35,1.5l-.38.08c-1.67.34-2.68.54-3.05,2.33-.38,1.83,2.68,18.05,4.15,20.37,1.63,2.58,5.49,3.34,5.53,3.35.42.1,2.92.6,12.13.6,10.73,0,13.23-.16,15.29-.65,2.71-.64,3.78-1.7,4.27-4.19l2.57-19.25c-.02-.72-.29-2.88-2.62-2.88h-.24c-.09-.02-9.29-1.07-18.93-1.24-.46,0-.91-.01-1.36-.01Z"/>
            <path d="M241.56,83.46s-9.28-1.07-19.13-1.24c-9.86-.18-17.27,1.21-19.2,1.5s-5.18,1.58-5.21,3.49c-.05,3.46,2.28,19.35,4.51,22.89,2.23,3.53,6.71,4.28,6.71,4.28,0,0,1.84.71,12.81.71s13.52-.17,15.79-.71c3-.71,5.23-2.13,5.97-6.06l2.6-19.5c0-2.95-1.76-5.35-4.85-5.35ZM241.98,107.99c-.51,2.64-1.71,3.82-4.55,4.49-2.09.5-4.61.66-15.37.66-9.29,0-11.81-.51-12.2-.61,0,0-4.04-.76-5.78-3.51-1.45-2.3-4.62-18.62-4.2-20.66.45-2.2,1.86-2.32,3.72-2.71,1.47-.31,8.4-1.51,17.42-1.51.45,0,.91,0,1.37.01,9.65.17,18.87,1.22,18.96,1.23h.1s.1.01.1.01c2.15,0,2.96,1.68,2.99,3.29l-2.58,19.3Z"/>
          </g>
        </g>
        <g id="k" data-name="&amp;lt;Mirror Repeat&amp;gt;">
          <g style="clip-path: url(#l);">
            <path d="M146.34,108.28c.52,2.69,1.73,3.89,4.6,4.57,2.12.51,4.66.67,15.54.67,9.39,0,11.94-.52,12.33-.62l.21-.11.11.02s3.76-.69,5.52-3.5c1.47-2.34,4.67-18.96,4.25-21.03-.46-2.24-1.88-2.37-3.76-2.76-1.48-.31-8.49-1.54-17.62-1.54-.46,0-.92,0-1.39.01-9.76.18-19.08,1.24-19.17,1.25h-.1s-.1.01-.1.01c-2.18,0-2.99,1.71-3.03,3.35l2.61,19.65Z" style="fill: #96c6d1; opacity: .2;"/>
            <path d="M166.4,115.47c10.19,0,12.57-.62,12.9-.72.43-.08,4.71-.92,6.94-4.45,2.35-3.72,4.61-19.82,4.57-23.11-.03-2.31-3.74-3.6-5.53-3.86-.2-.03-.45-.07-.77-.12-2.61-.42-8.72-1.4-16.75-1.4-.57,0-1.15,0-1.74.02-9.54.17-18.65,1.19-19.15,1.24-3.07.01-5.21,2.37-5.21,5.74v.03l2.61,19.53c.86,4.52,3.64,5.76,6.26,6.38,2.31.55,4.81.72,15.87.72ZM167.43,84.53c10.02,0,17.28,1.49,17.35,1.5l.38.08c1.67.34,2.68.54,3.05,2.33.38,1.83-2.68,18.05-4.15,20.37-1.63,2.58-5.49,3.34-5.53,3.35-.42.1-2.92.6-12.13.6-10.73,0-13.23-.16-15.29-.65-2.71-.64-3.78-1.7-4.27-4.19l-2.57-19.25c.02-.72.29-2.88,2.62-2.88h.24c.09-.02,9.29-1.07,18.93-1.24.46,0,.91-.01,1.36-.01Z"/>
            <path d="M146.9,83.46s9.28-1.07,19.13-1.24c9.86-.18,17.27,1.21,19.2,1.5s5.18,1.58,5.21,3.49c.05,3.46-2.28,19.35-4.51,22.89-2.23,3.53-6.71,4.28-6.71,4.28,0,0-1.84.71-12.81.71s-13.52-.17-15.79-.71c-3-.71-5.23-2.13-5.97-6.06l-2.6-19.5c0-2.95,1.76-5.35,4.85-5.35ZM146.48,107.99c.51,2.64,1.71,3.82,4.55,4.49,2.09.5,4.61.66,15.37.66,9.29,0,11.81-.51,12.2-.61,0,0,4.04-.76,5.78-3.51,1.45-2.3,4.62-18.62,4.2-20.66-.45-2.2-1.86-2.32-3.72-2.71-1.47-.31-8.4-1.51-17.42-1.51-.45,0-.91,0-1.37.01-9.65.17-18.87,1.22-18.96,1.23h-.1s-.1.01-.1.01c-2.15,0-2.96,1.68-2.99,3.29l2.58,19.3Z"/>
          </g>
        </g>
      </g>
    </g>
    <path d="M128.95,104.78c2.8.1-.46-5.92,2.35-5.92-.01-1.98.2-7.94.19-12.51,0-2.96-.17-12.73.74-15.58,2.18-6.85,5-14.05,8.97-15.02,4.03-.99,8.61-4.17,16.78-5.7,8.93-1.67,10.87-.58,18.68-1.5,19.33-2.27,25.73-11.08,38.55-8.08,3.53.82,6.18,2.22,7.72,3.15-1.2-.27-2.59-.41-4.1-.29-6.9.57-10.97,6.37-11.67,7.42,5.26-1.02,27.7-8.89,40.75,5.38,1.97,2.15,6.31,6.78,6.98,8,5.2,9.45,4.18,21.7,2.55,34.22l3.22,7.02c.1-9.08,5.7-17.87,3.93-26.79-1.25-6.29-.42-12.73-.03-19.11.39-6.38.3-13-2.6-18.83-2.91-5.84-9.26-10.73-16.44-10.62.25-.52,1.08-2.11,3.03-2.93,2.3-.98,5.22-.51,7.39,1.2-2.02-2.09-4.89-4.65-8.79-7.02-5.35-3.26-10.48-4.88-14.05-5.73,2.51-1.57,8.83-5.04,16.59-4.08,1.47.18,2.81.5,4.01.89-1.62-1.45-4.13-3.41-7.61-5.08-9.66-4.62-19.32-3.38-25.49-2.58-12.35,1.59-21.47,6.47-26.65,9.85,2.78-5.95,9.08-10.5,16.2-11.69,1.49-.39,2.99-.77,4.48-1.16-1.96-.5-4.79-1.11-8.24-1.44-8.77-.85-15.1.67-26.14,3.54,0,0-17.65,4.65-28.58,10.93-1.88,1.08-3.56,2.24-3.56,2.24-.75.52-1.45,1.03-2.1,1.53-.34-.84-.92-2.67-.49-4.96.44-2.37,1.73-3.96,2.37-4.66-1.37.35-3.7,1.13-5.86,2.94-3.9,3.26-4.42,7.46-4.52,8.61-.5-.51-1.23-1.4-1.64-2.66-.76-2.38.17-4.39.48-5-1.5.9-10.73,6.66-11.87,16.94-.53,4.83.94,8.74,1.99,10.9-1.96,5.18-4.39,12.96-5.35,22.57-1.25,12.58,2.62,19.5,2.24,30.05-.16,4.37,5.61,7.53,5.6,11.57Z" style="fill: #723d09;"/>
    <g>
      <g id="m" data-name="&amp;lt;Mirror Repeat&amp;gt;">
        <g style="clip-path: url(#n);">
          <path d="M263.79,94.2c2.36-.91,4.95,3.58,5.81,7.36,2.59,11.35-8.02,26.62-10.86,25.2-3.45-1.72-.24-30.53,5.05-32.56Z" style="fill: #f0a981;"/>
        </g>
      </g>
      <g id="o" data-name="&amp;lt;Mirror Repeat&amp;gt;">
        <g style="clip-path: url(#p);">
          <path d="M124.82,94.2c-2.36-.91-4.95,3.58-5.81,7.36-2.59,11.35,8.02,26.62,10.86,25.2,3.45-1.72.24-30.53-5.05-32.56Z" style="fill: #f0a981;"/>
        </g>
      </g>
    </g>
    <path d="M257.92,96c-.09,8.7-2.23,23.01-4.47,31.42-5.26,19.73-11.15,31.24-18.75,33.55-11.16,3.38-10.35-21.09-28.28-18.09-3.97.66-7.62-.34-11.76.48-4.14-.82-7.85.49-11.76-.48-19.21-4.77-17.12,21.47-28.28,18.09-7.6-2.3-13.48-13.81-18.75-33.55-2.24-8.41-4.37-22.72-4.47-31.42-2.81,0,.17,4.23-2.64,4.13.57,84.06,28.34,98.45,65.15,98.45.25,0,.5,0,.75,0,.25,0,.5,0,.75,0,36.81,0,64.57-14.39,65.15-98.45-2.81.1.17-4.12-2.64-4.13Z" style="fill: #723d09;"/>
    <g>
      <g id="q" data-name="&amp;lt;Mirror Repeat&amp;gt;">
        <g style="clip-path: url(#r);">
          <path d="M236.39,97.55c.12,1.36-5.63,5.05-12.93,5.05s-11.75-3.35-11.75-4.71c0-1.18,4.83-5.98,12.14-5.98s12.37,3.74,12.54,5.65Z" style="fill: none; stroke: #000; stroke-miterlimit: 10; stroke-width: 2.83px;"/>
          <g style="clip-path: url(#s);">
            <path d="M237.4,97.59c.13,1.33-6.05,4.94-13.9,4.94s-12.63-3.28-12.63-4.62c0-1.16,5.19-5.85,13.05-5.85s13.3,3.67,13.48,5.53Z" style="fill: #f8f0eb;"/>
            <path d="M239.25,98.07c.15,1.93-6.89,7.14-15.84,7.14s-14.4-4.75-14.4-6.67c0-1.67,5.92-8.46,14.87-8.46s15.16,5.3,15.37,7.99Z" style="fill: #f8f0eb;"/>
            <g>
              <circle cx="224.14" cy="97.32" r="5.54" style="fill: url(#t);"/>
              <circle cx="224.14" cy="97.32" r="2.19"/>
            </g>
            <path d="M209.58,96.7c.95.55,1.62,1.1,1.83,1.6.18.42.2,1.37.01,2.57-.15.97-1.42-1.35-1.59-1.75s-1.23-2.98-.25-2.41Z" style="fill: #f09a85;"/>
          </g>
        </g>
      </g>
      <g id="u" data-name="&amp;lt;Mirror Repeat&amp;gt;">
        <g style="clip-path: url(#v);">
          <path d="M153.6,97.55c-.12,1.36,5.63,5.05,12.93,5.05s11.75-3.35,11.75-4.71c0-1.18-4.83-5.98-12.14-5.98s-12.37,3.74-12.54,5.65Z" style="fill: none; stroke: #000; stroke-miterlimit: 10; stroke-width: 2.83px;"/>
          <g style="clip-path: url(#w);">
            <path d="M152.59,97.59c-.13,1.33,6.05,4.94,13.9,4.94s12.63-3.28,12.63-4.62c0-1.16-5.19-5.85-13.05-5.85s-13.3,3.67-13.48,5.53Z" style="fill: #f8f0eb;"/>
            <path d="M150.74,98.07c-.15,1.93,6.89,7.14,15.84,7.14s14.4-4.75,14.4-6.67c0-1.67-5.92-8.46-14.87-8.46s-15.16,5.3-15.37,7.99Z" style="fill: #f8f0eb;"/>
            <g>
              <circle cx="165.86" cy="97.32" r="5.54" style="fill: url(#x);"/>
              <circle cx="165.86" cy="97.32" r="2.19"/>
            </g>
            <path d="M180.41,96.7c-.95.55-1.62,1.1-1.83,1.6-.18.42-.2,1.37-.01,2.57.15.97,1.42-1.35,1.59-1.75s1.23-2.98.25-2.41Z" style="fill: #f09a85;"/>
          </g>
        </g>
      </g>
    </g>
  </g>
  <g>
    <path d="M241.99,290.22c-.05.26-.11.6-.23.81l-.52.73-.41.74c-.28.45-.61.86-.93,1.27l-.58.63-.29.2.09.46.17,1.08.04.33-.14.55-.21.26.23,3.25.2.6.38,1.7c.14.67.14,1.38.26,2.09.09.52.11,1.04.2,1.61v.55l-.1.42-.13.18v.95l-.13.54c-.38.92-2.44,1.32-3.25.51-.16-.16-.23-.35-.3-.62-.06-.24-.08-.53,0-.77-.23.02-.49.06-.74.1-.22.04-.38-.08-.55-.06l-.64.14c-1.11.22-2.45.11-2.69-.81-.07-.24-.08-.5-.02-.74-.26-.11-.62-.69-.54-1.12.05-.27.16-.61.03-.85-.27.15-1.5.49-1.91.35l-.09.34c-.05.18-.14.29-.19.41v.36c.01.22-.05.61-.13.77-.1.19-.31.37-.5.47-.26.15-.61.15-.93.23-.35.09-.71.19-1.12.25-.41.07-.86-.05-1.17-.13-.71-.18-1.17-.24-1.36-.94-.06-.22-.09-.43-.01-.66l-.77.15c-.81.13-2.13-.15-2.47-.55-.17-.2-.27-.47-.33-.78-.02-.11.07-.24.02-.31l-.21-.17c-.1-.13-.14-.25-.22-.41-.04.36-.4.57-.67.72-.06.07-.12.13-.18.2l-.35.25c-.54.32-1.61.24-1.99-.18l-.39.24-.76.18c-.5.09-1.42-.37-1.61-.61-.09-.11-.13-.25-.22-.38l-.34-.18c-.28-.16-.55-.36-.73-.63-.16-.24-.11-.58-.22-.88-.1-.28-.32-.53-.41-.8l-.22-.96-.04-.39c-.06-.19-.18-.38-.22-.63h-.01l-.28,1.52-.08.68c-.12.57-.29,1.26-.6,1.66-.09.11-.4.39-.53.44l-.45.1-.2.29c-.1.13-.23.24-.36.33-.31.22-.7.36-1.15.44-.18.03-.34-.04-.46-.08-.61-.17-1.09-.53-1.12-1.27-.3-.04-.48-.21-.68-.34l-.03.02c-.18.38-.69.42-1.13.56l-.35.22c-.73.23-1.38.12-2.02-.14-.38-.16-.69-.36-.99-.6l-.24-.22-.31-.11c-.29-.18-.62-.45-.77-.77l-.12-.5v-.2c-.04-.16-.12-.38-.15-.56v-.49c-.06-.34-.15-.71-.22-1.07l-.2-1.56c-.04-.23,0-.48.03-.7h-.6v.09s-.05.57-.05.57l-.33,1.71c-.08.42-.07.75-.19,1.1l-.13.23c-.04.21-.09.43-.13.64-.05.13-.2.22-.26.34l-.1.45-.26.39c-.14.18-.37.25-.56.39-.24.17-.47.46-.65.68-.07.08-.18.15-.24.23l-.1.25-.29.41c-.29.36-1.06.52-1.5.21-.13-.09-.27-.16-.36-.29l-.28-.43-.1-.24c-.1-.14-.28-.24-.35-.41-.16-.36-.06-.92-.24-1.27-.41.23-.75.58-1.14.83-.11.07-.34.04-.42.13-.14.3-.12.57-.35.75-.59.45-1.36.42-2.09.13l-.38-.13c-.18-.11-.4-.27-.53-.43l-.15-.21-.31-.07c-.34-.14-.64-.47-.83-.77-.15-.26-.12-.6-.18-.93l-.17-.65v-.5c-.12-.54-.35-.97-.44-1.55h-.01c-.03.53-.09,1.06-.18,1.59v.6l-.11.45-.09.11v.25l-.11.45c-.15.32-.54.59-.84.76l-.32.1-.14.22c-.16.21-.51.46-.76.57-.26.12-.71.09-.95.23-.04.1-.13.13-.21.19-.65.46-1.27.13-1.95.02-.13.12-.28.15-.44.25l-.31.25c-.49.31-1.43.39-2.02.15-.19-.08-.34-.23-.5-.34-.2,0-.38.02-.58.06-.2.03-.45,0-.6-.04l-.38-.08c-.43-.17-.64-.74-.85-1.14-.11.06-.15.16-.23.24l-.4.3c-.33.2-.97.22-1.38.13.07.21.07.51.01.72-.06.23-.1.4-.24.54-.41.42-1.52.57-2.37.42-.29-.05-.6-.16-.87-.19l-.29.06c-.4-.06-1.02-.11-1.34-.28-.31-.16-.46-.45-.54-.85l-.03-.66c-.05-.15-.14-.37-.18-.55l-.1-.96-.14-.96h-.02s-.26,1.26-.26,1.26c-.09.34-.09.66-.17,1.04l-.12.46c-.02.2.16.38.12.63l-.12.53-.13.17v.2c-.09.33-.17.58-.35.8-.57.68-2.47.38-2.93-.2-.2-.26-.25-.53-.35-.89-.33-.12-.45-.39-.61-.7h-.01c-.05.4-.42.55-.7.74l-.11.14c-.14.13-.34.28-.52.35-.69.28-1.69.11-2.09-.36-.2-.23-.43-.82-.34-1.26.03-.14.16-.38.11-.54-.04-.14-.17-.33-.23-.47l-.21-.78v-.62s-.03-.51-.03-.51l-.1-.45c-.1-.58.17-1.06-.06-1.53l-.04.71.13,1.78v1.02s-.1,2.05-.1,2.05c-.02.73.05,1.5-.08,2.15-.04.19-.12.41-.17.58l-.12.49c-.45.72-1.41,1.14-2.49.84-.22-.06-.42-.09-.6-.19-.6-.35-.82-.79-.95-1.6l-.76-.17c-.79-.21-1.29-.4-1.49-1.19-.06-.24-.03-.59.09-.82.22-.4.62-.69,1-.93l.35-.2c.02-1.46-.18-2.88-.45-4.07l-.18-1.46c-.05-.2-.14-.43-.18-.65v-.51c-.17-.75-.12-1.71-.25-2.54-.05-.3,0-.68.06-.93l.07-.31c-.04-.17-.15-.41-.19-.63l.15-.74c-.76-.25-1.1-1.55-.79-2.51.05-.14.18-.26.26-.38.19-.25.37-.48.56-.72l.19-.13.14-.21.22-.18.45-.63.65-.73.36-.45c-.24-.64-.27-1.43-.28-2.32,0-.31-.05-.56.08-.82.06-.11.18-.2.25-.3l.23-.34c.18-.23.53-.29.83-.4l.1-.08c.41-.19,1.34-.21,1.74-.01.48.23.89.6,1.17,1.06.09.15.1.33.19.5v-.02s.2-.25.2-.25v-30.35c-.04-.51.33-.95.84-.99.04,0,.07,0,.11,0h72.69c.58-.03,1.08.42,1.13,1v28.51l.13.03.33.23c.45.32.52.33.79.84l.04-.03c.21-.51.99-.88,1.62-.99.23-.04.41.02.62-.02.23-.04.57-.03.79.09.19.1.28.29.44.41.48.37.9.89,1.03,1.61.04.25-.18.89-.13.99.07.16.37.18.56.23.34.09.65.18.9.35.5.33.7.66,1.05,1.14.18.25.4.47.6.72.31.4.74.71,1.02,1.15.15.25.53.78.44,1.24h0Z" style="fill-rule: evenodd;"/>
    <path d="M230.84,282.06l-.68.17-.51.33-.15.03c-.08.04-.16.1-.22.16v-25.32h-69.8v25.75c-.54-.04-1.07.05-1.57.26l-.09.06v-29.6c0-.18.15-.33.33-.33h72.45c.18,0,.33.15.33.33v28.15s-.06,0-.09,0ZM222.1,254.57c-.57,0-1.03.46-1.03,1.03s.46,1.03,1.03,1.03h0c.57,0,1.03-.46,1.03-1.03,0-.57-.46-1.03-1.03-1.03ZM225.17,254.57c-.57,0-1.03.46-1.03,1.03s.46,1.03,1.03,1.03h0c.57,0,1.03-.46,1.03-1.03,0-.57-.46-1.03-1.03-1.03ZM228.25,254.57c-.57,0-1.03.46-1.03,1.03s.46,1.03,1.03,1.03h0c.57,0,1.03-.46,1.03-1.03,0-.57-.46-1.03-1.03-1.03Z" style="fill: #fff;"/>
    <path d="M221.54,262.95h4.41v11.31h-4.41v-11.31ZM212.13,271.51v-7.16h.83v3.3c.21-.36.51-.67.85-.9.29-.2.64-.32,1-.32.27,0,.54.07.77.22.21.12.38.3.49.52.07.16.13.33.15.5.03.36.05.72.04,1.09v2.76h-.83v-2.87c.01-.32,0-.63-.07-.94-.04-.15-.13-.28-.25-.38-.11-.09-.26-.15-.4-.15-.35.02-.68.17-.93.41-.34.28-.63.64-.83,1.04v2.89h-.82ZM207.02,271.25v-.87c.32.21.68.37,1.05.46.31.08.62.12.94.13.31.03.63-.04.9-.2.17-.11.28-.3.28-.5,0-.13-.04-.25-.13-.34-.19-.15-.41-.27-.64-.35l-.28-.12-.57-.23c-.61-.24-1-.46-1.16-.67-.16-.21-.25-.47-.24-.74,0-.39.17-.76.47-1.01.32-.28.83-.39,1.54-.39.51,0,1.02.08,1.5.23v.75c-.5-.19-1.02-.29-1.55-.3-.29-.02-.57.05-.83.18-.17.09-.29.26-.3.46,0,.18.1.34.26.43.26.15.54.27.83.37l.55.2c.4.12.77.33,1.08.61.21.22.32.52.31.83,0,.41-.17.8-.5,1.06-.33.28-.86.41-1.58.41-.66-.01-1.32-.15-1.93-.4ZM201.7,271.51v-.76l3.03-3.51h-2.96v-.69h4.06v.69l-3.05,3.51h3.16v.76h-4.24ZM194.52,271.32l-2.29-4.76h.91l1.82,3.72,1.52-3.72h.83l-1.91,4.61c-.41.97-.79,1.61-1.16,1.93-.4.33-.9.5-1.42.48-.23,0-.45-.02-.67-.07v-.73c.21.07.43.11.65.11.25,0,.49-.05.71-.16.24-.13.43-.32.57-.55.14-.21.27-.44.36-.68,0,0,.07-.18.07-.18ZM186.59,271.51v-4.95h.72v1.13c.15-.37.37-.7.64-1,.16-.17.37-.26.6-.28.23,0,.44.1.58.28.16.23.24.52.22.8v.28c.08-.26.2-.51.35-.74.12-.17.26-.32.43-.45.15-.11.33-.17.51-.17.22,0,.42.1.55.28.15.18.23.55.23,1.08v3.74h-.72v-3.38c0-.19,0-.38-.03-.57,0-.09-.05-.17-.11-.23-.04-.05-.11-.08-.17-.08-.15,0-.32.12-.49.35-.24.36-.42.75-.54,1.17v2.75h-.69v-3.38c0-.44-.04-.7-.13-.77-.06-.06-.14-.11-.23-.12-.15,0-.31.13-.49.39-.2.32-.37.66-.5,1.01v2.86h-.73ZM177.58,271.51v-7.16h.83v3.3c.21-.36.51-.67.85-.9.29-.2.64-.32,1-.32.27,0,.54.07.77.22.21.12.38.3.49.52.07.16.13.33.15.5.03.36.05.72.04,1.09v2.76h-.83v-2.87c.01-.32,0-.63-.07-.94-.04-.15-.13-.28-.25-.38-.11-.09-.26-.15-.4-.15-.35.02-.68.17-.93.41-.34.28-.63.64-.83,1.04v2.89h-.82,0ZM174.17,271.65c-.65.03-1.28-.25-1.7-.74-.85-1.1-.85-2.64,0-3.75.87-.94,2.34-.99,3.28-.12.04.04.08.08.12.12.85,1.1.85,2.64,0,3.75-.42.49-1.05.77-1.7.74ZM174.17,270.96c.41.01.81-.18,1.05-.52.52-.87.52-1.96,0-2.83-.45-.58-1.29-.68-1.87-.23-.09.07-.17.15-.23.23-.52.87-.52,1.96,0,2.83.24.34.64.53,1.05.51h0ZM165.14,272.2v-.69c-.2,0-.41,0-.62-.03-.2-.02-.4-.05-.6-.1-.22-.05-.44-.13-.65-.23v-.86c.19.1.38.18.58.26.19.07.39.13.6.17.23.04.46.07.69.09v-2.47l-.48-.26c-.9-.48-1.35-1.07-1.35-1.75.01-.4.17-.78.45-1.06.36-.37.86-.59,1.38-.6v-.74h.62v.74c.42,0,.84.07,1.24.18v.77l-.16-.04c-.35-.11-.72-.18-1.08-.23v2.41l.5.28c.38.19.7.46.96.8.17.24.26.53.26.83,0,.27-.07.53-.2.76-.14.25-.33.47-.57.64-.29.19-.61.32-.95.37v.75s-.62,0-.62,0ZM165.14,267.39v-2.05c-.26.04-.5.16-.69.34-.16.14-.24.34-.24.55,0,.21.08.41.21.57.21.24.45.44.73.59ZM165.76,268.7v2.04c.26-.07.48-.22.65-.43.11-.16.17-.36.17-.55,0-.19-.06-.37-.17-.52-.19-.21-.41-.4-.66-.55Z" style="fill: #fff;"/>
    <path d="M240.76,290.74c-.1.17-.22.32-.35.47-.09.17-.18.34-.28.5-.38.67-.85,1.29-1.39,1.84-.07.07-.15.18-.24.18-.05,0-.09.02-.13.05-.11.07-.21,0-.28.07-.15.16-.12.26-.09.45s.06.38.09.57c.07.41.15.82.2,1.24.02.17.1.39-.07.5-.06.03-.13.07-.2.09-.11.05-.06.14-.06.25.03.86.1,1.71.18,2.57l.06.71c0,.2.02.4.07.6.14.36.25.73.33,1.1.19.83.33,1.68.41,2.53.08.85.31,1.73.24,2.59-.13-.02-.25-.08-.38-.08.26.42.1,1.02.15,1.49.05.53-.54.61-.96.64-.22.03-.44,0-.64-.09-.22-.12-.15-.42-.11-.63.05-.26.15-.52.21-.78.1-.23.17-.46.23-.7-.12.02-.35.06-.45-.05,0-.22-.01-.45-.05-.67-.07-.4-.17-.79-.24-1.19-.16-.93-.28-1.87-.43-2.8.06,1.13.04,2.26.02,3.38.04.22,0,.45-.09.65-.04.07.04.21.04.29,0,.12,0,.24,0,.36,0,.09.05.26-.02.31-.07.05-.15.08-.23.1-.19.04-.39.07-.59.08-.1,0-.44.05-.44-.03,0-.08-.5.06-.58.08-.5.1-1,.14-1.51.12-.11,0-.22-.02-.33-.04-.13-.03-.21-.02-.21-.16.01-.25-.04-.33.22-.44.18-.08,1.08-.2,1.08-.44.04,0,.06.12.08.04.02-.08.1-.06.16-.06-.07-.09.13-.12.15-.24-.11.06-.21.14-.3.24.06-.2.32-.28.49-.34.01,0-.05.15.07.08.06-.03.08,0,.12,0,.04,0,.06-.06.1-.08-.14-.11-.27-.21-.26-.39.02-.18.09-.35.09-.53-.05-.4-.08-.79-.08-1.19-.02-.83.04-1.71-.11-2.51-.14-.8-.38-1.58-.51-2.38-.12-.81-.2-1.62-.23-2.44-.09,0-.06.13-.13.14-.07.01-.07-.34-.07-.41-.02-.28-.07-.57-.12-.85-.05-.31-.08-.62-.08-.93-.02-.26-.03-.52-.01-.78.09-.58.3-1.11.39-1.69.04-.28.08-.55.12-.83.02-.15.05-.31.07-.46,0-.03-.05-.2-.03-.23.12-.14.03-.59.03-.79,0-.29.04-.57.09-.86.04-.14.07-.28.08-.43,0-.13.02-.27.07-.39.09-.18.21-.34.33-.5.08-.09.17-.17.28-.22.13-.08.13-.23.19-.36.06-.11.07-.24.01-.35-.03-.12-.18-.05-.28-.05-.15-.19-.27-.41-.35-.63-.13-.18-.22-.38-.28-.6-.13.05-.18-.04-.25-.14s.06-.22.13-.3c0-.17-.03-.35-.03-.52-.02,0-.04.01-.06.02-.17-.03-.07-.18-.12-.28.03-.21.14-.41.3-.55.09-.09.2-.17.31-.24.15-.12.34-.18.53-.16.1,0,.18-.07.28-.03.12-.02.24.04.37.04,0-.03-.02-.07,0-.09s.05.02.05.02c0,.06.07.02.1,0,.04.04.12.08.1.14.05.04.09.08.13.13.21.04.27.27.41.41.17.03.14.22.19.34.01.04.1.06.06.11l.06.04c-.04.1.04.22-.06.28.11.11-.11.13.02.23l-.06.02c.05.07,0,.1-.06.15l.05.09c-.11.05.01.14-.04.21-.12.04,0,.1,0,.17-.03,0-.06,0-.1,0-.03.01-.06.02-.09.03.03.13.07.26.12.39.07.16.08.22.26.24.12.01.33-.04.38.09.07.19.11.19.3.19.53.01,1.03.22,1.41.57.16.2.31.42.45.63.21.26.44.5.65.78.17.22.39.4.57.63.08.11.18.21.28.31.05.12.13.23.22.33.26.3.08.72-.11.98h0ZM234.27,306.34s-.07.06-.02.06c.01-.01.03-.02.05-.02l-.03-.04ZM234.35,306.28s.05,0,.08,0c0-.06-.03-.06-.08,0ZM238.83,290.34c.03-.3-.2-.36-.37-.55.02,0-.04.84-.04.93-.02.28-.07.56-.14.83.12-.28.28-.54.48-.78.09-.07.16-.15.21-.25.05-.13-.05-.13-.14-.18ZM233.7,289.03c-.01.49-.07.98-.07,1.45-.03.18-.11.35-.21.5-.1.28-.18.57-.25.86-.16.41-.35.81-.58,1.19-.05.11-.08.23-.1.35-.04.19-.1.37-.17.55-.12.23-.26.45-.4.67-.09.23.12.42.23.6.04.08.04.17,0,.25-.04.04-.07,0-.11,0-.03.07.04.16-.06.19-.04,0-.07.01-.07.06.05.41-.02.8.11,1.19-.05.24.11.43.17.64.3.41.28.95.55,1.38.3.6.41,1.27.62,1.91.17.98.43,1.95.76,2.89.07.31.12.63.15.95.03.06.03.12.02.18-.13.12-.3.19-.48.17-.09.09-.07.22-.11.34-.14.43-.62.47-.94.68-.16.02-.27.17-.46.11-.06-.03-.14-.05-.14-.13-.08-.28.12-.47.2-.71.01-.01.03-.02.03-.04-.07-.02-.15-.01-.19-.07.07-.16-.01-.34,0-.52-.32-.26-.1-.75-.28-1.06-.02-.04-.02-.09-.06-.13-.25.11-.52.18-.79.22-.25.05-.21.43-.5.43-.15.14-.4.11-.6.16-.25.06-.63.14-.83-.05.02-.04.02-.09.02-.13.3-.2.74-.46.79-.86-.42-.7-.33-1.56-.35-2.41-.15-.73-.08-1.54-.23-2.26-.32-.66-.55-1.37-.69-2.09-.01-.32-.08-.63-.2-.93-.09,0-.15-.06-.22-.09-.02.07.03.18-.07.21h-.07c-.15-.19-.28-.38-.4-.58,0-.25-.03-.49-.07-.73.04-.3.27-.52.37-.8.16-.58.12-1.26.34-1.81.12-.28.27-.55.4-.83.03-.01.07-.05.03-.08.2-.44.33-.9.37-1.38-.11-.35-.39-.81-.09-1.15.3-.25.32-.61.45-.93.25-.29.65-.32.98-.45.15-.08.17-.25.17-.39-.01-.15-.04-.3-.09-.44-.27-.16-.45-.42-.51-.72l-.07-.07-.05-.21s-.08,0-.12,0c-.11-.1.07-.29-.11-.37-.05-.12.08-.26-.05-.37.04-.1-.07-.19,0-.28,0-.08.11-.16,0-.21,0-.04,0-.09.03-.12.02,0,.02-.02.05,0s-.01.03,0,.07c.01.04.06.04.1.04.04-.06-.02-.12,0-.19s.12-.11.09-.18c.17.07.21-.17.37-.15.06-.12.17-.12.28-.12.04-.03-.04-.08.02-.1l.11.02s.09-.08.14-.08c.05,0,.12,0,.15.04.12,0,.25.03.34.1l.02-.02s.04-.01.07,0c.05.11.21.06.23.2.07.01.11.11.17.12.08,0,.15.04.19.1-.03.07.02.11.06.18s-.05.22.07.22c0-.03.04-.04.06-.03,0,0,.01,0,.02.01.03.03.03.07.03.11-.04.04,0,.09-.03.15s-.06.14-.03.19c.03.05.11.01.11.09-.16.08-.03.27-.16.36.03.15-.02.29-.13.4,0,.07.06.06.11.11.05.06.11.15.2.11.02-.02.04-.02.06-.06s-.05-.1,0-.1.06.05.09.07c.02.05,0,.1-.02.14.1.07,0,.35.2.24.05-.02.09.02.11.05.06.03.08.11.05.17-.07.06-.12.14-.13.23.07.02.14.09.21.02.04-.02.01-.09.01-.11s-.03-.04-.03-.07c.05-.05.07.03.09.05.03.05.03.11.02.17-.02.07-.15.1-.05.17,0,.03,0,.07-.01.1.05,0,.09,0,.14,0,.44.16.48.65.58,1.04.05.45.07.87.09,1.35,0,.04-.05.04-.07.07h0ZM231.86,283.59s0,.04.03.03.02-.01.02-.03h-.05ZM232.2,290.61c-.13.19-.24.4-.33.61-.01.1.06.18.03.28-.08,0-.15,0-.23,0l.04.21c.14.28.22.58.24.89h0c.19-.38.32-.8.37-1.23.07-.37.23-.72.31-1.1-.02-.05,0-.14-.06-.14-.16.14-.22.34-.37.49ZM232.75,286.01s.02-.06,0-.09c-.09-.01-.18.04-.24-.03l.02.06c.06.06.14.08.23.07ZM228.25,290.03c-.2.38-.42.74-.66,1.09l-.33.46c.06.14.14.26.2.4.11.34.14.71.09,1.06-.02.33-.06.65-.09.98-.01.16.02.33.08.48.05.2.07.4.06.6,0,.35-.04.69-.08,1.03-.01.32.09.87-.09,1.12.02.39.02.79.02,1.18.03.35.11.7.24,1.03.21.72.33,1.47.37,2.22.04.4.05.8.03,1.2-.03.18-.01.36.04.53.06.14.09.28.11.43.05.34,0,.67.03,1,.02.16.03.86-.3.66.03.11.05.23.05.35-.02.14-.03.27-.02.41.02.15.01.31-.03.46-.12.07-.25.12-.38.15-.12.03-.24.03-.36,0-.11.07-.22.13-.34.17-.28.08-.57.12-.86.1-.28,0-.56-.05-.83-.11-.13-.03-.26-.07-.39-.11-.14-.05-.08-.32-.04-.45s.23-.21.34-.29c.15-.12.29-.24.45-.34.19-.22.5-.33.66-.58-.03-.03-.3-.02-.11-.14,0,.01-.01.03-.01.04h-.01s.18.05.21-.06c-.05-.02-.15-.04-.19.01-.09,0-.21-.01-.24-.07-.03-.06,0-.19,0-.28-.01-.28-.05-.55-.05-.83,0-.53-.1-1-.13-1.57s-.07-1.12-.09-1.67c.02-.53-.06-1.06-.25-1.55-.16.51.06,1.12.1,1.66.04.63-.08,1.23-.1,1.85.01.33-.02.66-.09.98-.04.13-.05.27-.04.41,0,.12-.04.23-.11.32-.15.14-.08.52-.08.74s-.45.26-.63.28c-.13.01-.26,0-.38-.02-.12-.03-.23.05-.34.09-.28.08-.56.13-.85.14-.31.02-.62,0-.93-.04-.17-.03-.68-.12-.68-.33,0-.12.03-.24.09-.35.06-.1.23-.11.33-.14.18,0,.36-.05.52-.12-.07-.03-.13-.06-.19-.1-.02-.05-.1-.06-.1-.13-.15.03-.3.03-.45,0-.13-.13-.34-.05-.47-.18-.07-.08-.21-.08-.21-.22-.08-.2.1-.41-.01-.61-.05-.15.1-.29.01-.45,0-.11-.04-.21-.04-.33-.06-.38.01-.83-.14-1.18-.06-.33-.09-.66-.09-.99-.1-.07-.08-.2-.08-.3-.06-.32-.21-.61-.3-.92-.18-.34-.25-.72-.21-1.1-.08-.28-.19-.55-.34-.8-.15-.41-.47-.72-.61-1.13-.15-.31-.33-.59-.55-.85l-.12-.09-.02.02c.05.52.03,1.05-.04,1.57.06.34.08.68.06,1.02-.02.3,0,.59.09.88.06.5.09.97.11,1.47.09.46.12.94.4,1.32.24.67.09,1.5.09,2.22,0,.15-.05.3-.15.41-.11.05-.24.06-.36.02-.02.07.03.14-.02.21-.18.26-.49.4-.8.35-.17-.04-.34-.11-.48-.22-.06-.11-.07-.25-.03-.37-.1-.15.04-.32.04-.48.06-.15,0-.3.08-.45,0-.14-.15-.22-.21-.34-.12-.33-.32-.63-.28-1.03,0-.28-.03-.55-.03-.83-.13-.44-.14-.9-.04-1.35.02-.2-.01-.4-.1-.58-.11-.5-.09-1.07-.22-1.54-.01-.54-.08-1.07-.21-1.59,0-.37-.02-.74-.06-1.1l-.02.04v.4c.02.15.02.31,0,.46-.08.03-.14-.05-.21-.07.02.12.11.25.08.39-.02.04,0,.12-.08.12h-.06c-.11-.1-.09-.29-.26-.33-.05-.1-.22-.12-.22-.25-.13-.03-.11-.18-.21-.24-.04-.24-.21-.43-.14-.7,0-.25.18-.44.15-.7,0-.15.02-.3.08-.44-.04-.5.11-.99.11-1.47.06-.49.21-.93.25-1.42.05-.18.09-.36.12-.54-.13.05-.24.13-.34.23-.27.14-.61.13-.85.37-.02.18.05.34.04.52-.1.2-.12.43-.06.64-.05.14-.05.3,0,.44.02.17-.02.32.09.44l-.04.55c-.02.27,0,.54.06.81.03.4-.09.87.06,1.23-.02.09.09.07.11.12.07.08,0,.18,0,.28,0,.29-.06.63-.06.93.04.26.06.51.06.77.01.18-.14.38-.02.55.05.13-.08.2-.08.32.2.69.02,1.49.07,2.21.11.34.08.71.19,1.05.21.31.18.71.44.99.03.09.02.2-.04.28.04.15.05.31.02.46.18.41.74.62.7,1.13-.05.3-.36.3-.58.35-.32.01-.64-.1-.88-.31-.18-.58-.76-.61-1.13-.96-.1-.2-.12-.43-.05-.64-.1-.11-.18-.23-.25-.36-.04-.32-.38-.53-.33-.87-.18-.35-.09-.82-.28-1.16-.11-.17-.17-.38-.15-.58.02-.51.01-1.03-.02-1.54,0-.28-.05-.55-.16-.81l-.06-.52c-.14-.4-.23-.83-.25-1.26-.08-.18-.13-.36-.17-.55-.06.07-.01.23-.14.23,0,.42-.04.85-.14,1.26-.15.41-.27.83-.34,1.27-.27.4-.25.93-.47,1.34-.09.47-.16.95-.25,1.41-.07.62-.25,1.19-.29,1.83-.1.24-.17.5-.21.76-.03.08-.1.14-.12.22-.09.05-.17.13-.23.22-.13.05-.21-.09-.33-.06-.22.11-.39.28-.51.5-.18.31-.48.53-.83.6-.24.07-.5-.03-.64-.25-.04-.15,0-.31.07-.44.2-.22.33-.5.51-.7.11-.09-.05-.14-.07-.21.14-.36-.07-.84.11-1.19.19-.3.33-.63.43-.97.14-.42.14-.9.31-1.32,0-.33.05-.65.16-.96-.02-.38-.07-.75-.09-1.13.02-.38.01-.76-.02-1.13.02-.22.04-.44.09-.65,0-.05.07-.11.03-.15-.02-.17-.06-.33-.07-.51s.11-.28.21-.38c.07-.36.11-.72.12-1.09.09-.45-.03-.96.25-1.34-.12-.09-.03-.23-.03-.35.05-.34.06-.68.03-1.02.03-.09.05-.18.04-.28,0-.04-.03-.08-.07-.1-.34-.05-.66-.18-.94-.38-.1-.07-.21-.14-.33-.2,0,.04.01.07.02.11.01.48,0,.97-.05,1.45.04.68-.08,1.29.06,1.93.04.31.04.63-.02.94-.03.16-.2.26-.23.43-.09.06-.03.29-.2.21-.04-.05-.06-.11-.06-.17v.03c.02.36.17.69.17,1.07l.16,1.36c.03.35-.01.71-.12,1.05-.11.25-.24.49-.38.72-.23.86-.76,1.6-.94,2.48.02.23-.04.49.2.61.11.12.12.27.22.39.18.2.5.18.57.47.03.08.04.16.02.24-.22.19-.52.26-.81.19-.29-.07-.54-.25-.71-.49-.2-.07-.53,0-.55-.3,0-.06,0-.12.01-.18-.03-.23.1-.39.07-.62.01-.39.2-.73.28-1.1.04-.48.13-.94.18-1.42.11-.47.43-.85.48-1.33.06-.26.03-.54-.1-.78-.35-.68-.56-1.43-.95-2.1-.13-.04-.26.03-.41.01l-.02.02c.03.53.03,1.07-.01,1.6-.1.44.03.89.02,1.34,0,.39.11.75.14,1.13.05.59.04,1.28.07,1.86.05.34.08.68.09,1.02l.04.06c0,.3-.1.59-.28.83-.06.12-.04.3-.16.4-.15.17-.38.26-.61.23-.12-.01-.24-.05-.35-.12,0,.04,0,.09,0,.13-.02.2-.07.26-.28.31-.16.05-.33.06-.5.02-.34-.07-.67-.19-.98-.36-.25-.15-.48-.33-.68-.54-.1-.1-.28-.11-.41-.18-.14-.07-.26-.18-.36-.31-.1-.14-.04-.26,0-.42.04-.15-.03-.2-.13-.3s-.08-.28-.06-.4c.01-.19-.02-.38-.08-.55-.18-.76-.24-1.55-.34-2.32,0-.26,0-.52.04-.78,0-.3-.04-.59-.12-.87-.18-.52-.3-1.05-.38-1.6-.02-.28-.06-.55-.08-.83,0-.28-.03-.57-.08-.85-.09-.24-.15-.49-.18-.74,0-.28-.06-.55-.06-.83-.11.08-.11.23-.13.35-.06.17-.09.36-.11.54-.11.38-.24.75-.36,1.13-.11.36-.21.73-.28,1.1-.09.39-.23.77-.39,1.13-.14.33-.26.67-.35,1.02-.07.4-.11.81-.13,1.22-.05.38-.14.75-.21,1.13-.04.2-.07.4-.12.6,0,.22-.03.43-.09.64-.06.14-.16.27-.22.42,0,.15,0,.3-.04.44-.06.17-.32.09-.34.28s.05.41-.06.57c-.07.11-.16.2-.28.25-.07.03-.14.05-.21.06-.03.05-.07.1-.11.15-.14.16-.31.3-.49.41,0,.05-.02.09-.05.13-.02.08-.11.12-.15.18-.17.24-.32.13-.44.55-.08.17-.21.47-.42.41-.27-.14-.31-.45-.45-.69-.02-.1-.15-.13-.17-.21-.07,0-.1-.07-.13-.11,0-.31-.05-.61-.15-.9-.09-.47-.05-.98-.15-1.44-.07-.57-.33-1.05-.45-1.61-.12-.46-.22-.92-.3-1.39-.21-.66-.34-1.34-.37-2.03-.21-.72-.4-1.44-.55-2.17-.02-.08-.02-.18-.09-.23-.05.19-.06.38-.04.58.06.21.08.42.06.63.07.86.05,1.66.12,2.51l.1,1.68c-.02.86.12,1.7.11,2.56l-.05.1c.03.28-.33.24-.43.44-.18.14-.37.28-.55.41-.3.07-.6.11-.9.14-.06,0-.12.03-.18.04.1.14.17.29.17.48-.04.14.08.35-.12.4-.39.22-.84-.04-1.22-.17-.29-.14-.45-.48-.69-.69-.27.03-.53-.08-.68-.3-.21-.24-.11-.55-.12-.86-.15-.05-.12-.25-.17-.37-.01-.2-.01-.41,0-.62-.18-.33-.18-.76-.38-1.1-.15-.62-.2-1.25-.17-1.88-.17-.66-.21-1.39-.42-2.03-.11-.59-.3-1.14-.42-1.72-.04.36-.12.72-.22,1.08-.07.25-.12.5-.12.76-.26.63-.33,1.34-.5,2.01-.07.26,0,.5-.05.77-.16.62-.24,1.25-.25,1.88-.08.32-.11.66-.08.99,0,.07-.09.11-.09.18-.05.03-.12.06-.14.12.03.18.04.37.03.55-.12.13-.26.24-.41.33-.2.11-.46.08-.6.28-.07.31-.38.47-.6.61-.21.09-.45.12-.68.09-.16,0-.32-.07-.45-.18-.15-.24.02-.52.14-.73l.31-.36c.1-.24.24-.46.42-.64.1-.17.05-.41.1-.6l-.09-.2c.05-.2.14-.39.25-.57.06-.29.08-.56.12-.87,0-.2-.01-.4-.06-.6,0-.63.13-1.26.36-1.85.02-.28.02-.56,0-.84-.01-.94-.11-1.91-.15-2.82-.26-.1-.49-.25-.68-.45-.02-.59.19-1.1.22-1.67,0-.05.01-.1.02-.15-.02.06-.04.12-.06.18-.05.13-.16.15-.23.25-.03.8.06,1.58.02,2.4-.04.81-.15,1.62-.2,2.43-.01.19-.03.39-.03.58.02.15-.07.3-.21.35-.13.07-.27.11-.42.12-.08,0-.17,0-.25,0-.16,0-.17.03-.2.17-.03.16-.08.32-.14.47-.05.18-.05.37-.02.55,0,.41-.04.82-.09,1.22-.09.74-.32,1.5-.32,2.25,0,.31.08.61.23.88.17.24.4.44.65.58.13.07.22.2.24.34,0,.22-.15.22-.34.22-.34,0-.67-.09-.96-.28-.14-.1-.28-.04-.45-.1-.08-.03-.15-.06-.21-.11,0-.09,0-.17,0-.26,0-.16.03-.32.11-.45.08-.17.11-.36.11-.55.02-.57-.01-1.15-.11-1.71-.08.36-.14.73-.18,1.1-.04.19-.06.38-.08.57-.01.19.06.41.06.55,0,.14-.12.22-.08.36.04.15.06.31.05.47,0,.15-.01.3-.03.45-.11.08-.24.12-.38.12h-.04c0,.07-.03.14-.07.18-.05.06-.12.09-.2.1-.19.09-.39.15-.59.17-.15,0-.3-.03-.43-.09-.23-.08-.33-.36-.55-.41-.18-.06-.38.03-.55-.03-.27.07-.55.09-.83.07-.25-.02-.23-.3-.32-.46-.26-.35-.47-.74-.62-1.15-.02-.04,0-.12-.06-.14l-.11-.44c-.04-.52-.04-1.09-.05-1.63,0-.47-.11-.9-.11-1.38,0-.28-.08-.54-.08-.81.08-.31-.12-.57-.07-.87-.03-.23-.16-.43-.2-.67-.24-.61-.5-1.21-.78-1.8-.04-.12-.09-.23-.15-.34.03.63.1,1.3.13,1.97.08.47.12.95.12,1.42,0,.83.09,1.67.25,2.48.07.42.06.85.09,1.29.11.47.11.95,0,1.42-.07.19-.2-.05-.32.03.01.09.01.18,0,.28-.07.09-.17.17-.28.22-.28.07-.67.14-.89-.1-.09-.16-.1-.36-.02-.53-.02-.05-.07-.01-.08-.05.02-.09.05-.19.08-.28.01-.11.09-.21.04-.32.06-.26.07-.52.03-.78-.16-.59-.12-1.19-.33-1.76-.02-.22-.07-.44-.15-.64-.14-.29-.08-.62-.17-.92,0-.26-.04-.51-.14-.75-.1-.58-.24-1.18-.32-1.73l-.22-1.38-.03-.04c-.03.25-.02.5.02.75-.02.04,0,.14-.08.1s-.13-.14-.17-.24,0-.2-.06-.28c-.04.06-.02.13-.02.19-.07.26.27.37.22.65,0,.03-.02.05-.06.05l-.3-.22c-.07-.04-.11-.13-.19-.14-.11-.15-.2-.31-.26-.48,0-.07-.03-.14-.06-.21.03-.29.1-.57.15-.85.02-.44.05-.88.12-1.3-.04-1.15.47-2.12.36-3.27v-.12c-.1.09-.24.13-.37.11-.2-.01-.37-.06-.55-.08-.23,0-.46-.02-.68-.06-.09,1.28.19,2.57.25,3.84.02.32.04.65.04.97,0,.15.02.29.02.44.03.16.04.33.02.49-.06.24-.06.49-.02.73,0,.35,0,.71-.02,1.06-.04.61-.1,1.22-.18,1.83-.08.64-.08,1.29,0,1.93.09.68.12,1.37.15,2.06.01.31.05.61.13.91.03.12.1.33,0,.44-.1.08-.21.14-.33.18-.01.12.27.15.31.12.15-.1.44.15.53.28-.11-.06-.3-.25-.42-.25.08.11.19.2.33.25.1.04.33.05.38.17.36.13.83.14,1.12.42-.01.12.02.23,0,.35-.08.05-.18.09-.28.12-.23.05-.46.06-.7.05-.5,0-1.01-.06-1.49-.2-.13-.05-.17-.04-.25.02s-.23-.02-.33-.02c-.23,0-.46-.05-.67-.13.03-.25-.03-.49-.03-.74,0-.12.1-.27-.03-.3-.18-.05-.14-.21-.16-.37-.11-1.04-.33-2.07-.4-3.12-.02-.57-.08-1.14-.16-1.7-.14-.56-.24-1.14-.29-1.72-.17.49-.23,1.02-.47,1.49-.05.1-.1.19-.17.28-.03.14-.09.28-.17.4-.12.27-.2.56-.24.85-.13.61-.22,1.22-.33,1.84-.11.63-.28,1.24-.39,1.86-.02.13-.04.26-.05.4-.02.17-.12.16-.29.15-.17,0-.2,0-.17.18.04.12.07.24.1.36.18.06.38.1.37.36,0,.07.02.19-.09.22-.07.03-.14.06-.21.08.01.09.02.17.03.26.03.29.07.57-.28.6-.31.03-1.26,0-1.34-.41-.01-.24.02-.47.09-.7-.03,0-.06,0-.09-.01-.13-.13-.35-.05-.47-.18-.07-.08-.22-.08-.22-.22-.07-.2.11-.4,0-.6-.06-.15.09-.29,0-.45,0-.11-.04-.21-.04-.33-.06-.38.01-.83-.14-1.18-.06-.33-.09-.66-.09-.99-.1-.07-.08-.2-.08-.3-.06-.32-.21-.61-.3-.92-.18-.34-.26-.72-.21-1.1-.08-.28-.2-.55-.34-.8-.15-.41-.48-.72-.62-1.13-.15-.3-.33-.59-.55-.85l-.12-.09-.02.02c.05.52.04,1.05-.04,1.57.06.34.09.68.06,1.02-.02.3.01.59.09.88.06.49.1.97.11,1.46.1.46.13.94.41,1.32.24.66.09,1.49.09,2.21,0,.15-.05.3-.15.41-.12.05-.25.06-.37.02-.01.07.03.14-.01.21-.18.26-.5.4-.81.35-.18-.04-.34-.11-.48-.22-.06-.11-.08-.25-.03-.37-.1-.14.05-.32.05-.48.06-.15,0-.3.08-.45,0-.14-.15-.22-.21-.34-.12-.33-.32-.63-.28-1.03,0-.28-.03-.55-.03-.83-.13-.44-.14-.9-.04-1.35.02-.2-.02-.4-.1-.58-.12-.5-.09-1.06-.22-1.54-.01-.56-.09-1.11-.22-1.66-.01-.05-.03-.1-.06-.15-.08.03-.14-.05-.21-.07.02.12.11.25.08.39-.02.04,0,.12-.08.12h-.06c-.11-.1-.09-.29-.26-.33-.05-.1-.22-.12-.22-.25-.12-.03-.11-.15-.19-.22-.11.81-.36,1.64-.46,2.45-.02.37-.11,1.09-.14,2.03,0,.26.11.85.13,1.83.03.98-.09,2.24-.1,3.09,0,.96-.03,1.58-.08,1.94-.02.14-.05.04-.07.11-.06.24-.02.25-.08.44-.04.13-.22.25-.29.3-.49.34-1.48.16-1.78-.28,0-.23-.09-.47-.17-.71-.06-.19-.11-.39-.08-.6-1.9-.25-3.37-.56-.73-1.77.23-1.24-.11-2.64-.14-3.92-.34-.82-.34-1.78-.47-2.62-.3-.41.04-.89-.24-1.28.04-1.11-.4-2.43.1-3.65-.75-.21.05-.95.12-1.5-.84-.63-1.18-.1-1.19-1.47-.02-.23.15-.33.3-.44-.06-.24.24-.25.3-.38,0-.1.07-.17.13-.2.21-.05.18-.36.43-.39.53-.93,1.43-1.57,1.92-2.54-.56-.77-.33-2.08-.44-2.72.15.05.05-.15.17-.15-.02-.1.19-.14.15-.26.07.01.16.06.17-.07.11.07.16-.01.2-.08.11.12.22-.1.3-.11.08.15.13-.12.25-.02.1.1.21-.14.28.06.08.02.13-.13.21-.05.02-.02.05,0,.08,0,.01.08.11.02.13.1,1.06.43,1.05,2.13.2,2.7,0,.2.17,0,.28.06.14.1-.08.38.15.41.2.45.64.46.93.8.42.54.25,1.24.1,1.82.11.23-.17.39-.07.63.01.09.07.17.08.26.02-.33.07-.65.09-.97.11-.38.14-.79.38-1.1.13-.13.29-.23.47-.28h.03c.02-.1.09-.18.02-.28-.04-.01-.14-.03-.12-.05.01-.02.03.02.06-.02s.05-.08.03-.12c-.03,0-.06,0-.09,0-.02-.01-.04-.04-.04-.06.07.05.06-.03.13-.03.08-.11.1-.26.06-.39-.04-.07-.14-.11-.12-.2,0-.07.03-.14.06-.2-.04,0-.06.09-.1.05h0s.01-.04,0-.05c0-.04.04-.07.04-.12l-.05-.03c.19-.12-.09-.22,0-.38-.04-.08-.14-.19-.07-.3.02-.03.09,0,.06-.06-.03-.07-.13,0-.14-.07-.03,0-.1.02-.1-.03.11-.08.15-.22.11-.35-.04-.06,0-.15,0-.22.17-.08,0-.42.28-.36.02,0,.04-.03.04-.05,0-.06-.05-.11,0-.15.09-.14.27-.05.35-.2.11-.07.21-.16.35-.16.12-.15.29-.04.43-.12.06,0,.09.06.13.09.14-.04.28-.16.43-.08.07.04.15.05.22.09l.16.19c.11,0,.25-.04.32.07.11.1.08.26.18.36h-.02s.02.05.07.05l-.03-.03s.02.02.04.02c.14.17.21.39.2.61.12.06.2.17.21.3.07.02.16.02.21.07.06.14.1.28.12.43.07,0,.2-.06.22.05.11.11-.02.35.2.38.09.13,0,.31.11.43.06.05.11.09.18.09l.05-.05v.06c.06-.03.05-.15.12-.11.02.1-.09.17-.14.24-.07.02-.13-.04-.2-.04v.16c.08-.01.16.05.18.11.02.07-.04.11-.07.17-.08-.02.01-.17-.08-.17.03.14-.13.34.05.43.05.02.13-.04.13-.07s.02-.03.04-.03v.12c-.04.06-.12.08-.18.06-.04-.01-.08-.04-.11-.08-.04.07.06.15.08.18.02.02.09,0,.07.06.49.3.34.92.46,1.41.16.71-.03,1.55.19,2.26.06.73.15,1.43.15,2.17-.07.35,0,.7-.07,1.04,0,.28.03.56.09.83-.06.29,0,.65-.25.87.06.17.13.33.21.49.15.48.53.87.64,1.38.03.17.05.33.06.5.07-.2.12-.41.16-.62.02-.44.08-.91.14-1.31.06-.4.12-.8.17-1.19.02-.21.05-.41.06-.62.02-.11.02-.21.02-.32,0-.16-.08-.15-.2-.23-.19-.12-.15-.25-.12-.42.03-.17.07-.35.11-.52.09-.38.19-.76.28-1.14.19-.79.23-1.61.11-2.41-.18-.81-.3-1.64-.35-2.47,0-.17-.16-.14-.28-.28s-.33-.25-.38-.43c-.07-.16-.12-.34-.13-.52,0-.2.06-.4.16-.58.22-.4.61-.68,1.07-.76.11,0,.23,0,.34.01.2.03.1-.06.22-.15.19.02.25-.22.45-.14.03-.12.07-.24.11-.35.04-.16.06-.33.04-.5,0-.07.01-.14.02-.2-.04-.08-.06-.17-.07-.26,0-.14.02-.27.04-.41.07-.45.28-.95.79-1,.3-.04.61-.02.91.06.28.06.52.25.66.5.06.14.09.3.09.45.01.12-.04.36.03.45.07.1.14.1.12.24-.01.08-.04.18-.13.16.05,0,.07-.02.07-.1h0s-.12-.03-.15.01c.03.02.05.05.04.08h.02c0,.06-.04.09-.09.12-.11.06-.09.14-.11.25-.03.19-.11.34-.14.53-.06.34-.57,0-.64.28.03.15.13.27.28.31.21.05.43.06.63.11.4.14.74.41.98.75.31.38.64.74.99,1.08.18.18.35.35.53.53.05.04.1.09.15.14.03-.22.06-.45.1-.67h-.03c-.1-.15-.11-.35-.03-.52-.02-.01-.02-.04-.02-.05.07-.01.12-.05.17-.1-.03-.01-.07,0-.11-.01-.07-.03-.12-.1-.14-.18.06.03.1.13.14.14.04,0,.1,0,.13-.04s0-.09-.04-.11c-.08-.09-.02-.22,0-.31.02-.09.12-.12.18-.15-.02-.04,0-.1-.02-.14-.03.04-.08.06-.14.06-.04-.02-.07-.06-.07-.1.02-.03.03-.09.05-.09.02,0,0,.03.02.06s0,.07.04.07c.01-.06-.01-.14.01-.21,0-.14.18-.09.21-.2-.05-.07-.07-.16-.05-.25.05-.02.01-.09.07-.09,0,.05,0,.1,0,.14.02.03.03.07.07.07.09-.04.03-.13.06-.2,0-.17.22-.23.22-.39.02-.09-.07-.15-.12-.21-.06-.13.03-.26.05-.39-.08-.06-.11-.15-.1-.25.12-.14-.01-.32.12-.45.07-.17.09-.4.3-.44.15-.02.08-.22.2-.28.1-.05.21-.05.31,0,.06-.03.09-.09.15-.09.15-.14.34,0,.52,0,.06-.02.12-.02.18,0,0-.03.03-.03.06-.03.12.07.26.09.37.16.04-.03.09-.05.14-.04.05.02.1.07.1.14.11.07.06.23.2.25.04.03.13.12.12.15-.01.03-.07.02-.07.03s0,0,.02.02c.02.02,0,.03,0,.06.1.11.14.25.12.39.18.13-.02.35.1.49.03.05-.05.03-.07.05.03.08-.03.14-.04.22s.1.14.1.2c0,.05-.02.1-.04.14-.01.02,0,.05-.04.05-.02-.01-.04-.04-.03-.07.06-.07,0-.13,0-.19-.07-.11-.02-.22-.02-.34-.02.03-.07.06-.06.11-.07.09.02.22,0,.28s-.08.13-.03.18c.08.03.12.11.09.19-.02.03-.02.07-.06.07-.01-.02-.01-.04,0-.05.03-.05.02-.11-.02-.15-.21-.01-.03-.19-.07-.29-.04.12-.04.25-.08.36.04.05.09.08.15.1,0,0,0,.02,0,.03-.07,0-.15-.02-.2-.06-.05.03-.01.08-.05.11-.04.03-.11-.03-.1-.02,0,.01.02.02.02.03-.03.04-.08.07-.13.09-.03.07-.05.15-.09.22v.4c.36.32.82.5,1.3.51.14.08.32.08.43.23.05.17.18.3.2.47.07.29.16.57.24.86.03-.08.07-.15.13-.21.32-.28.58-.64.89-.94.29-.33.59-.64.92-.94.15-.12.33-.19.53-.19.11,0,.25.04.33-.04.06-.08.12-.17.17-.26-.25.05-.47.38-.74.2.46-.12.9-.32.9-.87-.06.16-.17.3-.3.41-.08.06-.16.11-.24.16-.11.07-.12-.02-.23-.05.33-.07.6-.33.68-.66.02-.34.08-.68.17-1.01.12-.29.27-.55.47-.79.09-.11.22-.2.35-.26.06,0,.13,0,.19.02.08.04.11-.03.18-.08.2-.13.5.04.65.18.21.2.36.44.44.72.1.32.14.65.13.99,0,.19-.02.39-.05.58-.03.2.07.33.1.51-.2.01-.21-.38-.21-.5-.06.18-.09.36-.1.55,0,.06.13.33.06.37,0,0-.02-.01-.02-.02-.03.01.06.17.06.17.09.09.19.17.3.23.15.09.23.25.3.41,0-.03.01-.06.02-.1.17-.84.29-1.7.49-2.52.07-.31,0-.68.26-.89.3-.09.59-.21.87-.35.36-.08.69-.21,1.05-.26.16-.07.27-.2.32-.37,0-.14-.01-.28-.05-.41h-.02l-.18-.19c0-.34-.26-.57-.24-.92,0-.17.02-.34.07-.5,0-.23.05-.46.16-.66.01-.23.13-.43.33-.55.11-.09.26-.08.39-.14.13.08.1-.12.19-.12v.06l.19-.06s-.04-.04,0-.04-.01.02.02.04c.25-.08.45.06.67.09.13.06.27.22.41.08.02.06-.07.1-.11.14.08.09.19.15.3.18-.09.07,0,.13.05.18.15.2.23.44.23.69-.09.14.04.29-.03.44-.02.14-.06.3-.07.46,0,0,0,.01,0,.02,0,.09,0,.19.02.28l-.07.03s-.05.09-.09.13c0,.02-.02.04-.03.06,0,.01-.02.02-.04.02-.08.09-.14.19-.16.31-.01.02-.03.04-.05.06-.07.11-.08.25-.01.36l.25.23c.64.14,1.26.32,1.87.55.37.18.27.62.37.95-.02.58.26,1.02.26,1.59.07.57.11,1.07.13,1.66.03.75-.27,1.48-.83,1.98.14.64.22,1.29.34,1.94.07-.21.13-.42.18-.63.23-.89.66-1.69.75-2.63.02-.26,0-.53-.06-.78-.12-.48.07-.89.26-1.29-.05,0-.1,0-.14-.04-.11-.04-.1-.17-.21-.24-.07-.02-.14.09-.16.11-.02.01-.05.04-.06.01l.09-.12h-.15s-.1-.04-.08-.08c.05.04.11.05.17.03.2-.12.33-.32.36-.55-.05.07-.07.14-.11.21-.07.13-.21.21-.36.21-.02,0-.05,0-.05-.03.16.02.27-.09.37-.21.17-.32.25-.69.2-1.05-.2.26-.29.6-.24.93h-.02c-.05-.32.02-.65.2-.92.02-.16-.12.04-.19-.02l.11-.05s.01-.07.08-.07c.22-.15.19-.43.33-.62.08-.09.14-.2.16-.31-.04-.18-.04-.37,0-.55-.07-.27-.08-.55-.02-.83,0-.17.03-.34.09-.5.17-.3.47-.5.81-.53.11-.05.25.03.36-.03l-.06-.03c.11-.03.22.04.33.04,0-.02-.02-.04-.04-.06-.04-.04-.1-.07-.12-.11.13.03.24.12.3.24.27-.11.58-.07.81.11.04.06.16.11.12.18.16.18.29.38.4.6.21.53.19,1.12-.05,1.64-.02.23-.02.47,0,.7.13-.04.26-.05.39-.02.54.16.62.77.85,1.19.14.41.4.8.47,1.24.02.09.04.18.07.27.1-.23.21-.45.28-.73.09-.36.13-.73.2-1.1.15-.86,1.1-1.57,1.89-1.81.22-.07.42-.16.62-.28.26-.15.07-.39-.02-.58-.02-.04-.04-.08-.05-.13-.02-.11-.06-.09-.12-.17-.06-.1-.1-.21-.13-.33-.04-.1-.07-.22-.08-.33,0-.15.03-.11.13-.14-.14-.47-.25-.9.06-1.32.11-.19.29-.34.49-.44.1-.04.19-.07.29-.09.12.01.24.01.35,0,.77.14,1.12.72,1.07,1.47.05.08.16-.01.19.13.02.13.03.26.02.39,0,.12-.04.23-.11.33-.03.04-.07.07-.12.09-.09.02-.05.18-.05.28,0,.18-.02.36-.05.53-.02.08-.04.17-.07.25-.04.12.03.11.13.17.35.19.76.3,1.1.51.29.17.55.36.79.59.25.28.41.62.46.99.14.6.44,1.14.68,1.7.03-.02.07-.03.1-.04.22-.23.21-.54.4-.78.03-.09.05-.19.04-.29l-.1.18h-.04c.03-.1.05-.21.06-.32-.04-.02-.07.05-.11.03.14-.15.22-.35.22-.55-.06.12-.13.23-.21.32.11-.17.19-.36.24-.55-.09-.02,0-.09,0-.14.04-.15.08-.3.12-.45-.05-.33.02-.66.22-.93.21-.2.34-.49.65-.51.18-.13.39-.2.61-.2.15-.02.29.03.4.13v-.04c.06-.02.11.1.16.02.05.04.08-.03.13,0-.02.09.06.13.12.14.06.01.09-.06.14-.02l-.02.05c.1.01.13.1.16.18.24.2.18.5.28.75.04.17-.04.3-.02.48-.05.09,0,.18,0,.28-.03.35-.16.67-.37.95-.04.16-.06.32-.07.49.28.06.57.1.85.12.56.2.53.84.71,1.29.05.17.1.34.15.52.05-.19.11-.38.16-.57.14-.29.25-.6.33-.91.07-.14.17-.28.24-.41.11-.45.32-.86.61-1.22.43-.3.9-.53,1.4-.67.29.03.49-.18.72-.33.01-.11.01-.22,0-.33-.05-.02-.09-.05-.13-.08-.04-.04-.1-.03-.1-.11-.08,0-.06-.1-.06-.16-.05-.12-.08-.24-.09-.36-.03-.11-.06-.23-.07-.35l-.07-.19c-.1-.19,0-.45-.08-.63-.06-.24.02-.5.21-.67.15-.37.49-.62.88-.66.04-.09.11,0,.17-.07l-.02-.1c.06-.08.11.09.17.02.01.04,0,.08.04.11l.09-.09c.07.09.11-.08.19-.02,0,.04-.02.08,0,.1.19-.02.37.04.51.17.26-.01.34.3.5.46.15.18.22.43.18.66.08.17,0,.38,0,.55.07.11.08.25.03.37-.01.06-.04.12-.08.17,0,.03,0,.06-.02.09,0,.05-.03.09-.06.12.12.06-.07.16.06.2,0,.13-.13.06-.19.13,0,.04-.02.08-.05.1v.03c-.04.09-.16.12-.11.25s-.03.31.06.42c.03.03.07.05.12.04.12.22.39.09.53.28.22.02.35.25.58.23.38.21.84.36,1.06.83.23.42.43.85.6,1.29-.06.16.15.18.15.3.03.11.06.22.1.33.03-.05.06-.1.09-.14.13-.13.29-.23.47-.28.43-.03.83-.21,1.13-.52,0-.09-.01-.19-.05-.28-.21-.13-.31-.35-.48-.51-.04-.17-.1-.32-.19-.47-.15-.07-.25-.26-.38-.38-.05-.11-.03-.26-.16-.32-.06-.08-.05-.19-.11-.28-.02-.12,0-.25.06-.35.06,0,.06-.06.07-.09.06-.14.17-.26.3-.33.03-.09.12-.07.18-.13l-.05-.04s.13.01.16-.03.16-.06.1-.13c.04-.06.15.04.18-.06.09-.01.17-.05.24-.12,0-.03-.08-.03-.04-.07.1,0,.2.04.3.04.11-.06.14.09.24.04.22-.07.34.17.54.21.13.11.16.27.28.39,0,.08.1.11.13.18.15.18.12.44.24.63,0,.23-.07.44-.07.67l-.04.02c-.03.16-.05.33-.05.49-.06.09-.08.21-.04.32h0s0,.02-.02.03c.03.21.07.41.14.6.34.47.91.52,1.39.71.54.28.37.94.5,1.44.16.71-.03,1.55.18,2.27.06.74.15,1.43.15,2.17-.06.35,0,.7-.06,1.05,0,.28.02.56.09.83-.06.29,0,.65-.24.87.06.17.13.33.21.49.14.48.53.87.63,1.38.08.46.1.92.06,1.38.04.38.1.76.14,1.14.03.21.03.42,0,.63l-.02,1.49c0,.17-.04.39.09.53.09.36.09.78.37,1.06.02.07-.1.07-.07.14.09.09.24.12.36.17.06-.04.1-.09.07-.15-.06-.13.02-.33.05-.48.04-.39.04-.79,0-1.19-.06-.78-.04-1.57.04-2.35.07-.76.03-1.53-.11-2.28-.05-.37-.08-.73-.1-1.1-.02-.41.04-.82.02-1.23v-.58c0-.11,0-.18-.07-.23s-.13-.09-.19-.13c-.27-.19-.5-.43-.7-.7-.21-.24-.33-.54-.35-.86.02-.36.02-.71,0-1.07-.06-.37-.09-.73-.1-1.1v-.5c-.01-.17,0-.35.03-.52,0-.29.1-.58.26-.83.11-.1.18-.24.18-.39-.02-.2,0-.4.04-.59.07-.31.11-.62.12-.94,0-.16.04-.31.12-.45.12-.14.26-.27.41-.38.21-.17.49-.14.7-.33.24-.18.49-.34.75-.49.15-.11.02-.74,0-.94-.02-.14,0-.28-.16-.28-.09,0-.16-.24-.16-.34,0-.26-.02-.52-.06-.78-.04-.1-.04-.21,0-.31.02-.05.02-.12.05-.15.04-.03.08-.04.08-.1-.02.03-.12.06-.12.09-.05-.18.21-.25.26-.39-.02-.11-.08-.13.06-.21.07-.04.14-.03.14-.14,0,0,.28-.12.32-.14.19-.05.37-.12.55-.2.02,0-.02.08.04.06.04.01.08.04.11.07,0,.01.01.02.02.04.02-.05.07-.03.11-.03-.06.03.06.13.06.03.04,0-.03.09.01.11.13-.11.19-.12.31,0,.06.1.08.22.05.33.07-.07.15.1.22.16.1.07.19.16.23.28-.02.04-.06-.02-.08.01.02,0,.04.05.04,0,0,.06.06.65,0,.65-.02-.02-.04-.02-.06-.02.02.28-.01.56-.08.83-.02.06-.05.12-.09.17-.1,0-.12-.03-.13.08-.03.2-.07.39-.07.6,0,.08,0,.16.01.24.02.12.1.08.2.09.18.02.36.06.53.1.34.07.63.26.95.35.24.06.4.29.38.54.01.15.06.3.12.44.06.19.11.38.14.57.03.18.04.37.03.55.02.16.07.31.14.46.1.36.11.74.18,1.1.03.16.03.33,0,.49-.09.13-.22.23-.3.38h0ZM169.22,304.49s-.02-.06-.07-.06l-.02-.02s.11.09.09.08ZM156.75,290.59c-.05.14-.28.15-.24.31-.02.39.01.91-.37,1.12-.17.72-.19,1.55.04,2.26-.35-.08-.03.32-.19.33.08.18.13.37.17.55,0-.1.03-.21.06-.31-.04-.5.12-.99.12-1.47.05-.49.21-.92.25-1.41.12-.39.18-.8.18-1.21,0-.08,0-.16,0-.23,0,.02-.01.05-.03.07h0ZM157.13,296.13l-.02.04v.39c.03.23.08.46.15.68-.02-.37-.06-.74-.13-1.1ZM157.68,286.28v.07s.03-.03.04-.05c-.02,0-.02-.02-.04-.02ZM157.82,290.64s-.06.13-.09.19c-.19.42-.05.96-.14,1.38.08-.05.08-.15.19-.22l.04-.17c.1-.14-.01-.35.1-.5-.1-.21-.01-.46-.1-.67ZM159.25,284.31s-.09-.02-.06,0h.02s.07.02.07-.02h-.02ZM159.45,284.2s-.08-.02-.12,0c.04.02.13.04.14,0h-.02ZM159.62,284.26s-.05,0-.07.01h-.02c.02.06-.05.02-.04.03.06.06.15.06.22.09,0-.05-.06-.09-.09-.13ZM159.78,284.34h-.03c0,.05.04.08.08.08,0-.03-.03-.06-.04-.08ZM160.24,284.85c0-.05-.06-.05-.08-.08.08-.03,0-.07,0-.11-.04-.05-.1-.08-.17-.07.08.09.06.31.24.26ZM160.2,284.52h-.02c-.06-.04-.15-.05-.23-.02.15.01.28.09.35.22-.02-.07-.05-.14-.1-.2ZM160.41,285c-.03.08.03.1.09.13-.02-.05-.05-.09-.09-.13ZM160.54,285.6h-.01s-.03,0-.03.01.04.04.04.03v-.04ZM160.68,285.61v.14s.09.04.09.04c0-.07-.03-.15-.09-.19ZM161.07,285.99c-.01-.08-.11-.15-.19-.1.07.04.11.12.19.12v-.02ZM161.13,286.22l-.03-.07.03.11v-.05ZM161.35,286.33s-.1,0-.14.04h0c0,.08,0,.15.04.21.02-.02.04-.02.07-.02.07,0,.07.07.11.11.02-.12,0-.24-.07-.34ZM161.61,286.84s-.05-.09-.1-.1v.02s.06.12.1.14v-.06ZM161.52,287.43h0c.05-.02.05-.08.06-.12-.06-.03-.03-.09-.06-.12-.02.08-.02.17,0,.25ZM161.52,287.95c.02.06.03.12.04.18.02.03.04.09.08.06l-.05-.09s.01-.15-.06-.15ZM161.56,287.1v-.04s-.03-.04-.05-.04v.02s.05.05.05.05ZM161.59,287.5s.05-.07.05-.11l-.05.11ZM161.67,287.71h-.02l.02.02v-.02ZM161.7,288.29c-.02-.1-.1,0-.14-.06v.08s.11.01.14-.02h0ZM161.67,292.81c-.17-.44-.1-.96-.14-1.43-.02-.04-.01-.11-.06-.12-.1.17-.03.37-.14.54,0,.16-.02.32-.06.47.03.06.04.13.03.2-.07.24-.08.5-.03.75-.13.26,0,.52-.04.79.08.27.1.55.08.83.03.02.05.06.05.1.12.16.22.34.3.52h.02c.04-.11.1-.23.17-.35.1-.19.04-.43.08-.63-.05-.57-.22-1.09-.24-1.67ZM167.88,284.11c-.02-.06-.06-.11-.12-.14h0c-.02.08.07.2-.03.24.09-.01.19.02.16-.11ZM170.59,286.67s-.06,0-.06.04c-.03.14.15.22.04.35-.02.02-.02.03,0,.05.02.02.05-.01.05-.03h.01c.02-.15-.08-.27-.05-.41ZM170.73,286.57s-.02.06-.02.09h.01s.03-.06,0-.09ZM170.77,291.97s.01-.06.02-.09c-.11.17-.19.36-.25.55-.07.43-.12.86-.15,1.29h.01c.02.14.07.29.13.42-.04-.52-.02-1.04.06-1.56.04-.19.11-.36.2-.53,0-.04.01-.07-.03-.09ZM171,285.59s.05-.07.05-.11c-.03.03-.04.07-.05.11ZM171.02,291.08h.01c.11-.3.12-.63.04-.94-.05.31-.02.6-.05.94ZM171.16,285.29l-.05.05s.03.02.05.02v-.07ZM173.77,284.46s.05-.08.04-.13c-.01.04-.06.08-.04.13ZM173.61,284.85s.05-.06.04-.09c-.03,0-.05.04-.05.06h.01s0,.02,0,.03ZM173.25,283.18s.07.02.1.02c-.01-.02-.04-.04-.06-.05-.01,0-.05,0-.05.02,0,0,.01,0,.01,0ZM175.07,292.79c-.05-.24-.08-.49-.08-.73-.04-.29-.12-.57-.14-.87-.1-.32-.07-.7-.18-1.01-.05.22-.23.39-.17.65.02.2-.11.41,0,.59.05.25.12.48.22.72.03.18.02.37-.02.55.06.26.1.52.1.78.04.22.1.44.17.65.07-.21.12-.42.15-.63h.01c-.04-.23-.06-.46-.05-.69ZM177.83,289.72c-.01-.15-.09-1.92-.21-1.89-.19.41-.61.63-.92.94.18.49.4.96.65,1.41.11.23.23.46.36.68.06.11.12.17.08.3-.02.07-.11.17-.11.25.18,0,.16-.06.18-.23h0c.04-.13.06-.27.06-.41,0-.35-.06-.7-.09-1.05ZM177.63,293.11c.02-.13.15-.47-.02-.49,0,.16,0,.33.02.49ZM178.38,302.1c-.14-.73-.23-1.47-.28-2.21-.01-.35.02-.7.09-1.04.07-.31.27-.63.14-.95-.19-.04-.37-.09-.55-.15l-.28-.08c-.14-.04-.08-.08-.08-.21.02-.41.04-.82.04-1.24.01-.8,0-1.6.07-2.39.02-.21.04-.42.06-.63-.03,0-.05.07-.08.07-.09.02-.09-.16-.09-.21.01-.17-.02-.35-.09-.51-.11-.18-.21-.36-.3-.55-.05-.1-.07-.23-.18-.28-.1-.03-.19-.09-.25-.17-.45-.65-.73-1.39-1.07-2.09v.06c-.03.65.17,1.24.25,1.88.12.76.07,1.5.15,2.26.02.22.1.43.12.63,0,.19-.02.38-.07.57-.1.09-.06.26-.2.31-.06.2-.3.25-.35.47.13.56.21,1.12.23,1.69.03.37.24.66.24,1.03.16.32.23.68.22,1.03.09.35.14.72.15,1.08-.01.55.21,1.02.32,1.54.04.2.04.43.09.62,0,.22.16.38.21.58.17.16.35.3.52.47.04.02.1.08.04.12.13.12.29.21.47.25,0,0,.01,0,.02.01.09-.1.2-.19.25-.24.09-.09.15-.2.18-.32.03-.14-.06-.27-.02-.43.06-.14.09-.29.1-.44,0-.2-.06-.39-.09-.59ZM179.41,297.91c0,.17-.09.34-.09.48h0c.06-.11.22-.3.09-.48ZM181.15,289.04c-.26.36-.2,1-.01,1.38.04-.23.11-.46.17-.69.03-.12.05-.25.06-.37-.06-.11-.13-.22-.21-.31ZM188.8,293.41l-.05.03s.04.04.06.06h.06c0-.05,0-.1,0-.15-.02.02-.05.04-.08.06ZM189.72,295.54c-.07-.43-.16-.86-.28-1.27-.08-.33-.17-.65-.28-.97l-.02.02c.02.17-.02.35-.11.5.08.09.12.21.12.33-.02.07-.09.17-.13.14-.04-.03-.05-.12-.09-.1-.04.02-.04.07-.07.09-.03.02-.06,0-.08-.02,0,0,0,0,0,0-.1-.2-.22-.4-.36-.57,0-.01,0-.03,0-.04-.05.03-.1.05-.15.08-.04.72.14,1.44.07,2.18-.04.21-.14.38-.19.58-.04.4-.1.81-.11,1.23.25.4.39.86.4,1.34,0,.44.04.87.11,1.3-.03.37,0,.74.07,1.1-.17.11.04.22.04.35.07.2.17.39.3.55.06.22.21.4.37.58l.26-.27c.01-.07.03-.13.07-.19.02-.35-.02-.73.02-1.04.03-.31.22-.57.24-.88-.1-.76.05-1.55.05-2.26l-.08-.77c0-.38-.14-.73-.02-1.1-.08-.28-.13-.57-.15-.86h0ZM189.9,284.2s-.07.03-.09.06l-.02.24c.05-.1.09-.2.12-.31h-.01ZM189.93,283.91c.05-.06.09-.14.1-.22l-.1.22ZM190.21,281.57c0,.06-.05.11-.02.18.05-.35.44-.59.72-.77-.33.05-.6.28-.7.59ZM192.96,283.36c-.03.09-.05.18-.05.27.05-.07.03-.18.05-.27ZM193.11,282.56c-.02.17-.02.34,0,.51.09-.36.08-.75-.04-1.1-.04-.13-.1-.25-.17-.37h-.01c.02.34.25.61.23.96ZM193.69,287.11c-.15.38-.24.78-.39,1.16h-.01c-.11.48-.13.98-.06,1.46.07-.16.21-.28.28-.43.17-.52.35-1.03.5-1.55-.08-.22-.18-.44-.31-.64ZM196.52,286.74c-.16.29-.43.51-.58.79.03.16.21.18.35.2.18.11.35.23.53.33-.06-.45-.16-.89-.3-1.32ZM196.86,289.33c-.08-.03-.17-.07-.25-.11-.35-.16-.68-.35-1.04-.51-.17-.07-.34-.14-.52-.2-.05-.02-.09-.04-.13-.07-.12.26-.27.5-.35.77-.19.49-.48.94-.85,1.32-.13.16-.23.35-.3.55,0,.33-.01.66-.05.98,0,.21.13.39.06.61.03.79.03,1.59-.02,2.38l.06.19-.07.14c.07.1.1.21.09.33.06.12.09.26.07.4l.12.14.49,1.69.19,1.17c.05.58.14,1.17.28,1.74.09.24.16.48.21.73,0-.03,0-.05.01-.08.05-.36.12-.71.17-1.07.03-.42.08-.83.16-1.24.09-.33.07-.7.14-1.04.07-.33.18-.65.28-.97.09-.32.15-.66.17-.99.02-.19.04-.34.06-.57s-.01-.44.03-.67c.15-.84.34-1.67.52-2.5.09-.36.18-.71.28-1.07.05-.16.07-.33.08-.5,0-.09,0-.18-.01-.28.07-.32.11-.64.12-.97,0-.1,0-.2,0-.31ZM201.37,286.95c-.14-.12-.23-.28-.28-.46-.12.6-.12,1.22-.01,1.82.11-.19.21-.39.31-.58.06-.14.22-.23.28-.37.05-.14-.2-.32-.3-.41ZM202.17,288.88c.01-.09.02-.18.03-.27-.04.05-.09.11-.14.16-.2.27-.41.52-.65.76-.08.07-.13.1-.11.18s.03.16.05.24c.05.2.08.4.1.6.02.19-.02.38,0,.57.02.2.06.4.09.6.07.43.15.85.21,1.28.05.36.03.72.08,1.08l.02.11c.03-.22.05-.45.06-.67,0-.54.04-1.03.04-1.55.09-.63.18-1.26.26-1.9-.04-.39-.05-.79-.03-1.18ZM203.34,289.42c-.01-.14-.07-.28-.15-.4-.02.43-.14.84-.16,1.26.08.26-.03.5-.03.76.03-.08.07-.16.11-.24.02,0,.05,0,.06.02.04-.07.14-.14.14-.23,0-.05.03-.1.08-.12.18-.36-.08-.7-.04-1.06ZM203.52,284.08l.02-.05c.01-.19.05-.37.11-.55-.11.18-.15.39-.13.6ZM203.67,283.67c.06-.11.08-.22.14-.32-.08.09-.13.2-.14.32ZM203.98,283.08s.06-.05.08-.08c-.04,0-.06.05-.08.08ZM204.33,301.79c-.09-.84-.31-1.66-.63-2.44-.22-.62-.14-1.32-.17-2-.14-.75-.33-1.48-.55-2.21-.01-.08-.08-.08-.14-.1-.01.08,0,.16.01.24.05.07.08.17.07.26-.01.05-.08.05-.11.03-.11-.06-.19-.16-.22-.28-.07.23.14.37.17.57-.02.06,0,.14-.09.14-.2-.06-.24-.32-.43-.4-.15-.05-.27-.16-.32-.3,0-.05,0-.1-.02-.15,0,.06,0,.11,0,.17-.11.78-.07,1.57.12,2.33.22.76.17,1.57.22,2.35.02.38.06.75.11,1.13.03.18.04.35.05.53,0,.09.02.13,0,.26-.02.14.07.19.16.28.26.22.5.46.72.72.09.12.19.24.31.34,0-.03,0-.07,0-.1.06-.26.36-.41.36-.68.16-.22.47-.37.42-.69ZM206.25,284.66s-.05.08-.02.08c.02,0,.02-.05.02-.08ZM206.23,284.79h-.01c-.14.17-.23.38-.26.59.14-.17.23-.38.28-.59ZM207.23,291.48c-.07-.45.04-.97-.14-1.39-.06-.53-.13-1.05-.2-1.58l-.02-.02c-.05.35-.14.66-.21,1-.01.54.03,1.07.14,1.6l.05.02c.06.23.08.46.06.7l-.11.32.06.05c.06.22.02.48.06.7.15.16-.03.4.13.54.14-.26.19-.56.15-.86.05-.36.06-.72.04-1.08ZM209.52,288.3c-.08-.13-.14-.28-.18-.43-.09.13-.14.29-.15.45.02.05.05.1.02.16-.07.11-.25.14-.22.31-.02.04-.07.07-.07.12.12.06.18.23.33.25h0c.06.05.12.17.19.16.01-.08.05-.16.1-.23-.04-.12-.09-.27-.07-.4.02-.13.13-.25.06-.39ZM210.59,281.99h-.02l.05.2s-.06,0-.06,0c.02.06.02.15.08.17h.02l-.09-.38ZM213.32,282.33h.01l.02-.13s-.04.07-.03.13ZM215,288.81c-.08-.12-.09-.33-.23-.4-.06-.1-.14-.22-.11-.32,0-.04-.08-.09-.09-.04.02.3-.05.59-.2.85.07.19-.08.35,0,.51.23-.13.4-.38.68-.41.05-.08-.09-.1-.06-.18ZM216.73,289.39c-.04.06-.06.13-.08.2-.19.41-.05.96-.14,1.38.1-.04.09-.16.18-.23l.04-.17c.1-.14-.01-.36.1-.5-.09-.21,0-.46-.09-.68ZM218.69,283.03s.04.13.09.13c-.03-.06-.04-.11-.09-.13ZM220.57,291.54c-.17-.44-.09-.96-.14-1.43-.02-.04-.01-.11-.06-.12-.1.18-.03.38-.14.55,0,.16-.02.32-.06.47.03.06.04.13.03.2-.07.25-.08.5-.03.75-.13.26,0,.52-.04.79.08.27.1.55.08.83.03.03.05.06.05.1.12.16.22.33.29.52h.02c.04-.12.1-.24.16-.36.1-.19.04-.43.08-.63-.05-.57-.21-1.09-.24-1.68ZM223.05,304.08s.05.02.07.03c.03-.05.06-.09.1-.13-.07.01-.12.05-.17.1ZM223.12,289.39c-.07.41-.32.73-.28,1.16-.17.52-.42,1.05-.42,1.63,0,.15.02.3.07.45.11,0,.22.04.32.09.17.12.29.3.33.5,0-.35,0-.71.03-1.06.02-.15.02-.28.02-.46s.03-.34.03-.52c.02-.29.06-.58.14-.86h-.01c.05-.33-.03-.66-.23-.93ZM227.14,289.02c-.32.53-.69,1.04-.52,1.7.28-.5.32-1.11.62-1.6-.06-.01-.07-.06-.11-.1ZM167.78,284.35h-.01s0,0,0,0c0,0,0,0,.01,0ZM226.1,305.13s0,0,0,0h0s0,0,0,0ZM160.39,284.88l.02.02s-.02-.01-.02-.02c0,0,0,0,0,0Z" style="fill: #fff; fill-rule: evenodd;"/>
  </g>
  <g>
    <g>
      <path d="M38.67,72.71c4.54,1.84,7.67,5.57,8.84,9.88,0,.02,20.18,74.52,20.82,77.22,2.56,10.8-3.23,24.42-14.03,26.98-10.8,2.56-21.88-6.04-24.44-16.84-.77-3.24-12.49-81.94-12.47-82.34-.15-2.25.22-4.57,1.18-6.8,3.3-7.63,12.3-11.26,20.09-8.11Z" style="fill: #e3a47a;"/>
      <g>
        <path d="M28.47,59.49h0c8.29-1.72,16.26,4.37,17.8,13.59l2.39,14.3-30.01,6.22-2.39-14.3c-1.54-9.22,3.92-18.09,12.21-19.8Z" style="fill: #e3a47a;"/>
        <path d="M11.7,61.48c1.75,10.48,10.81,17.4,20.24,15.45,9.42-1.95,15.64-12.03,13.88-22.52-.77-4.6-5.68-4.74-7.24-9.35-1.76-5.2-7.7-7.19-12.99-6.09-9.42,1.95-15.64,12.03-13.88,22.52Z" style="fill: #e3a47a;"/>
        <path d="M30.21,8.61h0c2.82-.32,5.34,1.97,5.63,5.12l3.11,34.31-10.23,1.15-3.11-34.31c-.28-3.14,1.77-5.95,4.6-6.26Z" style="fill: #e3a47a;"/>
        <path d="M16.26,7.63h0c2.77-.71,5.53,1.2,6.17,4.28l7,33.59-10.01,2.58L12.42,14.5c-.64-3.08,1.08-6.15,3.85-6.86Z" style="fill: #e3a47a;"/>
        <path d="M5.62,18.66h0c2.64-1.16,5.63.28,6.67,3.22l11.37,32.08-9.56,4.19L2.72,26.08c-1.04-2.94.26-6.26,2.9-7.42Z" style="fill: #e3a47a;"/>
        <path d="M1.53,39.01h0c1.81-1.75,4.49-1.08,5.99,1.51l16.4,28.26-6.54,6.35L.98,46.87c-1.5-2.59-1.26-6.11.55-7.86Z" style="fill: #e3a47a;"/>
        <path d="M48.19,33.18h0c3.37.91,5.45,4.69,4.63,8.44l-6.76,31.04c-.15.68-.77,1.1-1.38.94l-9.99-2.69c-.62-.17-.99-.86-.84-1.54l6.76-31.04c.82-3.75,4.22-6.06,7.59-5.15Z" style="fill: #e3a47a;"/>
      </g>
    </g>
    <path d="M49.71,155.99c5.96-1.94,12.18-.9,17.05,2.29.02-.08,55.75,39.95,64.19,55.44,15.95,29.27,13.1,17.95,4.88,27.15-9.66,10.81-7.34,20.54-15.03,19.05-19.65-3.81-79.31-71.22-79.31-71.22-.06-.07-.1-.12-.13-.17-1.95-2.07-3.48-4.59-4.42-7.48-3.39-10.45,2.33-21.66,12.77-25.06Z" style="fill: #e3a47a;"/>
    <g>
      <path d="M60.16,209.8c-11.62-4.88-14.19-11.57-9.31-23.19,4.88-11.62,15.38-23.79,27-18.9,11.62,4.88,17.08,18.27,12.2,29.89-4.88,11.62-18.27,17.08-29.89,12.2Z" style="fill: #2d2d2d;"/>
      <path d="M81.8,169.91h0s0,0,0,0c.08.04.15.08.23.12-1.84-1.45-3.78-2.88-5.83-4.29h0c-8.91-6.75-36.31,23.48-29.18,32.9,1.16,1.53,2.31,3,3.45,4.42-2.98-11.4,22.88-39.59,31.33-33.15Z" style="fill: #1e1e1e;"/>
      <path d="M85.33,172.5c-8.93-6.8-40.39,21.9-33.69,31.78,9.85,14.53,37.7,48.8,45.65,54.34,27.41,19.1,25.43-2.46,33.47-12.26,6.46-7.88,16.85-6.15,14.79-14.03-5.25-20.07-30.27-44.18-60.21-59.83h0s0,0,0,0Z" style="fill: #2d2d2d;"/>
      <circle cx="118.56" cy="240.06" r="28.41" style="fill: #2d2d2d;"/>
    </g>
  </g>
  <g>
    <path d="M221.05,175.73c-1.19,5.19-.75,3.7-3.81,8.52-2.73,4.29-12.14,4.87-15.06,1.47-1.96-2.28-4.21-3.64-6.67-3.77-2.62-.14-5.23,1.33-7.57,4-2.89,3.3-9.9,2.28-12.46-1.92-1.77-2.91-5.13-7.01-5.47-9.76-.66-5.37-.71-8.61-.22-10.85.77-3.53,9.48-17.91,26.85-12.68,11.19,3.37,20.4,6.83,24.36,11.85,3.62,4.59,1.47,6.92.04,13.16Z" style="fill: #f0a981;"/>
    <g style="clip-path: url(#y);">
      <path d="M223.89,160.81c-14.84-15.36-36.91-22.76-55.11.85-5.29,6.86-2.02,33.83,21.23,22.35,3.5-1.73,7.48-1.8,11.04-.26,22.74,9.85,25.67-14.05,22.85-22.94Z" style="fill: #740021;"/>
      <path d="M194.13,171.08c-9.92,0-17.96,4.17-17.96,9.32,0,.86.23,1.69.65,2.48,2.93,1.53,7.12,1.66,12.85-.9,2.76-1.24,5.9-1.28,8.72-.17,6.2,2.45,10.53,2.02,13.45.13.16-.5.25-1.02.25-1.54,0-5.15-8.04-9.32-17.96-9.32Z" style="fill: #aa0003;"/>
      <path d="M231.39,154.19c0,3.15-15.77,5.7-35.22,5.7-19.45,0-35.22-2.55-35.22-5.7s15.77-5.7,35.22-5.7,35.22,2.55,35.22,5.7Z" style="fill: #fcffe3;"/>
      <path d="M195.62,183.65l34.63,5.36c-2.32,3.58-17.81,4.53-35.63,2.17-19.15-2.53-34.47-8.02-33.92-12.15.55-4.13,16.76-5.45,35.91-2.91,19.15,2.53,34.47,8.02,33.92,12.15l-34.92-4.62Z" style="fill: #fcffe3;"/>
    </g>
  </g>
</svg>