<svg xmlns="http://www.w3.org/2000/svg" id="Layer_1" data-name="Layer 1" viewBox="0 0 470 636">
  <defs/>
  <defs>
    <clipPath id="clip-path">
      <ellipse cx="173" cy="125.6" class="cls-1" rx="15.6" ry="7.7"/>
    </clipPath>
    <clipPath id="clip-path-2">
      <ellipse cx="248.1" cy="124.9" class="cls-1" rx="15.6" ry="7.7"/>
    </clipPath>
    <style>
      .cls-1{fill:none}.cls-3{fill:#3d5a7e}.cls-4{fill:#e6aa7b}.cls-5{fill:#1b1c2d}.cls-7{fill:#344d6a}.cls-8{fill:#481a1a}.cls-9{fill:#1a2c46}.cls-10{fill:#12100b}.cls-17{fill:#e24e1b}.cls-19{fill:#f3f2f2}.cls-21{fill:#fff}.cls-23{fill:#48b0e1}.cls-24{fill:#f1f2f4}.cls-31{fill:#eceaea}.cls-33{fill:#7a6a58}.cls-35{fill:#b0dce8;opacity:.27}.cls-37{fill:#35322f}
    </style>
  </defs>
  <rect width="252.5" height="278.3" x="79" y="215" fill="#5b5755" rx="12" ry="12"/>
  <path d="M330 332c5 11-31 35-40 27-71-73-62-80-57-84 2-3 13 0 29-7a46 46 0 0010-6c5-3 12-3 17 0 10 8 8 11 41 70z" class="cls-3"/>
  <ellipse cx="399.2" cy="374.9" class="cls-4" rx="18.6" ry="32.3" transform="rotate(-64 399 375)"/>
  <path d="M388 352c11 6 2 36-9 32-97-33-95-41-95-46 0-3 9-4 16-14a22 22 0 003-8c1-4 6-6 11-5 12 3 12 5 74 41z" class="cls-3"/>
  <path d="M408 354a16 16 0 0113 6 5 5 0 00-4-1 4 4 0 00-1 1c-4 2-10-2-13 1-3 1-3 6-2 11s0 9 3 10c2 2 5 1 10 1a15 15 0 013 0l3 1c0 1-5 5-12 5-2 0-6 0-10-2-4-3-4-9-4-15-1-8-1-13 3-16 3-3 8-2 11-2z" class="cls-5"/>
  <path d="M454 401a132 132 0 01-40 0 4 4 0 01-3-1 4 4 0 01-1-3v-50a4 4 0 014-4 101 101 0 0140 0 4 4 0 013 1 4 4 0 012 3v50a4 4 0 01-5 4z" class="cls-5"/>
  <path fill="#35a8e0" d="M427 363l3-4a14 14 0 015-4 7 7 0 019 2 17 17 0 013 7 29 29 0 01-1 14 33 33 0 01-3 8 17 17 0 01-6 6 8 8 0 01-7 1 7 7 0 01-2-2 14 14 0 01-4-7 29 29 0 010-11 38 38 0 014-13 18 18 0 012-2v-1a2 2 0 010 1l-2 5h-1zm1 18h1a13 13 0 002 5 5 5 0 005 2 6 6 0 002-2 15 15 0 004-5 30 30 0 003-16l-1-3a1 1 0 000 1 23 23 0 01-1 9v1a3 3 0 010-1 22 22 0 000-8 10 10 0 00-1-5 4 4 0 00-5-2 8 8 0 00-2 1 12 12 0 00-3 4 30 30 0 00-5 22 11 11 0 003 5 5 5 0 006 1 9 9 0 01-2 0 6 6 0 01-3-2 16 16 0 01-3-6v-1z"/>
  <ellipse cx="415.4" cy="365.4" class="cls-4" rx="6.6" ry="13.2" transform="rotate(-89 415 365)"/>
  <path d="M367 380l13 4c12 3 19-27 8-33l-13-6c6 10 1 31-8 35z" class="cls-7"/>
  <path d="M141 252a870 870 0 00-25 142c-5 49-3 68 11 82 19 20 50 20 85 20 36 1 72 1 93-20 10-11 16-22 7-82-5-33-14-87-34-143z" class="cls-3"/>
  <ellipse cx="209.5" cy="276.3" class="cls-4" rx="35.7" ry="22.4"/>
  <path d="M233 320l-21-12 18-36 21 11-18 37z" class="cls-3"/>
  <path d="M198 307h25v189h-25z" class="cls-7"/>
  <path d="M223 307l-20 14-28-36 20-14 28 36z" class="cls-7"/>
  <path d="M141 252l39 45 15-26-54-19zM278 252l-35 40-14-20 49-20z" class="cls-7"/>
  <circle cx="210.9" cy="313.6" r="5.3" class="cls-8"/>
  <circle cx="210.9" cy="367.9" r="5.3" class="cls-8"/>
  <circle cx="210.9" cy="422.3" r="5.3" class="cls-8"/>
  <circle cx="210.9" cy="476.7" r="5.3" class="cls-8"/>
  <rect width="95.7" height="229.7" x="120" y="396" class="cls-9" rx="6.8" ry="6.8" transform="rotate(1 168 512)"/>
  <rect width="95.7" height="229.7" x="215" y="396" class="cls-9" rx="6.8" ry="6.8" transform="rotate(-2 264 512)"/>
  <path d="M118 621c0 6 8 7 18 6a413 413 0 0164 0c10 1 18-1 18-6 0-15-22-36-50-36s-50 21-50 36zM218 621c0 6 8 7 18 6a413 413 0 0164 0c9 1 18-1 18-6 0-15-23-36-50-36s-50 21-50 36z" class="cls-10"/>
  <path fill="#15130f" d="M301 478c-20 19-55 19-90 19-34-1-63-1-81-19-8-7-13-17-14-33-1 28 3 42 14 52 18 17 47 18 81 18 35 1 70 1 90-19 7-7 12-15 11-42-2 13-6 18-11 24z"/>
  <circle cx="210.2" cy="478.7" r="5.3" class="cls-8"/>
  <rect width="37.1" height="17.1" x="196" y="498" fill="#6f6968" rx="1.6" ry="1.6"/>
  <path d="M107 380c-9 8-41-23-35-34 54-92 63-84 69-81 3 2 3 14 13 29a47 47 0 008 9c4 4 6 12 4 17-5 13-9 11-59 60z" class="cls-3"/>
  <ellipse cx="152.2" cy="444.8" class="cls-3" rx="6.8" ry="23.7" transform="rotate(-48 152 445)"/>
  <ellipse cx="141.8" cy="456.2" class="cls-3" rx="18.6" ry="34.4" transform="rotate(-23 142 456)"/>
  <path d="M148 430c4 12-21 30-28 19-54-93-47-98-44-102 1-3 9 3 21-1a21 21 0 007-4c3-3 8-1 12 3 8 11 6 13 32 85z" class="cls-3"/>
  <path fill="#75441c" d="M0 424h470v16H0z"/>
  <path fill="#7e5120" d="M6 440h459v196H6z"/>
  <path fill="#cac8c7" d="M97 303h224v122H97z"/>
  <path fill="#b1b1b1" d="M228 352a4 4 0 00-1-1c-3-4-9-4-14-4l-1-7h-2a21 21 0 010 8 14 14 0 00-5 1l-5 5a1 1 0 000 1c-3 4-5 8-3 12 2 9 7 15 15 19a9 9 0 0011-1 31 31 0 007-9 2 2 0 01-1 0 2 2 0 01-1-2 2 2 0 01-1-2 3 3 0 01-1-4 3 3 0 010-1 3 3 0 01-1-4 3 3 0 011-1 3 3 0 010-2 3 3 0 012-2 6 6 0 012-3 14 14 0 00-2-3zm-17-8a21 21 0 000-2v-2h1v1a4 4 0 010 1v2a10 10 0 001 3l-2 1a21 21 0 000-4zm-10 23l-2-1 2-2v3zm4 7a1 1 0 01-1 0c-1-1 0-2 1-2v2zm1-11l1-2 1 1-1 1h-1zm4 6l1 2a1 1 0 01-2 0l1-2zm2 10h-1a4 4 0 011-2l1 1-1 1zm5 4l-1-1 1-1 1 1-1 1zm-2-17a4 4 0 011-2l1 1-1 1h-1zm2 8l-1-1 1-2 1 2-1 1zm7 4l-2-1 1-1 1 1a1 1 0 01-1 1zm-3-11a4 4 0 011-2l1 1-1 2-1-1zm4-7l-1-1v-1a5 5 0 011 2zm0-9a12 12 0 01-2 0h-3a9 9 0 013 7c-4 0-6-3-8-5v4a7 7 0 010 4c-3-1-4-4-5-7a15 15 0 01-8 5c0-3 1-5 3-7l-4 2a7 7 0 012-2 13 13 0 013-3l7-1c5-1 10 0 13 3a3 3 0 00-1 0z"/>
  <path d="M109 325v-1l23-8 1 1v2l2 7 2 7 2 8h-1l-8 6-11 1v-1l-1-3-3-6-3-6-2-6a5 5 0 00-1-1zm18 14h-3-1l-1-2-2 1c-1 0-1 0 0 0l1 4h7l1 3 1-1 6-4v-2l-1-3v-2l-1-2v-1l-1-2v-2l-1-3v-2l-1-2-9 3h-1l1 3-7 3 1 1 1 4 2 3a709 709 0 007-2l1 5z" class="cls-17"/>
  <path fill="#ec6923" d="M122 325l-1-3h1l9-3 1 2v2l1 3v2l1 2v1l1 2v2l1 3v2l-6 4-1 1c-1 1 0 0 0 0l-1-3 5-4h1l-1-1-1-4-1-4-6 2h-1l-1-3 7-2 1-1-1-2-4 1-4 1z"/>
  <path d="M119 336l-2-3-1-4-1-1 7-3 1 3-4 1v1l1 2h1l3-1 1 3-6 2zM128 342h-6-1l-1-4s-1 0 0 0l2-1h1v2h4z" class="cls-19"/>
  <path fill="#ec6a25" d="M119 336l6-2 4-1 1 3v1l-3 2-1-5h-1l-6 2z"/>
  <path d="M127 339l3-2v-1a187 187 0 01-1-3l-4 1-1-3h1l6-2 1 4 1 4 1 1-6 4zM123 328l-1-3 4-1 4-1 1 2-1 1z" class="cls-21"/>
  <path d="M124 331l-3 1h-1l-1-2v-1l4-1z" class="cls-17"/>
  <path fill="#187bbc" d="M283 371v-1h1l28 11v1l-6 13-7 15a1 1 0 01-1 0l-12-1a1 1 0 01-1 0l-10-8 2-7 2-10 3-11a8 8 0 001-2zm10 18l-4-1c0-1 0-1 0 0l-1 3 4 2-3 6-3-3v-3c1 0 1 0 0 0a122 122 0 01-3-1l-2 5a1 1 0 001 1l6 4-1 4v1h10l2-4 3-5 1-3 3-5 1-3 2-4v-1l-11-4-1 1-1 3-1-1a472 472 0 01-9-2v3l8 3z"/>
  <path d="M296 382l1-3 1-1 11 4v1l-2 4-1 3-3 5-1 3-3 5-1 4a1 1 0 01-1 1l-10-1v-1l1-3v-1 1h8a1 1 0 001 0l1-3 3-6 2-5 2-4-5-2-4-1z" class="cls-23"/>
  <path d="M288 402l-6-4a1 1 0 01-1-1l2-5a122 122 0 004 1l-1 3 4 3-2 3zM286 382l1-3v-1l8 3 1 1-1 3h-1z" class="cls-24"/>
  <path d="M289 399l3-6 4 1v1l-2 4a1 1 0 01-1 0h-4zM293 389l2-4 4 2 1 1-2 3-3-1a6 6 0 00-2-1z" class="cls-23"/>
  <path d="M292 393l-4-2 1-3v-1l4 2-1 4z" class="cls-24"/>
  <path d="M286 382l8 3-8-3z" class="cls-23"/>
  <path fill="#fdffff" d="M292 393l1-4a6 6 0 012 1 122 122 0 013 1l2-3-1-1-4-2 1-3 4 1 5 2-2 4-2 5-3 6-1 3a1 1 0 01-1 0l-8-1 1-3h5l2-4v-1l-4-1z"/>
  <path d="M305 385z" class="cls-24"/>
  <path d="M298 112c4-1 11 4 13 9 8 15-8 37-14 35-8-1-9-40 1-44zM123 112c-5-1-11 4-14 9-8 15 9 37 15 35 7-1 9-40-1-44z" class="cls-4"/>
  <path fill="#683b11" d="M301 100V76c0-8 1-17-3-24s-12-14-22-14a8 8 0 014-3 10 10 0 0110 1 57 57 0 00-12-9 64 64 0 00-18-7c3-2 12-7 22-5a29 29 0 015 1 42 42 0 00-10-7c-12-6-25-4-33-3a84 84 0 00-35 13c4-8 12-14 21-15l6-2a71 71 0 00-11-2c-11-1-19 1-34 5 0 0-23 6-37 14l-4 3-3 2a11 11 0 01-1-7 12 12 0 013-6 20 20 0 00-7 4 16 16 0 00-6 11 9 9 0 01-2-3 8 8 0 010-7c-2 1-14 9-15 22a25 25 0 003 14 110 110 0 00-7 29c-2 16 3 24 2 38-4 124 42 145 93 145 46 0 80-30 85-52a337 337 0 006-112z"/>
  <path d="M165 80l24-2c25-3 34-14 50-10a35 35 0 0110 4 18 18 0 00-5-1c-9 1-14 8-15 10 7-2 42-8 59 10a34 34 0 015 7c8 16 0 25 0 52-1 16 2 21-3 30-4 8-12 12-14 13-14 8-28 6-43 5-56-3-66 3-87-3-10-3-14-14-15-23-3-15-3-30-3-44v-18c0-4 0-8 2-11 2-6 8-9 13-12s11-5 22-7z" class="cls-4"/>
  <path fill="#925f36" d="M223 167l5 6a32 32 0 012 3v1a4 4 0 010 1 6 6 0 010 1v1a11 11 0 01-2 3 21 21 0 01-2 3 29 29 0 01-6 4 24 24 0 01-14 2 19 19 0 01-7-3 19 19 0 01-5-5 22 22 0 01-3-7 21 21 0 01-1-4 9 9 0 011-3c0-3 2-4 4-6a14 14 0 002-3 6 6 0 001-3l-1-4v-3a46 46 0 010-8l2-7a24 24 0 000-7 24 24 0 010 7l-1 8a46 46 0 000 7v3l1 4a7 7 0 01-1 3 14 14 0 01-2 3l-5 6a8 8 0 000 3 21 21 0 000 4 22 22 0 003 6 19 19 0 005 5 18 18 0 007 3 23 23 0 0014-2 28 28 0 006-4 21 21 0 002-2 11 11 0 002-3c1-3-1-5-2-7l-5-6z" opacity=".6"/>
  <path d="M151 106l-34 5a1 1 0 100 3l33-6c2 0 3-3 1-2zM272 106l33 5a1 1 0 110 3l-32-6c-2 0-3-2-1-2z" class="cls-10"/>
  <path fill="#bd5d89" d="M183 213l57-2c-5 9-16 14-29 14-12 1-23-4-28-12z"/>
  <path fill="#e5e4e4" d="M241 211c-1-1-58 1-59 2l4 4a2 2 0 002 1l46-1a2 2 0 002-1 63 63 0 005-5z"/>
  <ellipse cx="173" cy="125.6" class="cls-31" rx="15.6" ry="7.7"/>
  <g clip-path="url(#clip-path)">
    <circle cx="173" cy="128.6" r="7.2" class="cls-33"/>
    <circle cx="173" cy="128.6" r="3.2" class="cls-10"/>
  </g>
  <ellipse cx="248.1" cy="124.9" class="cls-31" rx="15.6" ry="7.7"/>
  <g clip-path="url(#clip-path-2)">
    <circle cx="248.1" cy="127.8" r="7.2" class="cls-33"/>
    <circle cx="248.1" cy="127.8" r="3.2" class="cls-10"/>
  </g>
  <rect width="53.6" height="35.7" x="145" y="105" class="cls-35" rx="11.8" ry="11.8"/>
  <rect width="53.6" height="35.7" x="223" y="105" class="cls-35" rx="9.9" ry="9.9"/>
  <path fill="#1d1d1b" d="M269 105h-42l-6 1a6 6 0 01-1 1h-18a6 6 0 01-2 0l-7-2h-40a8 8 0 00-8 8 1 1 0 001 1 12 12 0 0111-8h30c4 0 5-1 10 5 1 2 2-3 4-3h20c2 0 2 5 3 2 2-3 5-4 9-4h34a10 10 0 019 8 1 1 0 001-1c0-4-3-8-8-8z"/>
  <rect width="25.1" height="74.1" x="301" y="101" class="cls-37" rx="3.3" ry="3.3"/>
  <rect width="25.1" height="74.1" x="97" y="101" class="cls-37" rx="3.3" ry="3.3"/>
  <path d="M254 24h-81c-71-1-65 92-65 92a34 34 0 005 18v-2s1-96 60-94h81c65 2 58 94 58 94l-5 2c3-5 10-11 10-18 0 0 17-92-63-92z" class="cls-37"/>
</svg>