<?xml version="1.0" encoding="UTF-8"?>
<svg id="Layer_1" xmlns="http://www.w3.org/2000/svg" xmlns:xlink="http://www.w3.org/1999/xlink" version="1.1" viewBox="0 0 104 230.9">
  <!-- Generator: Adobe Illustrator 29.2.1, SVG Export Plug-In . SVG Version: 2.1.0 Build 116)  -->
  <defs>
    <style>
      .st0, .st1 {
        fill: none;
      }

      .st2 {
        fill: #e3a47a;
      }

      .st3 {
        fill: #050505;
      }

      .st4 {
        fill: #686666;
      }

      .st5 {
        fill: #f8f0eb;
      }

      .st6 {
        fill: #f09a85;
      }

      .st7 {
        fill: #aa0003;
      }

      .st8 {
        fill: #431117;
      }

      .st9 {
        fill: url(#radial-gradient);
      }

      .st10 {
        fill: #831523;
      }

      .st11 {
        fill: #7a1426;
      }

      .st12 {
        clip-path: url(#clippath-10);
      }

      .st13 {
        clip-path: url(#clippath-1);
      }

      .st14 {
        clip-path: url(#clippath-3);
      }

      .st15 {
        clip-path: url(#clippath-4);
      }

      .st16 {
        clip-path: url(#clippath-7);
      }

      .st17 {
        clip-path: url(#clippath-6);
      }

      .st18 {
        clip-path: url(#clippath-9);
      }

      .st19 {
        clip-path: url(#clippath-8);
      }

      .st20 {
        clip-path: url(#clippath-5);
      }

      .st21 {
        fill: #96c6d1;
        opacity: .2;
      }

      .st1 {
        stroke: #000;
        stroke-miterlimit: 10;
        stroke-width: .5px;
      }

      .st22 {
        opacity: .6;
      }

      .st23 {
        fill: #0e2b47;
      }

      .st24 {
        fill: url(#radial-gradient1);
      }

      .st25 {
        fill: #740021;
      }

      .st26 {
        fill: #fcffe3;
      }

      .st27 {
        fill: #f0a981;
      }

      .st28 {
        fill: #9b6540;
      }

      .st29 {
        fill: #723d09;
      }

      .st30 {
        fill: #6f1327;
      }

      .st31 {
        clip-path: url(#clippath);
      }
    </style>
    <clipPath id="clippath">
      <rect class="st0" x="66.9" y="38.2" width="9.7" height="4"/>
    </clipPath>
    <clipPath id="clippath-1">
      <rect class="st0" x="14.1" y="38.2" width="9.7" height="4"/>
    </clipPath>
    <clipPath id="clippath-3">
      <polygon class="st0" points="46.9 37.5 46.9 37.5 68.6 37.5 68.6 52.4 46.9 52.4 46.9 37.5"/>
    </clipPath>
    <clipPath id="clippath-4">
      <polygon class="st0" points="43.9 37.5 43.9 37.5 22.1 37.5 22.1 52.4 43.9 52.4 43.9 37.5"/>
    </clipPath>
    <clipPath id="clippath-5">
      <rect class="st0" x="73.3" y="42.9" width="5.6" height="14.5"/>
    </clipPath>
    <clipPath id="clippath-6">
      <rect class="st0" x="11.9" y="42.9" width="5.6" height="14.5"/>
    </clipPath>
    <clipPath id="clippath-7">
      <polygon class="st0" points="51.9 41.2 51.9 41.2 65.3 41.2 65.3 47.9 51.9 47.9 51.9 41.2"/>
    </clipPath>
    <clipPath id="clippath-8">
      <path class="st0" d="M64.5,44.5c0,.6-2.7,2.2-6.1,2.2s-5.6-1.5-5.6-2.1,2.3-2.6,5.8-2.6,5.9,1.7,6,2.5Z"/>
    </clipPath>
    <radialGradient id="radial-gradient" cx="58.6" cy="44.4" fx="58.6" fy="44.4" r="2.4" gradientUnits="userSpaceOnUse">
      <stop offset=".5" stop-color="#7f5321"/>
      <stop offset=".8" stop-color="#418061"/>
      <stop offset="1" stop-color="#6d7262"/>
    </radialGradient>
    <clipPath id="clippath-9">
      <polygon class="st0" points="39.5 41.2 39.5 41.2 26.1 41.2 26.1 47.9 39.5 47.9 39.5 41.2"/>
    </clipPath>
    <clipPath id="clippath-10">
      <path class="st0" d="M27,44.5c0,.6,2.7,2.2,6.1,2.2s5.6-1.5,5.6-2.1-2.3-2.6-5.8-2.6-5.9,1.7-6,2.5Z"/>
    </clipPath>
    <radialGradient id="radial-gradient1" gradientTransform="translate(91.4) rotate(-180) scale(1 -1)" xlink:href="#radial-gradient"/>
  </defs>
  <path class="st10" d="M83,69c3-2.6,14.4,6.7,12.4,10.3-16.7,30.4-19.8,28-21.8,27-1.1-.6-1.2-4.3-5-9-1.2-1.3-2-2-2.8-2.6-1.7-1.3-2.4-3.5-1.7-5.5,1.5-4,2.7-3.6,19-20.2h-.1Z"/>
  <path class="st2" d="M90,39.3c-1-4.2-1-7.8.3-8.2,1.2-.4,3,2.7,4,6.9s1,7.8-.3,8.2c-1.2.4-3-2.7-4-6.9Z"/>
  <path class="st2" d="M91.3,36.7c1.4-6,5.4-9.9,8.7-8.9,3.4,1,4.9,6.6,3.4,12.5s-5.3,9.7-8.7,8.7c-3.3-1-4.9-6.6-3.4-12.4h0Z"/>
  <path class="st10" d="M90.5,43.9c1.2-4,11.8-3.4,11.4.7-3.3,34.4-6.1,34.4-7.8,34.9-1,.2-2-2.8-6-4.1-1.1-.4-2-.5-2.6-.5-1.6,0-2.7-1.4-2.8-3.3,0-4.2,1-4.5,7.8-27.7Z"/>
  <path class="st30" d="M101.5,49l.4-4.7c.4-4.1-10.2-4.6-11.5-.7l-1.4,4.7c3-2.5,10.5-2.2,12.5.6h0Z"/>
  <path class="st23" d="M40.2,230.6h-19c-3.8-.2-6.8-3.2-6.7-7,0,0,0,0,0,0l.6-64.5c0-3.7,3.1-6.7,6.9-6.7l19,.2c3.7,0,6.7,3.1,6.7,6.8l-.7,64.6c0,3.8-3,6.8-6.8,6.7h0Z"/>
  <path class="st23" d="M74.6,230.1l-19,.8c-3.7.1-6.8-2.8-7-6.5l-2.9-64.4c-.1-3.7,2.8-6.8,6.5-7l19-.9c3.7-.1,6.8,2.8,7,6.5l2.8,64.4c.1,3.7-2.7,6.8-6.4,7h0Z"/>
  <path class="st10" d="M21.9,84.1c-5.2,19.5-7.6,36-8.8,48.2-1.6,16.7-.7,23.3,4,28,6.4,6.6,16.8,6.7,28.6,6.8,12.3.2,24.8.4,31.7-7,3.4-3.7,5.4-7.3,2.4-27.8-2.3-16.5-6.2-32.7-11.6-48.4,0,0-46.3.2-46.3.2Z"/>
  <ellipse class="st2" cx="45" cy="92.3" rx="12.1" ry="7.6"/>
  <path class="st10" d="M53,107.1l-7.2-4,6-12.3,7.2,4"/>
  <path class="st11" d="M41.2,102.8h8.4v64.3h-8.4v-64.3Z"/>
  <path class="st11" d="M49.5,102.8l-6.7,4.7-9.6-12.2,6.7-4.8"/>
  <path class="st30" d="M21.8,84l13.3,15.4,4.8-8.8M68.2,84l-11.5,13.5-4.8-7"/>
  <circle class="st8" cx="45.5" cy="105" r="1.8"/>
  <circle class="st8" cx="45.5" cy="123.5" r="1.8"/>
  <circle class="st8" cx="45.5" cy="142" r="1.8"/>
  <circle class="st8" cx="45.5" cy="160.4" r="1.8"/>
  <path class="st10" d="M14,126.6c-2.8,2.8-14.2-7-12.3-10.9,16.5-32.2,19.6-29.6,21.6-28.6,1.1.5,1.2,4.5,5,9.4,1.2,1.4,2.1,2.3,2.8,2.8,1.7,1.4,2.4,3.7,1.8,5.8-1.5,4.4-2.6,3.8-18.8,21.5h0Z"/>
  <path class="st3" d="M77.2,160.1c-6.9,6.7-19.2,6.6-31.5,6.4-11.7-.1-22-.2-28.4-6.1-2.8-2.7-4.2-5.9-4.6-11.3-.4,9.5.8,14,4.6,17.5,6.4,6,16.7,6,28.5,6.2,12.2.2,24.6.3,31.4-6.4,2.6-2.6,4.4-5,3.8-14.3-.4,4.3-1.9,6.1-3.8,8h0Z"/>
  <path class="st4" d="M51.6,174.3h-9.6c-.9,0-1.6-.7-1.6-1.5v-5.5c0-.9.7-1.6,1.6-1.6h9.5c.8,0,1.5.7,1.5,1.6v5.5c0,.8-.7,1.5-1.5,1.5h0Z"/>
  <path d="M14.2,228.6c0,2,2.7,2.4,6,2.2,7.3-.6,14.5-.6,21.8,0,3.2.2,6-.1,6-2.2,0-5-7.6-12-17-12s-16.8,7-16.8,12ZM48,228.6c0,2,2.8,2.4,6,2.2,7.3-.6,14.6-.6,21.8,0,3.3.2,6-.1,6-2.2,0-5-7.5-12-16.9-12s-16.9,7-16.9,12Z"/>
  <g>
    <path class="st2" d="M13.5,155.3c1.7,4,2.2,8,1.1,8.6-1.1.6-3.4-2.2-5.1-6.3s-2.3-7.9-1.2-8.5c1.1-.7,3.4,2.1,5.2,6.2Z"/>
    <path class="st2" d="M12.9,158.9c-.5,6.4-3.6,11.4-7.1,11.1-3.5-.2-6-5.7-5.5-12.1s3.6-11.5,7-11.2,6,5.8,5.6,12.2Z"/>
  </g>
  <path class="st10" d="M12.5,151.3c-.6,4.3-11.1,6.1-11.4,1.8-2.6-36.6.2-37.2,1.7-38,.9-.5,2.5,2.4,6.6,2.9,1.2,0,2,0,2.7,0,1.5-.4,2.9.8,3.2,2.8.8,4.4,0,5-2.8,30.6h0Z"/>
  <path class="st30" d="M.7,148l-.3,4.6c0,4.1,10.7,4,11.8,0,.4-1.7.4-3.4.8-4.8-2.9,2.7-10.1,2.8-12.3.2Z"/>
  <g>
    <path class="st27" d="M73.2,64.4c.3-1.4.5-2.9.7-4.3.4-3,.6-6.4.8-10.1l1.3-14.5c0-7.8-6.2-18.4-14-18.4H29.5c-7.8,0-14.3,10.6-14.3,18.4l1.2,10.5c.3,31.6,9.3,40.7,22.1,42.7,1.4.3,2.8.5,4.3.5h5.3c1.4,0,2.8-.1,4.1-.4,10-1.5,17.7-7.2,20.8-24.4Z"/>
    <g class="st22">
      <path class="st28" d="M48.9,56.1c.6.8,1.2,1.7,1.7,2.6.2.3.2.8.1,1.2-1.5,4.3-7.5,5.5-9.7,1.3-.7-1.3-1.3-3-.8-4.5.3-.8.8-1.3,1.2-1.8.4-.5.8-1,.8-1.7-.7-3.1.4-5.8.4-8.8.3,2.2-.4,4.4-.2,6.6,0,1.1.6,2.3,0,3.4-.5,1-1.4,1.6-1.7,2.6-.4,1.3.2,2.8.8,3.9,1.3,2.5,4.2,2.9,6.3,1.8,1.1-.7,2.5-1.7,2.7-3.3-.2-1.2-1.1-2.2-1.6-3.2h0Z"/>
    </g>
    <path class="st29" d="M39.6,39.7s-5.8-2.1-7.3-2.1-5.9,2.1-5.9,2.1c-.4,0-.8-.4-.8-.8v-.4c0-.4.4-.8.8-.8,0,0,4.3-2.6,5.8-2.6s7.4,1.4,7.4,1.4c.4,0,.8.4.8.8v1.6c0,.4-.4.8-.8.8Z"/>
    <path class="st29" d="M51.9,39.7s5.8-2.1,7.3-2.1,5.9,2.1,5.9,2.1c.4,0,.8-.4.8-.8v-.4c0-.4-.4-.8-.8-.8,0,0-4.3-2.6-5.8-2.6s-7.4,1.4-7.4,1.4c-.4,0-.8.4-.8.8v1.6c0,.4.4.8.8.8Z"/>
    <g>
      <g>
        <g id="_x3C_Mirror_Repeat_x3E_">
          <g class="st31">
            <path d="M67,38.2l9.1,3.1c.6,0,.5,1,0,.9l-8.2-2.4c-.6,0-1.5-1.8-.9-1.7Z"/>
          </g>
        </g>
        <g id="_x3C_Mirror_Repeat_x3E_1" data-name="_x3C_Mirror_Repeat_x3E_">
          <g class="st13">
            <path d="M23.7,38.2l-9.1,3.1c-.6,0-.5,1,0,.9l8.2-2.4c.6,0,1.5-1.8.9-1.7Z"/>
          </g>
        </g>
      </g>
      <path d="M47.5,40.2s-.3-.6-2.2-.6-2.1.6-2.1.6l-2-1.9s2.5.4,4.1.4,4-.4,4-.4l-1.8,1.9Z"/>
      <g>
        <g id="_x3C_Mirror_Repeat_x3E_2" data-name="_x3C_Mirror_Repeat_x3E_">
          <g class="st14">
            <path class="st21" d="M66.5,49.2c-.2,1.2-.8,1.7-2,2-.9.2-2.1.3-6.9.3s-5.3-.2-5.5-.3h0s0,0,0,0c0,0-1.7-.3-2.4-1.5-.6-1-2.1-8.4-1.9-9.3s.8-1,1.7-1.2,3.8-.7,7.8-.7.4,0,.6,0c4.3,0,8.4.5,8.5.6h0s0,0,0,0c1,0,1.3.8,1.3,1.5l-1.2,8.7Z"/>
            <path d="M57.7,52.4c-4.5,0-5.6-.3-5.7-.3-.2,0-2.1-.4-3.1-2-1-1.6-2-8.8-2-10.2,0-1,1.7-1.6,2.4-1.7,0,0,.2,0,.3,0,1.2-.2,3.9-.6,7.4-.6s.5,0,.8,0c4.2,0,8.2.5,8.5.5,1.4,0,2.3,1,2.3,2.5h0s-1.2,8.6-1.2,8.6c-.4,2-1.6,2.5-2.8,2.8-1,.2-2.1.3-7,.3ZM57.2,38.7c-4.4,0-7.6.7-7.7.7h-.2c-.7.2-1.2.3-1.3,1.1-.2.8,1.2,8,1.8,9,.7,1.1,2.4,1.5,2.4,1.5.2,0,1.3.3,5.4.3s5.8,0,6.8-.3c1.2-.3,1.7-.8,1.9-1.9l1.1-8.5c0-.3-.1-1.3-1.2-1.3h-.1s-4.1-.5-8.4-.6c-.2,0-.4,0-.6,0Z"/>
            <path d="M66.3,38.2s-4.1-.5-8.5-.5c-4.4,0-7.6.5-8.5.7s-2.3.7-2.3,1.5c0,1.5,1,8.6,2,10.1s3,1.9,3,1.9c0,0,.8.3,5.7.3s6,0,7-.3c1.3-.3,2.3-.9,2.6-2.7l1.2-8.6c0-1.3-.8-2.4-2.1-2.4ZM66.5,49.1c-.2,1.2-.8,1.7-2,2-.9.2-2,.3-6.8.3s-5.2-.2-5.4-.3c0,0-1.8-.3-2.6-1.6-.6-1-2-8.2-1.9-9.1s.8-1,1.6-1.2,3.7-.7,7.7-.7.4,0,.6,0c4.3,0,8.3.5,8.4.5h0s0,0,0,0c1,0,1.3.7,1.3,1.5l-1.1,8.5Z"/>
          </g>
        </g>
        <g id="_x3C_Mirror_Repeat_x3E_3" data-name="_x3C_Mirror_Repeat_x3E_">
          <g class="st15">
            <path class="st21" d="M24.2,49.2c.2,1.2.8,1.7,2,2,.9.2,2.1.3,6.9.3s5.3-.2,5.5-.3h0s0,0,0,0c0,0,1.7-.3,2.4-1.5.6-1,2.1-8.4,1.9-9.3s-.8-1-1.7-1.2-3.8-.7-7.8-.7-.4,0-.6,0c-4.3,0-8.4.5-8.5.6h0s0,0,0,0c-1,0-1.3.8-1.3,1.5l1.2,8.7Z"/>
            <path d="M33.1,52.4c4.5,0,5.6-.3,5.7-.3.2,0,2.1-.4,3.1-2,1-1.6,2-8.8,2-10.2,0-1-1.7-1.6-2.4-1.7,0,0-.2,0-.3,0-1.2-.2-3.9-.6-7.4-.6s-.5,0-.8,0c-4.2,0-8.2.5-8.5.5-1.4,0-2.3,1-2.3,2.5h0s1.2,8.6,1.2,8.6c.4,2,1.6,2.5,2.8,2.8,1,.2,2.1.3,7,.3ZM33.5,38.7c4.4,0,7.6.7,7.7.7h.2c.7.2,1.2.3,1.3,1.1.2.8-1.2,8-1.8,9-.7,1.1-2.4,1.5-2.4,1.5-.2,0-1.3.3-5.4.3s-5.8,0-6.8-.3c-1.2-.3-1.7-.8-1.9-1.9l-1.1-8.5c0-.3.1-1.3,1.2-1.3h.1s4.1-.5,8.4-.6c.2,0,.4,0,.6,0Z"/>
            <path d="M24.4,38.2s4.1-.5,8.5-.5c4.4,0,7.6.5,8.5.7s2.3.7,2.3,1.5c0,1.5-1,8.6-2,10.1s-3,1.9-3,1.9c0,0-.8.3-5.7.3s-6,0-7-.3c-1.3-.3-2.3-.9-2.6-2.7l-1.2-8.6c0-1.3.8-2.4,2.1-2.4ZM24.2,49.1c.2,1.2.8,1.7,2,2,.9.2,2,.3,6.8.3s5.2-.2,5.4-.3c0,0,1.8-.3,2.6-1.6.6-1,2-8.2,1.9-9.1s-.8-1-1.6-1.2-3.7-.7-7.7-.7-.4,0-.6,0c-4.3,0-8.3.5-8.4.5h0s0,0,0,0c-1,0-1.3.7-1.3,1.5l1.1,8.5Z"/>
          </g>
        </g>
      </g>
    </g>
    <path class="st29" d="M16.5,47.7c1.2,0-.2-2.6,1-2.6,0-.9,0-3.5,0-5.5,0-1.3,0-5.6.3-6.9,1-3,2.2-6.2,4-6.6,1.8-.4,3.8-1.8,7.4-2.5,4-.7,4.8-.3,8.3-.7,8.5-1,11.4-4.9,17-3.6,1.6.4,2.7,1,3.4,1.4-.5-.1-1.1-.2-1.8-.1-3.1.3-4.8,2.8-5.2,3.3,2.3-.5,12.2-3.9,18,2.4.9,1,2.8,3,3.1,3.5,2.3,4.2,1.8,9.6,1.1,15.1l1.4,3.1c0-4,2.5-7.9,1.7-11.8-.6-2.8-.2-5.6,0-8.5.2-2.8.1-5.7-1.2-8.3-1.3-2.6-4.1-4.7-7.3-4.7.1-.2.5-.9,1.3-1.3,1-.4,2.3-.2,3.3.5-.9-.9-2.2-2.1-3.9-3.1-2.4-1.4-4.6-2.2-6.2-2.5,1.1-.7,3.9-2.2,7.3-1.8.7,0,1.2.2,1.8.4-.7-.6-1.8-1.5-3.4-2.2-4.3-2-8.5-1.5-11.3-1.1-5.5.7-9.5,2.9-11.8,4.4,1.2-2.6,4-4.6,7.2-5.2.7-.2,1.3-.3,2-.5-.9-.2-2.1-.5-3.6-.6-3.9-.4-6.7.3-11.6,1.6,0,0-7.8,2.1-12.6,4.8-.8.5-1.6,1-1.6,1-.3.2-.6.5-.9.7-.1-.4-.4-1.2-.2-2.2.2-1,.8-1.8,1-2.1-.6.2-1.6.5-2.6,1.3-1.7,1.4-2,3.3-2,3.8-.2-.2-.5-.6-.7-1.2-.3-1.1,0-1.9.2-2.2-.7.4-4.7,2.9-5.2,7.5-.2,2.1.4,3.9.9,4.8-.9,2.3-1.9,5.7-2.4,10-.6,5.6,1.2,8.6,1,13.3,0,1.9,2.5,3.3,2.5,5.1Z"/>
    <g>
      <g id="_x3C_Mirror_Repeat_x3E_4" data-name="_x3C_Mirror_Repeat_x3E_">
        <g class="st20">
          <path class="st27" d="M76.1,43c1-.4,2.2,1.6,2.6,3.3,1.1,5-3.5,11.8-4.8,11.1-1.5-.8-.1-13.5,2.2-14.4Z"/>
        </g>
      </g>
      <g id="_x3C_Mirror_Repeat_x3E_5" data-name="_x3C_Mirror_Repeat_x3E_">
        <g class="st17">
          <path class="st27" d="M14.7,43c-1-.4-2.2,1.6-2.6,3.3-1.1,5,3.5,11.8,4.8,11.1,1.5-.8.1-13.5-2.2-14.4Z"/>
        </g>
      </g>
    </g>
    <g>
      <path class="st29" d="M73.5,43.8c0,3.8-1,10.2-2,13.9-2.3,8.7-4.9,13.8-8.3,14.8-4.9,1.5-4.6-9.3-12.5-8-1.8.3-3.4-.2-5.2.2-1.8-.4-3.5.2-5.2-.2-8.5-2.1-7.6,9.5-12.5,8-3.4-1-6-6.1-8.3-14.8-1-3.7-1.9-10-2-13.9-1.2,0,0,1.9-1.2,1.8.3,37.2,12.5,43.5,28.8,43.5s.2,0,.3,0c.1,0,.2,0,.3,0,16.3,0,28.6-6.4,28.8-43.5-1.2,0,0-1.8-1.2-1.8ZM55.9,73c-.5,1.2-.7,1.7-1.9,2.9-1.1,1-4.8,1.7-5.9.9-.8-.6-1.7-.9-2.6-.9-1,0-2.1.3-3,1-1.1.8-4,.3-5-.8-.7-.7-2.6-4-2.7-4.6-.3-1.3.9-2.4,1.1-2.9.3-.9,2.8-.9,10-.9,5.4,0,8.6-.7,9.8.8,1,1.3,1.1,2.6.3,4.5Z"/>
      <g>
        <path class="st25" d="M55.2,69.7c-.1-.3-19.1-.1-19.2.2.2.3.9,1.2,1.3,1.6,0,0,0,0,.1,0,1.9,2,4.8,3.2,8,3.3,3.9,0,7.5-1.8,9.3-4.6.2-.2.4-.4.5-.6Z"/>
        <path class="st26" d="M37.4,71.6c0,0,.1.1.2.2h15.9c.5-.5.9-1,1.3-1.5.2-.2.4-.4.5-.6-.1-.3-19.1-.1-19.2.2.2.3.9,1.2,1.3,1.6,0,0,0,0,.1,0Z"/>
        <path class="st7" d="M45.4,74.8c1.7,0,3.4-.4,4.9-1-1-1.1-2.8-1.8-4.8-1.8s-3.9.7-4.9,1.8c1.4.6,3.1,1,4.7,1Z"/>
      </g>
    </g>
    <g>
      <g id="_x3C_Mirror_Repeat_x3E_6" data-name="_x3C_Mirror_Repeat_x3E_">
        <g class="st16">
          <path class="st1" d="M64,44.5c0,.6-2.5,2.2-5.7,2.2s-5.2-1.5-5.2-2.1,2.1-2.6,5.4-2.6,5.5,1.7,5.5,2.5Z"/>
          <g class="st19">
            <path class="st5" d="M64.5,44.5c0,.6-2.7,2.2-6.1,2.2s-5.6-1.5-5.6-2,2.3-2.6,5.8-2.6,5.9,1.6,6,2.4Z"/>
            <path class="st5" d="M65.3,44.7c0,.9-3,3.2-7,3.2s-6.4-2.1-6.4-3,2.6-3.7,6.6-3.7,6.7,2.3,6.8,3.5Z"/>
            <g>
              <circle class="st9" cx="58.6" cy="44.4" r="2.4"/>
              <circle cx="58.6" cy="44.4" r="1"/>
            </g>
            <path class="st6" d="M52.2,44.1c.4.2.7.5.8.7s0,.6,0,1.1-.6-.6-.7-.8-.5-1.3-.1-1.1Z"/>
          </g>
        </g>
      </g>
      <g id="_x3C_Mirror_Repeat_x3E_7" data-name="_x3C_Mirror_Repeat_x3E_">
        <g class="st18">
          <path class="st1" d="M27.4,44.5c0,.6,2.5,2.2,5.7,2.2s5.2-1.5,5.2-2.1-2.1-2.6-5.4-2.6-5.5,1.7-5.5,2.5Z"/>
          <g class="st12">
            <path class="st5" d="M27,44.5c0,.6,2.7,2.2,6.1,2.2s5.6-1.5,5.6-2-2.3-2.6-5.8-2.6-5.9,1.6-6,2.4Z"/>
            <path class="st5" d="M26.1,44.7c0,.9,3,3.2,7,3.2s6.4-2.1,6.4-3-2.6-3.7-6.6-3.7-6.7,2.3-6.8,3.5Z"/>
            <g>
              <circle class="st24" cx="32.8" cy="44.4" r="2.4"/>
              <circle cx="32.8" cy="44.4" r="1"/>
            </g>
            <path class="st6" d="M39.3,44.1c-.4.2-.7.5-.8.7s0,.6,0,1.1.6-.6.7-.8.5-1.3.1-1.1Z"/>
          </g>
        </g>
      </g>
    </g>
  </g>
</svg>