<svg xmlns="http://www.w3.org/2000/svg" viewBox="0 0 104 230.9">
  <defs/>
  <path fill="#831523" d="M83 69c3-2.6 14.4 6.7 12.4 10.3-16.7 30.4-19.8 28-21.8 27-1.1-.6-1.2-4.3-5-9-1.2-1.3-2-2-2.8-2.6a5 5 0 01-1.7-5.5c1.5-4 2.7-3.6 19-20.2z"/>
  <path fill="#E3A47A" d="M90 39.3c-1-4.2-1-7.8.3-8.2 1.2-.4 3 2.7 4 6.9s1 7.8-.3 8.2c-1.2.4-3-2.7-4-6.9z"/>
  <path fill="#E3A47A" d="M91.3 36.7c1.4-6 5.4-9.9 8.7-8.9 3.4 1 4.9 6.6 3.4 12.5S98.1 50 94.7 49c-3.3-1-4.9-6.6-3.4-12.4z"/>
  <path fill="#831523" d="M90.5 43.9c1.2-4 11.8-3.4 11.4.7C98.6 79 95.8 79 94.1 79.5c-1 .2-2-2.8-6-4.1-1.1-.4-2-.5-2.6-.5-1.6 0-2.7-1.4-2.8-3.3 0-4.2 1-4.5 7.8-27.7z"/>
  <path fill="#6F1327" d="M101.5 49l.4-4.7c.4-4.1-10.2-4.6-11.5-.7L89 48.3c3-2.5 10.5-2.2 12.5.6z"/>
  <path fill="#0E2B47" d="M40.2 230.6l-19-.1a6.8 6.8 0 01-6.7-6.9l.6-64.5c0-3.7 3.1-6.7 6.9-6.7l19 .2c3.7 0 6.7 3.1 6.7 6.8L47 224c0 3.8-3 6.8-6.8 6.7z"/>
  <path fill="#0E2B47" d="M74.6 230.1l-19 .8a6.8 6.8 0 01-7-6.5L45.7 160a6.8 6.8 0 016.5-7l19-.9a6.8 6.8 0 017 6.5L81 223a6.8 6.8 0 01-6.4 7z"/>
  <path fill="#831523" d="M21.9 84.1c-5.2 19.5-7.6 36-8.8 48.2-1.6 16.7-.7 23.3 4 28 6.4 6.6 16.8 6.7 28.6 6.8 12.3.2 24.8.4 31.7-7 3.4-3.7 5.4-7.3 2.4-27.8a254.6 254.6 0 00-11.6-48.4l-46.3.2z"/>
  <ellipse cx="45" cy="92.3" fill="#E3A47A" rx="12.1" ry="7.6"/>
  <path fill="#831523" d="M53 107.1l-7.2-4 6-12.3 7.2 4"/>
  <path fill="#7A1426" d="M41.2 102.8h8.4v64.3h-8.4z"/>
  <path fill="#7A1426" d="M49.5 102.8l-6.7 4.7-9.6-12.2 6.7-4.8"/>
  <path fill="#6F1327" d="M21.8 84l13.3 15.4 4.8-8.8M68.2 84L56.7 97.5l-4.8-7"/>
  <circle cx="45.5" cy="105" r="1.8" fill="#431117"/>
  <circle cx="45.5" cy="123.5" r="1.8" fill="#431117"/>
  <circle cx="45.5" cy="142" r="1.8" fill="#431117"/>
  <circle cx="45.5" cy="160.4" r="1.8" fill="#431117"/>
  <path fill="#831523" d="M14 126.6c-2.8 2.8-14.2-7-12.3-10.9 16.5-32.2 19.6-29.6 21.6-28.6 1.1.5 1.2 4.5 5 9.4 1.2 1.4 2.1 2.3 2.8 2.8a5.4 5.4 0 011.8 5.8c-1.5 4.4-2.6 3.8-18.8 21.5z"/>
  <path fill="#050505" d="M77.2 160.1c-6.9 6.7-19.2 6.6-31.5 6.4-11.7-.1-22-.2-28.4-6.1-2.8-2.7-4.2-5.9-4.6-11.3-.4 9.5.8 14 4.6 17.5 6.4 6 16.7 6 28.5 6.2 12.2.2 24.6.3 31.4-6.4 2.6-2.6 4.4-5 3.8-14.3-.4 4.3-1.9 6.1-3.8 8z"/>
  <path fill="#686666" d="M51.6 174.3H42c-.9 0-1.6-.7-1.6-1.5v-5.5c0-.9.7-1.6 1.6-1.6h9.5c.8 0 1.5.7 1.5 1.6v5.5c0 .8-.7 1.5-1.5 1.5z"/>
  <path d="M14.2 228.6c0 2 2.7 2.4 6 2.2 7.3-.6 14.5-.6 21.8 0 3.2.2 6-.1 6-2.2 0-5-7.6-12-17-12s-16.8 7-16.8 12zM48 228.6c0 2 2.8 2.4 6 2.2 7.3-.6 14.6-.6 21.8 0 3.3.2 6-.1 6-2.2 0-5-7.5-12-16.9-12s-16.9 7-16.9 12z"/>
  <g fill="#E3A47A">
    <path d="M13.5 155.3c1.7 4 2.2 8 1.1 8.6-1.1.6-3.4-2.2-5.1-6.3s-2.3-7.9-1.2-8.5c1.1-.7 3.4 2.1 5.2 6.2z"/>
    <path d="M12.9 158.9c-.5 6.4-3.6 11.4-7.1 11.1-3.5-.2-6-5.7-5.5-12.1s3.6-11.5 7-11.2 6 5.8 5.6 12.2z"/>
  </g>
  <path fill="#831523" d="M12.5 151.3c-.6 4.3-11.1 6.1-11.4 1.8-2.6-36.6.2-37.2 1.7-38 .9-.5 2.5 2.4 6.6 2.9 1.2.1 2 0 2.7-.1 1.5-.4 2.9.8 3.2 2.8.8 4.4 0 5-2.8 30.6z"/>
  <path fill="#6F1327" d="M.7 148l-.3 4.6c-.1 4.1 10.7 4 11.8 0 .4-1.7.4-3.4.8-4.8-2.9 2.7-10.1 2.8-12.3.2z"/>
  <path fill="#E3A47A" d="M75.4 38.1c1.5-.6 3.6 1.3 4.5 3 2.8 5-2.9 12.5-5 12-2.4-.5-2.9-13.7.5-15zm-59.5 0c-1.5-.6-3.7 1.3-4.6 3-2.8 5 3 12.5 5 12 2.4-.5 3-13.7-.4-15z"/>
  <path fill="#603813" d="M76.5 34c-.5-2.7-.2-5.5 0-8.2.2-2.8.1-5.7-1.2-8.2a8.3 8.3 0 00-7.2-4.6c0-.2.5-1 1.3-1.3 1-.4 2.3-.2 3.3.6a21.6 21.6 0 00-10.1-5.5c1.1-.8 3.9-2.3 7.3-1.8.7 0 1.3.2 1.8.3-.7-.6-1.8-1.4-3.4-2.2-4.2-2-8.5-1.4-11.2-1-5.5.6-9.5 2.7-11.8 4.2 1.2-2.6 4-4.6 7.1-5l2-.6c-.8-.2-2-.5-3.6-.6a31 31 0 00-11.6 1.5s-7.8 2-12.6 4.8l-1.6 1-.9.6a3.8 3.8 0 01.8-4.2c-.6.2-1.6.5-2.6 1.3a5.5 5.5 0 00-2 3.7 3 3 0 01-.7-1.1c-.3-1 0-2 .2-2.2-.6.4-4.7 2.9-5.2 7.4-.3 2 .4 3.7.9 4.7-1 2.2-2 5.6-2.4 9.8-.6 5.4 1.2 8.4 1 13-1.6 42.3 14 49.4 31.3 49.4 15.7 0 27.5-10.3 29-17.7a114.8 114.8 0 002.1-38z"/>
  <path fill="#E3A47A" d="M30.2 27.1c4-.7 4.8-.3 8.3-.6 8.5-1 11.4-4.8 17-3.5 1.6.3 2.7 1 3.4 1.3-.5-.1-1.1-.2-1.8-.1-3 .2-4.8 2.8-5.1 3.2 2.3-.4 14.2-2.5 20 3.7.8.9 1.3 1.8 1.6 2.3 3 5.2.1 8.5 0 17.6 0 5.4.8 7.1-.9 10-1.5 2.7-4 4.2-4.7 4.6-4.7 2.7-9.7 2.1-14.7 1.8-19-1.1-22.2 1-29.6-1.2-3.3-1-4.7-4.7-5.2-7.8-.8-5-.8-10-.8-15v-6c0-1.3 0-2.6.5-3.8.9-2 2.8-3 4.6-4 1.6-.9 3.8-1.8 7.4-2.5z"/>
  <path fill="#8A5D3B" d="M50 56.9l1.1 1.2 1.2 1.6.2.6v.7l-.6 1.2a8.7 8.7 0 01-5.5 3.2A7 7 0 0141 64l-1.4-1.5a8 8 0 01-1.3-3.6v-.5l.1-.5.4-.9 1.3-1.4 1-1.2V53c-.3-1-.3-2.1-.2-3 .1-1.9.5-3.4.7-4.4.2-1 0-1.7 0-1.7s.2.6.1 1.7l-.4 4.4c0 1 0 1.9.3 2.9.1.5.3 1.2 0 1.8-.2.6-.7 1-1 1.4-.5.4-.9.8-1.2 1.3a3 3 0 00-.3.7v.8a7.2 7.2 0 002.3 4.5 6 6 0 004.8 1.3 8.7 8.7 0 005.2-2.7l.6-1.1.1-.6s0-.3-.2-.4l-1-1.7-1-1.3z" opacity=".6"/>
  <circle cx="32.9" cy="41.8" r="2.6" fill="#716558"/>
  <circle cx="32.9" cy="41.8" r="1.2"/>
  <circle cx="59.4" cy="41.8" r="2.6" fill="#716558"/>
  <circle cx="59.4" cy="41.8" r="1.2"/>
  <path fill="#A0DAE4" d="M37.6 35.7H27.4a4 4 0 00-4 4V44a4 4 0 004 4h10.2a4 4 0 004-4v-4.2a4 4 0 00-4-4zm27.2 0H53.3a3.4 3.4 0 00-3.4 3.4v5.4c0 1.9 1.6 3.4 3.4 3.4h11.5c1.8 0 3.4-1.5 3.4-3.4v-5.4c0-1.9-1.6-3.4-3.4-3.4z" opacity=".3"/>
  <path fill="#231F20" d="M65.7 35.6H51.4l-2 .6h-6.7a2 2 0 01-.4 0l-2.6-.6H26.3a2.8 2.8 0 00-2.9 2.9l.2.3a4 4 0 013.8-2.7h10.2c1.4 0 2-.4 3.4 1.5.6.7.7-1 1.5-1h6.7c.8 0 .7 1.8 1.2 1 .7-1 1.7-1.5 2.9-1.5h11.5c1.6 0 3 1.1 3.3 2.6v-.2c0-1.6-.8-2.9-2.4-2.9z"/>
  <path d="M25.4 35.9l-11.5 1.9c-.7 0-.5 1 .2 1l11-2.1c.7-.1 1-1 .3-.8zm41.4 0l11 1.9c.7 0 .5 1-.2 1l-10.6-2c-.7-.2-1-1-.2-.8z"/>
  <path fill="#B65D89" d="M36.3 72.3l19.5-.5c-1.7 2.8-5.6 4.7-9.8 4.8-4.2 0-8-1.6-9.7-4.3z"/>
  <path fill="#DDDDDC" d="M56 71.7c-.2-.2-19.7.3-19.9.6l1.4 1.4c.1.2.3.2.5.2a27664.8 27664.8 0 0116.3-.5l1.7-1.7z"/>
</svg>