<svg xmlns="http://www.w3.org/2000/svg" viewBox="0 0 591 1209">
  <defs/>
  <defs>
    <style>
      .cls-1{fill:#e09d71}.cls-2{fill:#e4b492}.cls-3{fill:#e7b694}.cls-5{fill:#e08d84}.cls-6{fill:#d28472}.cls-7{fill:#e0b83b}.cls-9{fill:#070707}.cls-10{fill:#e3a47a}.cls-14{fill:#716558}.cls-15{fill:#a0dae4;opacity:.27}
    </style>
  </defs>
  <g id="Layer_2" data-name="Layer 2">
    <g id="Layer_1-2" data-name="Layer 1">
      <path d="M73 218c6-22 6-42-1-44s-16 14-22 36-5 41 1 43 16-14 22-35z" class="cls-1"/>
      <ellipse cx="34.5" cy="212.5" class="cls-1" rx="33.2" ry="57.6" transform="rotate(-12 35 212)"/>
      <path d="M70 241c-6-20-62-19-60 3 14 181 29 181 37 184 5 1 11-14 32-21a40 40 0 0114-2c8 0 15-7 15-17 1-23-4-24-38-147zM518 218c-6-22-5-42 1-44s16 14 22 36 5 41-1 43-16-14-22-35z" class="cls-1"/>
      <ellipse cx="556.6" cy="212.5" class="cls-1" rx="57.6" ry="33.2" transform="rotate(-78 557 212)"/>
      <path d="M521 241c6-20 62-19 60 3-14 181-29 181-37 184-5 1-11-14-32-21a40 40 0 00-14-2c-8 0-14-7-15-17 0-23 4-24 38-147z" class="cls-1"/>
      <path d="M485 374c15-14 75 34 65 53-84 161-101 148-111 143-6-2-7-22-28-46a83 83 0 00-14-14c-9-6-13-18-10-28 8-22 14-19 98-108zM106 374c-15-14-75 34-65 53 84 161 101 148 111 143 6-2 7-22 28-46a83 83 0 0114-14c9-6 13-18 10-28-8-22-14-19-98-108z" class="cls-2"/>
      <path d="M297 1207l-157-1a7 7 0 01-7-7l4-390a7 7 0 017-6l157 1a7 7 0 017 7l-4 389a7 7 0 01-7 7z" class="cls-3"/>
      <path d="M465 1203l-131 6a20 20 0 01-21-19l-16-363a20 20 0 0120-21l131-5a20 20 0 0121 19l15 362a20 20 0 01-19 21z" class="cls-3"/>
      <path fill="#807964" d="M489 803c-1-16-22-29-47-28l-112 3a63 63 0 00-23 5c-8-5-18-8-29-8H164c-25-1-46 13-46 29l-4 262c0 16 20 30 45 30h114c16 1 30-5 38-12 9 8 23 13 39 12l112-3c25 0 45-14 44-31z"/>
      <path d="M172 450a1496 1496 0 00-46 249c-9 87-4 120 21 145 34 33 88 34 150 35 65 1 131 2 167-37 19-19 29-37 13-143-8-58-25-152-61-250z" class="cls-2"/>
      <path d="M131 1196c0 11 15 13 32 12a754 754 0 01115 0c17 1 32-1 32-12 0-25-40-62-90-62s-89 37-89 62zM310 1196c0 11 14 13 32 12a754 754 0 01114 0c17 1 32-1 32-12 0-25-40-62-89-62s-89 37-89 62z" class="cls-1"/>
      <ellipse cx="220.5" cy="585.3" class="cls-5" rx="19.3" ry="18.9"/>
      <ellipse cx="220.5" cy="585.3" class="cls-6" rx="9" ry="8.8"/>
      <ellipse cx="380.2" cy="585.3" class="cls-5" rx="19.3" ry="18.9"/>
      <ellipse cx="380.2" cy="585.3" class="cls-6" rx="9" ry="8.8"/>
      <path d="M478 702c7 73 9 77-7 95-40 42-104-11-174-12-67-1-120 50-157 13-21-21-16-36-13-95-40 27-83 63-83 101 0 85 116 148 259 148s260-63 260-148c0-39-45-75-85-102z" class="cls-7"/>
      <path d="M254 707a62 62 0 0179-3c41 33 2 175-33 176s-85-137-46-173z" class="cls-7"/>
      <path fill="#da8a38" d="M324 775c0 16-20 43-27 43-8 0-26-27-26-43s53-15 53 0z"/>
      <ellipse cx="277.1" cy="742.2" class="cls-9" rx="8.2" ry="8.1"/>
      <ellipse cx="316.7" cy="742.2" class="cls-9" rx="8.2" ry="8.1"/>
      <path d="M450 204c7-3 19 7 24 16 14 26-16 66-27 63-13-3-15-72 3-79zM136 204c-8-3-19 7-24 16-15 26 15 66 26 63 13-3 16-72-2-79z" class="cls-10"/>
      <path fill="#603813" d="M460 179c-3-14-1-29 0-43s0-30-6-43-22-25-39-24a14 14 0 017-7c6-2 12-1 18 3a102 102 0 00-21-16 114 114 0 00-33-14c6-3 21-11 39-9a51 51 0 019 2 75 75 0 00-17-11c-23-11-45-8-60-6a150 150 0 00-62 22c7-13 21-24 38-27l10-2a131 131 0 00-19-3c-20-2-35 1-61 8 0 0-41 10-66 25l-9 5-5 3a20 20 0 01-1-11 22 22 0 016-11 35 35 0 00-14 7 29 29 0 00-10 20 16 16 0 01-4-6 15 15 0 011-12c-3 2-25 15-28 39a45 45 0 005 25 199 199 0 00-12 51c-3 29 6 45 5 69-9 223 74 260 165 260 82 0 144-54 153-93a605 605 0 0011-201z"/>
      <path d="M212 146c20-4 25-1 43-3 45-6 60-26 90-19a63 63 0 0118 7 33 33 0 00-10 0c-16 1-25 14-27 17 12-3 75-14 106 19a60 60 0 018 12c16 28 1 45 0 93 0 28 5 38-4 53-8 14-21 22-25 24-25 14-51 11-78 10-100-6-117 4-156-7-17-5-24-24-27-41-4-26-4-53-4-79v-32c0-6 0-13 2-20 5-10 15-16 25-21 8-5 20-9 39-13z" class="cls-10"/>
      <path fill="#8a5d3b" d="M316 303l2 2 4 5a77 77 0 016 8l1 1v1a4 4 0 010 1v2a10 10 0 010 2 18 18 0 01-3 6 44 44 0 01-12 11 36 36 0 01-4 2l-5 2a46 46 0 01-9 2 38 38 0 01-9 0h-2l-3-1-2-1a18 18 0 01-3 0l-2-1-2-2h-2v-1l-2-2-2-1-2-2a35 35 0 01-3-4 42 42 0 01-7-19v-1-2a16 16 0 010-2 17 17 0 013-5 43 43 0 016-7l5-7a9 9 0 001-4 7 7 0 000-1l-1-2v-2l-1-2v-3-2a65 65 0 010-7 122 122 0 012-13l2-10a43 43 0 001-7l-1-2a16 16 0 011 2 38 38 0 010 7l-1 10-1 13a64 64 0 000 7v4l1 2v2l1 2a9 9 0 010 1 10 10 0 010 1 12 12 0 01-1 5 16 16 0 01-2 5 46 46 0 01-3 3 40 40 0 00-6 7 13 13 0 00-2 8 38 38 0 006 17 34 34 0 003 3l1 2 2 1 2 2h1l1 1 2 1 2 1a31 31 0 008 2 35 35 0 009 0 48 48 0 009-2l4-1a31 31 0 003-2 44 44 0 0012-9 16 16 0 003-6 9 9 0 000-1l1-1v-1a3 3 0 00-1-1v-1a89 89 0 00-6-9l-4-5z" opacity=".6"/>
      <circle cx="225.5" cy="223.5" r="13.8" class="cls-14"/>
      <circle cx="225.5" cy="223.5" r="6.1"/>
      <circle cx="365.3" cy="223.5" r="13.8" class="cls-14"/>
      <circle cx="365.3" cy="223.5" r="6.1"/>
      <rect width="96" height="64" x="176" y="192" class="cls-15" rx="21.1"/>
      <rect width="96" height="64" x="316" y="192" class="cls-15" rx="17.7"/>
      <path fill="#231f20" d="M399 191h-76l-10 3a11 11 0 01-3 0h-33a11 11 0 01-2 0l-13-3h-71a15 15 0 00-15 15 2 2 0 001 2 21 21 0 0120-14h54c7 0 10-3 18 7 2 4 3-4 7-4h35c5 0 4 9 7 4s9-7 15-7h61a18 18 0 0117 13 2 2 0 000-1c1-8-4-15-12-15z"/>
      <path d="M186 192l-60 10a3 3 0 101 5l58-11c3 0 5-4 1-4zM404 193l58 9a3 3 0 11-1 5l-56-10c-3-1-4-5-1-4z"/>
      <path fill="#b65d89" d="M243 380l103-4c-9 24-29 40-52 41-21 1-41-14-51-37z"/>
      <path fill="#dddddc" d="M347 376c-1-2-104 2-104 4l7 13a3 3 0 003 1l83-2a3 3 0 002-2 172 172 0 009-14z"/>
    </g>
  </g>
</svg>