<?xml version="1.0" encoding="iso-8859-1"?>
<!-- Generator: Adobe Illustrator 19.0.0, SVG Export Plug-In . SVG Version: 6.00 Build 0)  -->
<svg version="1.1" id="Capa_1" xmlns="http://www.w3.org/2000/svg" xmlns:xlink="http://www.w3.org/1999/xlink" x="0px" y="0px"
	 viewBox="0 0 512 512" style="enable-background:new 0 0 512 512;" xml:space="preserve">
<path style="fill:#ffffff;" d="M508.6,148.8c0-45-33.1-81.2-74-81.2C379.2,65,322.7,64,265,64h-18c-57.6,0-114.2,1-169.6,3.6
	c-40.8,0-73.9,36.2-73.9,81.2C1,184.6-0.1,220.2,0,255.8C-0.1,291.4,1,327,3.4,362.7c0,45,33.1,81.5,73.9,81.5
	c58.2,2.7,117.9,3.9,178.6,3.8c60.8,0.2,120.3-1,178.6-3.8c40.9,0,74-36.5,74-81.5c2.4-35.7,3.5-71.3,3.4-107
	C512.1,220.1,511,184.5,508.6,148.8z M207,353.9V157.4l145,98.2L207,353.9z"/>
<g>
</g>
<g>
</g>
<g>
</g>
<g>
</g>
<g>
</g>
<g>
</g>
<g>
</g>
<g>
</g>
<g>
</g>
<g>
</g>
<g>
</g>
<g>
</g>
<g>
</g>
<g>
</g>
<g>
</g>
</svg>
