<?xml version="1.0" encoding="utf-8"?>
<!-- Generator: Adobe Illustrator 27.7.0, SVG Export Plug-In . SVG Version: 6.00 Build 0)  -->
<svg version="1.1" id="Layer_1" xmlns="http://www.w3.org/2000/svg" xmlns:xlink="http://www.w3.org/1999/xlink" x="0px" y="0px"
	 viewBox="0 0 433.5 106" style="enable-background:new 0 0 433.5 106;" xml:space="preserve">
<style type="text/css">
	.st0{fill:#FFFFFF;}
</style>
<path class="st0" d="M166.7,12.5c0.2-0.1,1.5-0.2,1.4-0.6c0-0.4-1.1-0.1-1.3,0c-1,0.1-1.9,0.3-2.8,0.5c0.9-1.9,1.1-3.3,0.9-4.4
	c-1.1,1.3-2.2,2.5-3.4,3.6c-0.4-0.1-1.5-0.1-1.7-0.1c-0.8,0-1.6,0.1-2.3,0.1c0.5-1.4,1-2.9,1.1-4.4c-0.8-0.1-1,0.5-1.4,0.8
	c-1.3,1.3-2.5,2.7-3.7,4c-0.8,0.1-1.6,0.1-2.4,0.2c-0.6,0.1-1.2,0.1-1.7,0.1c-0.7,0-1.4,0.3-2.1,0.3c-1.3,0.1-2.7,0.4-4,0.4
	c-0.6,0-1.2,0.2-1.8,0.3c-0.5,0.1-1.1,0-1.6,0.2c-1.3,0.3-2.7,0.5-4,0.6c-0.6,0.1-1.2,0.3-1.8,0.3c-0.6,0.1-1.1,0.2-1.7,0.3
	c-1.2,0.1-2.4,0.4-3.5,0.6c-2.2,0.5-4.6,0.8-6.8,1.4c-2,0.5-4.1,1-6,1.7c-4.2,1.4-8.3,2.8-12.1,5.1c-0.8,0.5-1.7,1-2.4,1.7
	c-0.4,0.5-1,1.1-1.3,1.7c-0.3,0.7-1.1,2.3,0.4,1.8c1-0.3,2-0.9,3-1.4c4-1.8,8.1-3.4,12.3-4.7c7.9-2.4,15.9-4.7,24-6.3
	c3.9-0.8,7.8-1.7,11.7-2.5c-0.4,0.4-0.7,0.7-1.1,1.1c-1.8,0.4-3.6,0.8-5.4,1.1c-0.5,0.1-1,0.2-1.5,0.4c-0.5,0.1-1.1,0.2-1.7,0.4
	c-0.9,0.3-1.9,0.4-2.9,0.7c-2.2,0.7-4.5,1.1-6.7,1.7c-2.1,0.6-4.3,1.1-6.4,1.7c-1.1,0.3-2.2,0.6-3.3,0.9c-1.2,0.3-2.3,0.8-3.5,1.1
	c-1,0.3-2.1,0.7-3.1,1c-1.2,0.3-2.3,0.9-3.5,1.2c-2.6,0.8-5,1.9-7.5,3c-1.1,0.5-2.2,1.1-3.3,1.5c-0.9,0.4-2.2,0.9-2.4,1.9
	c0,0.3,0.4,0.9,0.7,1c0.4,0.2,1-0.2,1.4-0.3c4.5-1.9,9-3.7,13.6-5.4c2.3-0.8,4.6-1.6,6.9-2.4c2.3-0.7,4.6-1.3,6.8-2.1
	c2.2-0.8,4.5-1.3,6.7-1.9c2.2-0.6,4.4-1.1,6.5-1.7c2-0.6,4.1-1.1,6.1-1.6c-0.9,0.8-1.8,1.5-2.7,2.3c0,0,0,0,0,0
	c-2,0.4-4,0.9-5.9,1.4c-1.7,0.5-3.4,0.8-5,1.3c-1,0.3-2,0.5-3,0.8c-0.9,0.3-1.9,0.5-2.8,0.8c-3.3,1-6.6,1.9-9.8,3
	c-2.9,1-5.8,2-8.6,3.2c-1.8,0.7-3.6,1.5-5.3,2.3c-0.9,0.4-1.7,0.8-2.6,1.2c-0.2,0.1-1.6,0.9-1.3,1.1c0.1,0.1,1.1-0.3,1.3-0.4
	c0.4-0.1,0.9-0.3,1.3-0.5c0.6-0.3,1.3-0.5,2-0.8c1.8-0.7,3.6-1.3,5.4-2c3.3-1.2,6.6-2.2,9.9-3.3c1.5-0.5,3.1-1,4.6-1.5
	c1.7-0.6,3.5-1.2,5.3-1.6c1.9-0.4,3.8-1.1,5.7-1.7c1.7-0.5,3.5-1,5.2-1.5c0.7-0.2,1.5-0.4,2.2-0.6c-0.9,0.7-1.7,1.3-2.6,1.9
	c-3,0.8-5.9,1.7-8.8,2.6c-5.8,1.9-11.7,3.5-17.4,5.8c-2.8,1.2-5.8,2.1-8.6,3.4c-0.6,0.3-1.3,0.6-1.9,0.9c-0.3,0.1-1.4,0.4-1,0.8
	c0.4,0.3,1.6-0.3,1.9-0.4c0.7-0.2,1.4-0.4,2-0.6c0.7-0.2,1.4-0.5,2.1-0.7c0.7-0.2,1.4-0.4,2.2-0.7c1.5-0.5,3-0.9,4.4-1.4
	c1.2-0.4,2.3-0.7,3.5-1.1c0.7-0.2,1.4-0.4,2.1-0.6c0.5-0.1,1.4-0.3,1.8-0.6c0.9-0.1,1.8-0.5,2.7-0.8c0.8-0.2,1.6-0.6,2.5-0.8
	c1.5-0.5,3-1,4.5-1.4c0.5-0.1,1-0.3,1.6-0.4c-1.9,1-3.9,2-5.9,2.8c-2.8,1.1-5.5,2.2-8.2,3.5c-2.9,0.8-5.8,1.6-8.6,2.6
	c-1.5,0.5-3,0.9-4.5,1.3c-1.7,0.5-3.4,1-5.1,1.4c-0.3,0.1-0.6,0.2-0.8,0.2c-0.1-0.1-0.1-0.2-0.2-0.3c-1.5-2.9-3.1-5.8-2.6-9.3
	c0.1-0.5-0.1-1-0.2-1.5C97,18.5,87.9,13.5,79.7,17c-0.8,0.3-1.5,0.2-2.2,0c-2-0.6-4.1-1-6.2-0.9c-1.4,0.1-2.7,0.3-3.7,1.3
	c-0.2,0.2-0.4,0.5-0.4,0.7c0,0.4,0.4,0.5,0.8,0.5c1,0.1,1.9,0.4,2.4,1.4c1,2.2,2.8,3.6,4.8,4.6c1.1,0.6,1.5,1.3,1.4,2.5
	c-0.3,3.7-1.1,7.2-2.3,10.7c-0.2,0.5-0.5,0.9-0.9,1.2c-0.9-0.3-1.8-0.5-2.7-0.8c-3.4-1-6.9-2-10.3-3.1c-1.8-0.6-3.6-1.1-5.5-1.6
	c-0.6-0.1-1.1-0.3-1.7-0.5c-2.6-1.3-5.2-2.4-8-3.4c-2.2-0.8-4.2-1.8-6.2-2.9c0.8,0.3,1.5,0.5,2.3,0.7c1.5,0.4,3,1,4.5,1.4
	c0.8,0.2,1.6,0.6,2.5,0.8c0.8,0.2,1.8,0.7,2.7,0.8c0.4,0.3,1.3,0.5,1.8,0.6c0.7,0.2,1.4,0.4,2.1,0.6c1.2,0.4,2.3,0.8,3.5,1.1
	c1.5,0.4,3,0.9,4.4,1.4c0.7,0.2,1.4,0.5,2.2,0.7c0.7,0.2,1.4,0.5,2.1,0.7c0.7,0.2,1.4,0.4,2,0.6c0.4,0.1,1.6,0.7,1.9,0.4
	c0.3-0.3-0.8-0.6-1-0.8c-0.6-0.3-1.3-0.6-1.9-0.9c-2.8-1.2-5.8-2.2-8.6-3.4C54,29.1,48,27.5,42.2,25.6c-3.1-1-6.3-1.9-9.5-2.8
	c-0.9-0.6-1.8-1.3-2.7-1.9c1,0.3,1.9,0.6,2.9,0.8c1.7,0.5,3.5,1,5.2,1.5c1.9,0.6,3.8,1.2,5.7,1.7c1.8,0.4,3.5,1,5.3,1.6
	c1.5,0.5,3.1,1,4.6,1.5c3.3,1.1,6.7,2.1,9.9,3.3c1.8,0.7,3.6,1.3,5.4,2c0.7,0.2,1.3,0.5,2,0.8c0.4,0.2,0.8,0.3,1.3,0.5
	c0.2,0.1,1.1,0.5,1.3,0.4c0.3-0.2-1.1-1-1.3-1.1c-0.9-0.4-1.7-0.8-2.6-1.2c-1.8-0.8-3.5-1.6-5.3-2.3c-2.8-1.1-5.7-2.2-8.6-3.2
	c-3.2-1.1-6.6-2-9.8-3c-0.9-0.3-1.9-0.5-2.8-0.8c-1-0.3-2-0.6-3-0.8c-1.7-0.4-3.4-0.8-5-1.3c-1.9-0.5-3.9-1-5.9-1.4
	c-0.2,0-0.4-0.1-0.6-0.1c-0.9-0.7-1.8-1.5-2.7-2.3c2.3,0.6,4.5,1.1,6.7,1.8c2.1,0.6,4.3,1.1,6.5,1.7c2.2,0.7,4.5,1.1,6.7,1.9
	c2.2,0.8,4.6,1.3,6.8,2.1c2.3,0.7,4.6,1.6,6.9,2.4c4.6,1.6,9.1,3.4,13.6,5.4c0.4,0.2,0.9,0.5,1.4,0.3c0.3-0.1,0.7-0.8,0.7-1
	c-0.2-1.1-1.5-1.6-2.4-1.9c-1.1-0.5-2.2-1-3.3-1.5c-2.4-1.1-4.9-2.2-7.5-3c-1.2-0.4-2.3-0.9-3.5-1.2c-1.1-0.3-2.1-0.7-3.1-1
	c-1.2-0.3-2.3-0.8-3.5-1.1c-1.1-0.3-2.2-0.6-3.3-0.9c-2.1-0.7-4.3-1.2-6.4-1.7c-2.2-0.6-4.5-1-6.7-1.7c-0.9-0.3-1.9-0.4-2.9-0.7
	c-0.5-0.2-1.1-0.3-1.7-0.4c-0.5-0.1-1-0.3-1.5-0.4c-2-0.4-4-0.8-6-1.3c-0.4-0.4-0.8-0.7-1.2-1.1c0.1,0,0.1,0,0.2,0
	c4,0.9,8.1,1.8,12.2,2.6c8.1,1.6,16.1,3.9,24,6.3c4.2,1.3,8.3,2.9,12.3,4.7c1,0.4,2,1,3,1.4c1.5,0.5,0.7-1.1,0.4-1.8
	c-0.3-0.6-0.8-1.2-1.3-1.7c-0.7-0.7-1.6-1.2-2.4-1.7c-3.8-2.3-7.9-3.6-12.1-5.1c-2-0.7-4-1.1-6-1.7c-2.2-0.6-4.5-0.9-6.8-1.4
	c-1.2-0.3-2.3-0.5-3.5-0.6c-0.6-0.1-1.1-0.3-1.7-0.3c-0.6-0.1-1.2-0.3-1.8-0.3c-1.4-0.2-2.7-0.3-4-0.6c-0.5-0.1-1.1-0.1-1.6-0.2
	c-0.6-0.1-1.2-0.3-1.8-0.3c-1.3-0.1-2.7-0.3-4-0.4c-0.7-0.1-1.4-0.3-2.1-0.3c-0.6,0-1.2,0-1.7-0.1c-1-0.1-2-0.2-2.9-0.3
	c-1-1-1.9-2-2.9-3C16.8,8.4,16.2,7.5,15,7c0.2,1.8,0.6,3.3,1.2,4.8c-0.6-0.1-1.1-0.1-1.7-0.1c-0.3,0-2.7-0.1-1.7,0.3
	c0.4,0.2,1.1,0.3,1.5,0.4c0.6,0.1,1.2,0.3,1.8,0.4c0.2,0,0.3,0.1,0.5,0.1c0.1,0.3,0.3,0.6,0.4,0.9c-0.1,0-0.2,0-0.2,0
	c-0.6-0.2-1.3-0.2-1.8-0.3c-0.4-0.1-0.7-0.2-1.1-0.3c-1.9-1.6-3.7-3.3-5.5-5.1c0.2,1.5,0.7,3,1.2,4.4c-0.7-0.1-1.5-0.3-2.2-0.4
	c-0.2,0-1.3-0.3-1.3,0c0,0.4,1.2,0.5,1.4,0.6c0.8,0.2,1.6,0.4,2.4,0.6c0.7,1.5,1.5,2.9,2.5,4.3c-0.3-0.1-0.6-0.2-0.9-0.2
	c-0.7-0.2-1.5-0.4-2.3-0.6c-0.4-0.1-0.8-0.2-1.2-0.2c-0.4-0.1-0.8-0.3-1.2-0.1c0.6,0.6,1.4,0.6,2.2,0.9c0.8,0.2,1.6,0.5,2.4,0.8
	c0.5,0.2,1.1,0.4,1.6,0.5c0.6,0.9,1.3,1.8,2,2.7c-3.2-0.5-5.7-2-8.4-3c0.2,0.8,0.4,1.3,0.7,1.9c0.3,0.5,0.5,0.9,0.8,1.4
	c0.4,1.7,1.3,4.5,2.4,8c-0.2,0-0.1,0.1,0.1,0.3C15.8,45.3,25,72.7,25.2,73c0.1,0.2,0.6,1.1,0.8,1.4c0.2,0.3,0.7,0.6,1,0.7
	C28.5,76,43.7,80,47,81c3.4,1,6.9,1.8,10.2,2.8c3.4,1,6.7,1.9,10.1,2.8c1.3,0.4,2.7,0.7,4,1c0.7,0.2,1.5,0.3,2.2,0.5
	c0.4,0.1,0.9,0.2,1.3,0.3C73.2,94.9,68.2,99,68.2,99h36.9c0,0-4.9-4.3-6.4-10.5c2.8-0.8,5.7-1.5,8.6-2.3c1.7-0.5,3.3-1,5-1.4
	c1.7-0.4,3.4-1,5.1-1.5c3.3-0.8,6.5-1.8,9.8-2.7c1.7-0.4,3.5-0.8,5.1-1.4c1.6-0.5,3.3-0.9,4.9-1.4c1.6-0.5,3.2-0.8,4.8-1.3
	c1.6-0.5,3.2-0.9,4.6-1.9c0.7-0.5,1.2-1.1,1.6-1.9c0.1-0.4,0.3-0.7,0.5-1.1c0.1-0.4,16.8-50.2,16.8-50.6c0-0.2,0.3-0.6,0.3-0.8
	c0,0,0,0,0,0c0.3-0.6,0.6-1.3,0.9-1.9c-2.7,1.1-5.3,2.4-8.4,2.9c0.7-1,1.3-1.9,1.9-2.7c0.8-0.2,1.6-0.5,2.5-0.8
	c0.8-0.3,1.6-0.5,2.4-0.8c0.8-0.2,1.6-0.3,2.2-0.9c-0.4-0.2-0.8,0-1.2,0.1c-0.4,0.1-0.8,0.1-1.2,0.2c-0.7,0.2-1.5,0.4-2.3,0.6
	c-0.5,0.2-1.1,0.3-1.7,0.4c1.1-1.7,2-3.1,2.6-4.4C164.6,13,165.6,12.8,166.7,12.5z M16.3,15c0.4,0.1,0.8,0.2,1.2,0.3
	c0.1,0,0.2,0.1,0.3,0.1c0.1,0.3,0.3,0.6,0.4,0.9C17.6,15.8,17,15.4,16.3,15z M142.6,59.1c0,10.2-6.4,16.1-17.9,16.1
	c-13.1,0-17.7-7.3-15.9-17.1l13.3-2.2c-1,7.1,0.3,9.3,3.5,9.3c2.6,0,3.8-2.1,3.8-7.1V37h13.3V59.1z M155.2,16.2
	c0.2-0.3,0.3-0.6,0.5-1c0.4-0.1,0.7-0.2,1.1-0.3c0.2,0,0.4-0.1,0.6-0.1C156.7,15.3,155.9,15.8,155.2,16.2z M159.7,13.1
	c-0.2,0-0.3,0.1-0.5,0.1c-0.6,0.2-1.2,0.2-1.8,0.3c-0.3,0.1-0.6,0.1-0.9,0.2c0.1-0.3,0.3-0.6,0.4-0.9c0.4-0.1,0.8-0.1,1.2-0.2
	c0.6-0.1,1.2-0.2,1.8-0.4c0.3-0.1,0.8-0.1,1.1-0.2C160.6,12.3,160.1,12.7,159.7,13.1z"/>
<g>
	<path class="st0" d="M188.7,67.3l-1,6.7c-1.4,0.8-2.8,1.1-4.2,1.1c-4.6,0-7.9-1.6-8.9-4.8c-1.7,2.8-4.9,4.8-10.1,4.8
		c-6,0-8.8-2.4-8.8-6.8c0-4.7,3-7.4,11.1-9.2l5.6-1.3v-1.1c0-1.8-0.9-2.8-2.6-2.8c-1.6,0-2.9,0.7-3,3.5l-10.8-1.7
		c0.6-6.4,5.3-10.3,14.6-10.3c10.2,0,14.8,3.9,14.8,11.7v8c0,1.6,0.7,2.3,1.9,2.3C187.9,67.6,188.3,67.5,188.7,67.3z M172.3,65.2
		v-2.7l-1.9,0.6c-1.6,0.5-2.6,1.5-2.6,3c0,1.4,0.9,2,2,2C171.2,68,172.3,67.1,172.3,65.2z"/>
	<path class="st0" d="M219.8,55.2l-12.1,3.5c0.1-3-0.7-4.4-2.3-4.4c-2.3,0-3.3,1.4-3.3,6.2c0,4.9,1.4,5.8,3.2,5.8
		c1.7,0,2.4-1.3,2.6-3.8l11.7,3.6c0,4.8-5,8.9-14.2,8.9c-10.9,0-16.5-5.4-16.5-14.8c0-9.5,5.8-14.8,15.8-14.8
		C216.3,45.5,219.7,50.6,219.8,55.2z"/>
	<path class="st0" d="M239.6,64.6L236,69v5.5h-13.1V34.7H236v21.5l8.3-10.1h14.1l-10.1,11.2L259,74.6h-14.2L239.6,64.6z"/>
	<path class="st0" d="M292.2,67.3l-1,6.7c-1.4,0.8-2.8,1.1-4.2,1.1c-4.6,0-7.9-1.6-8.9-4.8c-1.7,2.8-4.9,4.8-10.1,4.8
		c-6,0-8.8-2.4-8.8-6.8c0-4.7,3-7.4,11.1-9.2l5.6-1.3v-1.1c0-1.8-0.9-2.8-2.6-2.8c-1.6,0-2.9,0.7-3,3.5l-10.8-1.7
		c0.6-6.4,5.3-10.3,14.6-10.3c10.2,0,14.8,3.9,14.8,11.7v8c0,1.6,0.7,2.3,1.9,2.3C291.4,67.6,291.8,67.5,292.2,67.3z M275.8,65.2
		v-2.7l-1.9,0.6c-1.6,0.5-2.6,1.5-2.6,3c0,1.4,0.9,2,2,2C274.7,68,275.8,67.1,275.8,65.2z"/>
	<path class="st0" d="M324.8,55.1v19.5h-13.1V58.5c0-2.6-0.6-3.3-2-3.3c-1.9,0-2.7,1.4-2.7,4.4v14.9h-13.1V46.1h11.8l0.3,6.2
		c1.7-4.3,5-6.8,9.9-6.8C321.5,45.5,324.8,49,324.8,55.1z"/>
	<path class="st0" d="M359.9,60.3c0,9.4-5.8,14.8-15.9,14.8s-15.9-5.4-15.9-14.8c0-9.4,5.8-14.8,15.9-14.8S359.9,50.9,359.9,60.3z
		 M341.3,60.3c0,4.8,0.6,6,2.7,6s2.7-1.2,2.7-6s-0.6-6-2.7-6S341.3,55.5,341.3,60.3z"/>
	<path class="st0" d="M386.7,46.2l-1.1,10.7c-0.7-0.5-2.1-0.9-3.6-0.9c-3.4,0-5.6,1.7-5.6,4.9v13.7h-13.1V46.1h11.8l0.3,7.1
		c1.3-4.7,3.9-7.7,8.4-7.7C385.4,45.5,386.3,45.9,386.7,46.2z"/>
	<path class="st0" d="M412.4,71.4c-3.8,11.3-8.3,15.4-17.5,15.4c-3.6,0-6.7-0.7-8.8-1.9l2.4-8.3c1.2,0.7,2.3,1,5.1,1
		c2.5,0,3.5-0.4,3.9-1.5l0.2-0.5l-3.6-8.4l-8.1-21.2h14.3l2.6,14.7l1.1,6.7l1.3-6.7l2.8-14.6h12.8L412.4,71.4z"/>
</g>
</svg>
