<?xml version="1.0" encoding="utf-8"?>
<!-- Generator: Adobe Illustrator 27.7.0, SVG Export Plug-In . SVG Version: 6.00 Build 0)  -->
<svg version="1.1" id="a" xmlns="http://www.w3.org/2000/svg" xmlns:xlink="http://www.w3.org/1999/xlink" x="0px" y="0px"
	 viewBox="0 0 487.7 277.3" style="enable-background:new 0 0 487.7 277.3;" xml:space="preserve">
<path d="M483.4,16.7c0.7-0.2,4.4-0.7,4.4-1.9c0-1.1-3.3-0.2-4-0.1c-2.9,0.3-5.7,0.9-8.5,1.4c2.6-5.7,3.4-10,2.7-13.3
	c-3.3,3.8-6.7,7.4-10.2,10.8c-1.3-0.3-4.6-0.2-5.2-0.2c-2.4,0-4.7,0.2-7.1,0.4c1.6-4.2,2.9-8.6,3.4-13.3c-2.4-0.3-3.1,1.4-4.1,2.5
	c-3.8,3.9-7.4,8-11.1,11.9c-2.4,0.2-4.8,0.5-7.2,0.8c-1.7,0.2-3.5,0.2-5.2,0.3c-2.2,0.1-4.2,0.8-6.4,1c-4.1,0.3-8.1,1.1-12.2,1.3
	c-1.8,0.1-3.5,0.7-5.3,0.9c-1.7,0.2-3.3,0.1-4.9,0.5c-4,0.8-8.1,1.4-12.2,1.9c-1.9,0.2-3.5,0.9-5.4,1.1c-1.7,0.2-3.3,0.7-5.1,0.9
	c-3.6,0.4-7.1,1.1-10.6,1.9c-6.8,1.6-13.7,2.4-20.5,4.2c-6.1,1.6-12.2,2.9-18.2,5c-12.5,4.3-24.9,8.4-36.3,15.3
	c-2.5,1.5-5.2,3-7.2,5.1c-1.3,1.4-3.1,3.2-3.8,5c-0.9,2.1-3.2,6.9,1.2,5.4c3.1-1,6.1-2.8,9.1-4.1c12-5.5,24.5-10.3,37.2-14.2
	c23.8-7.3,47.8-14.2,72.4-19.1c11.8-2.4,23.7-5,35.4-7.6c-1.1,1.1-2.3,2.2-3.4,3.3c-5.4,1.2-10.9,2.3-16.4,3.4
	c-1.6,0.3-3,0.8-4.6,1.1c-1.6,0.3-3.5,0.7-5,1.2c-2.8,0.9-5.8,1.1-8.6,2c-6.6,2.1-13.5,3.2-20.2,5c-6.4,1.7-13,3.3-19.3,5.3
	c-3.2,1-6.6,1.9-9.9,2.8c-3.6,1-7,2.3-10.6,3.3c-3.2,0.9-6.3,2.2-9.5,3.1c-3.6,1-7,2.6-10.6,3.7c-7.7,2.3-15.2,5.8-22.5,9
	c-3.4,1.5-6.6,3.2-10,4.6c-2.6,1.1-6.6,2.6-7.1,5.8c0,0.9,1.1,2.7,2,3.1c1.2,0.6,3-0.5,4.1-0.9c13.6-5.8,27.1-11.3,41-16.1
	c6.8-2.4,13.8-4.9,20.7-7.1c6.8-2.2,13.9-3.9,20.6-6.2c6.6-2.3,13.4-3.8,20.2-5.7c6.5-1.9,13.1-3.4,19.5-5.2
	c6.1-1.7,12.3-3.3,18.5-4.9c-2.7,2.4-5.4,4.7-8.2,6.9c0,0-0.1,0-0.1,0c-5.9,1.2-11.9,2.7-17.8,4.3c-5,1.4-10.2,2.5-15.2,3.8
	c-2.9,0.8-5.9,1.6-8.9,2.5c-2.9,0.8-5.7,1.5-8.6,2.4c-9.8,3.1-19.8,5.7-29.6,9c-8.6,3-17.4,6.1-25.9,9.5c-5.4,2.2-10.7,4.6-16.1,7
	c-2.6,1.2-5.3,2.4-7.8,3.7c-0.7,0.3-4.9,2.6-4,3.2c0.4,0.3,3.3-1,3.8-1.1c1.3-0.4,2.6-0.8,3.8-1.4c1.9-0.9,3.9-1.6,5.9-2.3
	c5.4-2,10.8-4,16.1-6c9.9-3.7,20-6.7,30-10c4.6-1.5,9.3-2.9,13.9-4.4c5.1-1.7,10.5-3.6,15.8-4.8c5.8-1.3,11.5-3.3,17.1-5
	c5.2-1.6,10.5-3.1,15.8-4.6c2.3-0.6,4.5-1.3,6.8-1.9c-2.6,2-5.2,3.9-7.9,5.7c-9,2.5-17.9,5-26.7,7.8c-17.5,5.6-35.4,10.5-52.4,17.5
	c-8.5,3.5-17.4,6.4-25.9,10.1c-1.9,0.8-3.9,1.8-5.8,2.6c-0.8,0.4-4.1,1.3-3.1,2.3c1.1,1.1,4.7-0.8,5.9-1.1c2.1-0.6,4.1-1.2,6.2-1.8
	c2.2-0.6,4.3-1.4,6.5-2c2.2-0.7,4.3-1.3,6.5-2.1c4.4-1.5,8.9-2.8,13.4-4.1c3.6-1.1,7-2.2,10.5-3.4c2-0.7,4.1-1.4,6.2-1.9
	c1.6-0.4,4.1-0.8,5.4-1.8c2.6-0.2,5.5-1.6,8.1-2.3c2.5-0.7,5-1.7,7.5-2.4c4.6-1.4,9.1-3.1,13.7-4.2c1.7-0.4,3.3-0.9,4.9-1.4
	c-5.8,3.1-11.8,6-18,8.5c-8.3,3.3-16.6,6.6-24.6,10.5c-8.7,2.4-17.4,5-26,7.7c-4.6,1.5-9.2,2.6-13.7,4c-5,1.6-10.1,3-15.2,4.3
	c-0.8,0.2-1.7,0.4-2.5,0.7c-0.2-0.3-0.3-0.6-0.5-0.9c-4.6-8.9-9.3-17.6-7.9-28.1c0.2-1.5-0.4-3.1-0.6-4.7
	c-4.2-26.7-31.5-41.8-56.2-31.1c-2.4,1-4.4,0.6-6.6,0c-6.1-1.7-12.2-3.1-18.6-2.7c-4.1,0.2-8,1.1-11.2,3.9c-0.6,0.5-1.3,1.4-1.3,2.1
	c0,1.3,1.3,1.5,2.3,1.6c3.1,0.2,5.9,1.2,7.3,4.3c3,6.5,8.3,10.8,14.5,13.8c3.4,1.7,4.4,4,4.1,7.5c-0.9,11.1-3.3,21.8-7.1,32.2
	c-0.6,1.6-1.4,2.8-2.5,3.6c-2.7-0.8-5.4-1.7-8.1-2.5c-10.4-3-20.8-6-31-9.2c-5.5-1.7-11-3.4-16.5-4.8c-1.7-0.4-3.3-0.9-4.9-1.5
	c-7.8-3.9-15.9-7.2-24.1-10.4c-6.5-2.5-12.7-5.5-18.8-8.7c2.3,0.8,4.6,1.5,7,2.1c4.6,1.1,9.1,2.9,13.7,4.2c2.5,0.8,5,1.7,7.5,2.4
	c2.5,0.7,5.4,2.1,8.1,2.3c1.3,1,3.8,1.4,5.4,1.8c2.1,0.5,4.2,1.2,6.2,1.9c3.5,1.2,7,2.3,10.5,3.4c4.5,1.4,9,2.6,13.4,4.1
	c2.1,0.7,4.3,1.4,6.5,2.1c2.1,0.7,4.3,1.5,6.5,2c2.1,0.5,4.1,1.2,6.2,1.8c1.2,0.3,4.8,2.1,5.9,1.1c1-1-2.3-1.9-3.1-2.3
	c-1.9-0.9-3.8-1.8-5.8-2.6c-8.5-3.7-17.4-6.6-25.9-10.1c-17-7-34.9-11.9-52.4-17.5c-9.4-3-19-5.7-28.5-8.4c-2.7-1.9-5.4-3.8-8-5.8
	c2.9,0.8,5.8,1.7,8.7,2.5c5.3,1.5,10.6,3,15.8,4.6c5.6,1.7,11.3,3.7,17.1,5c5.3,1.2,10.7,3.1,15.8,4.8c4.7,1.5,9.3,2.9,13.9,4.4
	c10,3.3,20.1,6.3,30,10c5.4,2,10.7,4,16.1,6c2,0.7,4,1.4,5.9,2.3c1.2,0.6,2.5,1,3.8,1.4c0.5,0.2,3.4,1.4,3.8,1.1
	c0.9-0.6-3.3-2.9-4-3.2c-2.6-1.3-5.2-2.5-7.8-3.7c-5.3-2.4-10.6-4.8-16.1-7c-8.6-3.5-17.3-6.6-25.9-9.5c-9.8-3.4-19.8-5.9-29.6-9
	c-2.9-0.9-5.7-1.5-8.6-2.4c-3-0.9-6-1.7-8.9-2.5c-5-1.3-10.2-2.4-15.2-3.8C81,41.5,75,39.9,69,38.7c-0.6-0.1-1.3-0.3-1.9-0.4
	c-2.8-2.3-5.5-4.6-8.3-7c6.8,1.7,13.6,3.4,20.3,5.3c6.4,1.8,13,3.3,19.5,5.2c6.7,2,13.5,3.4,20.2,5.7c6.8,2.4,13.8,4.1,20.6,6.2
	c6.9,2.2,13.8,4.7,20.7,7.1c13.9,4.8,27.5,10.3,41,16.1c1.1,0.5,2.9,1.5,4.1,0.9c0.8-0.4,2-2.3,2-3.1c-0.5-3.2-4.5-4.7-7.1-5.8
	c-3.4-1.4-6.7-3.1-10-4.6c-7.3-3.2-14.8-6.7-22.5-9c-3.6-1.1-7-2.7-10.6-3.7c-3.2-0.9-6.3-2.1-9.5-3.1c-3.6-1-7-2.4-10.6-3.3
	c-3.3-0.9-6.7-1.7-9.9-2.8c-6.3-2-12.9-3.6-19.3-5.3c-6.7-1.8-13.6-2.9-20.2-5c-2.8-0.9-5.8-1.1-8.6-2c-1.6-0.5-3.4-0.9-5-1.2
	c-1.6-0.3-3-0.8-4.6-1.1c-6.1-1.2-12.1-2.5-18.2-3.8c-1.2-1.1-2.3-2.2-3.5-3.4c0.2,0,0.4,0.1,0.6,0.1c12.1,2.7,24.4,5.5,36.6,7.9
	c24.5,4.9,48.5,11.8,72.4,19.1c12.6,3.9,25.1,8.7,37.2,14.2c3,1.4,5.9,3.1,9.1,4.1c4.4,1.5,2.1-3.4,1.2-5.4c-0.8-1.8-2.5-3.6-3.8-5
	c-2-2.1-4.7-3.6-7.2-5.1c-11.4-6.9-23.8-10.9-36.3-15.3c-6-2.1-12.1-3.4-18.2-5c-6.7-1.8-13.7-2.6-20.5-4.2c-3.5-0.8-7-1.5-10.6-1.9
	c-1.7-0.2-3.3-0.8-5.1-0.9c-1.9-0.2-3.6-0.8-5.4-1.1c-4.1-0.5-8.2-1-12.2-1.9c-1.6-0.3-3.3-0.3-4.9-0.5c-1.8-0.2-3.5-0.8-5.3-0.9
	c-4.1-0.2-8.1-1-12.2-1.3c-2.2-0.2-4.2-0.8-6.4-1c-1.7-0.1-3.5-0.1-5.2-0.3c-3-0.3-5.9-0.6-8.9-0.9c-2.9-3-5.8-6-8.6-9.1
	c-2.1-2.2-3.7-5-7.3-6.6c0.5,5.3,1.9,10,3.8,14.5c-1.7-0.2-3.4-0.3-5.1-0.2c-0.9,0-8-0.2-5,1.1c1.3,0.6,3.2,0.8,4.7,1.2
	c1.7,0.4,3.5,0.8,5.3,1.1c0.5,0.1,1,0.2,1.5,0.3c0.4,0.9,0.9,1.9,1.3,2.8c-0.2-0.1-0.5-0.1-0.7-0.2c-1.8-0.5-3.8-0.5-5.6-1
	c-1.1-0.3-2.2-0.6-3.4-0.8C17.6,14,12.3,8.7,6.9,3.5c0.7,4.6,1.9,9,3.6,13.2c-2.2-0.4-4.4-0.9-6.6-1.1c-0.7-0.1-4-1-4,0.1
	c0,1.2,3.6,1.6,4.4,1.9c2.4,0.7,4.9,1.2,7.4,1.8c2.1,4.5,4.6,8.8,7.5,13.1c-0.9-0.2-1.8-0.5-2.6-0.8c-2.2-0.7-4.5-1.1-6.8-1.8
	c-1.2-0.4-2.3-0.5-3.6-0.7c-1.2-0.2-2.5-1-3.6-0.3c2,1.7,4.3,2,6.6,2.7c2.4,0.8,4.9,1.5,7.2,2.4c1.6,0.6,3.2,1.1,4.9,1.6
	c1.9,2.7,4,5.4,6.1,8.1C17.7,42,10.2,37.6,2,34.6c0.5,2.3,1.3,4,2.2,5.6c0.8,1.4,1.6,2.7,2.5,4.1c1.3,5,3.9,13.6,7.3,24.2
	c-0.6,0.1-0.4,0.4,0.3,0.9c14.5,46,42.5,128.7,42.9,129.4c0.4,0.7,1.7,3.4,2.3,4.1c0.7,0.8,2.1,1.7,2.9,2.2
	c4.5,2.7,50.4,14.8,60.5,17.9c10.2,3,20.6,5.4,30.8,8.4c10.1,3.1,20.3,5.8,30.5,8.5c4,1.1,8,2.1,12,3.2c2.2,0.6,4.4,1,6.6,1.6
	c1.3,0.4,2.7,0.7,4,1.1c-5,19-20.1,31.5-20.1,31.5h111.1c0,0-14.7-12.9-19.4-31.5c8.6-2.3,17.3-4.4,25.9-7c5-1.5,10.1-2.9,15.1-4.1
	c5.2-1.2,10.2-3.2,15.4-4.4c9.9-2.4,19.6-5.6,29.5-8.1c5.1-1.3,10.4-2.5,15.4-4.1c4.9-1.6,9.9-2.7,14.9-4.2
	c4.7-1.5,9.6-2.4,14.4-3.8c4.8-1.4,9.7-2.8,13.9-5.8c2.2-1.6,3.7-3.2,4.7-5.8c0.4-1.1,1-2.1,1.4-3.2c0.4-1.1,50.5-151.2,50.7-152.3
	c0.1-0.7,0.9-1.7,1-2.3c1-1.9,1.9-3.9,2.7-5.9c-8.3,3.4-16.1,7.2-25.3,8.9c2.1-2.9,4-5.6,5.8-8.2c2.5-0.7,5-1.5,7.4-2.4
	c2.4-0.9,4.8-1.6,7.2-2.4c2.4-0.7,4.7-1,6.6-2.7c-1.1-0.7-2.4,0-3.6,0.3c-1.2,0.2-2.4,0.4-3.6,0.7c-2.3,0.7-4.6,1.1-6.8,1.8
	c-1.7,0.5-3.4,1-5.1,1.3c3.3-5,5.9-9.3,7.8-13.1C477,18.2,480.2,17.6,483.4,16.7z M30.5,24.1c1.2,0.3,2.5,0.5,3.7,0.8
	c0.3,0.1,0.7,0.2,1,0.2c0.4,0.9,0.9,1.8,1.3,2.7C34.4,26.7,32.5,25.4,30.5,24.1z M410.9,157c0,30.7-19.4,48.4-53.9,48.4
	c-39.5,0-53.2-22-47.9-51.5l40-6.7c-2.9,21.5,1,28.1,10.5,28.1c7.7,0,11.3-6.2,11.3-21.3V90.4h40V157z M448.8,27.7
	c0.5-1,1-1.9,1.5-2.9c1.1-0.3,2.1-0.5,3.2-0.8c0.6-0.1,1.1-0.2,1.7-0.4C453.2,25.1,451,26.5,448.8,27.7z M462.4,18.4
	c-0.5,0.1-0.9,0.2-1.4,0.3c-1.8,0.5-3.7,0.5-5.6,1c-0.9,0.2-1.8,0.4-2.7,0.5c0.5-0.9,0.9-1.9,1.3-2.8c1.2-0.2,2.4-0.4,3.5-0.6
	c1.7-0.3,3.6-0.7,5.3-1.1c1-0.2,2.3-0.4,3.4-0.7C465,16.1,463.7,17.3,462.4,18.4z"/>
</svg>
